<?xml version="1.0" encoding="UTF-8"?>
<svg version="1.1" xmlns="http://www.w3.org/2000/svg" width="318" height="318">
<path d="M0 0 C104.94 0 209.88 0 318 0 C318 104.94 318 209.88 318 318 C213.06 318 108.12 318 0 318 C0 213.06 0 108.12 0 0 Z M4 4 C4 106.3 4 208.6 4 314 C106.3 314 208.6 314 314 314 C314 211.7 314 109.4 314 4 C211.7 4 109.4 4 4 4 Z " fill="#4A4A4A" transform="translate(0,0)"/>
<path d="M0 0 C6.6 0 13.2 0 20 0 C20 6.6 20 13.2 20 20 C18.02 20.33 16.04 20.66 14 21 C12.89181422 24.7488238 11.78922102 28.49927169 10.6875 32.25 C10.37876953 33.29414062 10.07003906 34.33828125 9.75195312 35.4140625 C7.90357121 41.71801768 6.23682101 48.01676587 4.81958008 54.43261719 C3.95039352 57.15539521 2.79705914 58.80492443 1 61 C0.0635361 63.07978722 0.0635361 63.07978722 -0.625 65.1875 C-1.90934844 68.90934844 -1.90934844 68.90934844 -3 70 C-3.1327131 71.539472 -3.23092004 73.08197326 -3.3125 74.625 C-4.26877877 84.40953349 -10.47668324 90.12829248 -17 97 C-17.62718681 97.8010894 -17.62718681 97.8010894 -18.26704407 98.61836243 C-20.78298145 100.62424934 -22.66023855 100.36062743 -25.84838867 100.34057617 C-27.0494072 100.34034958 -28.25042572 100.34012299 -29.48783875 100.33988953 C-30.78478165 100.32440567 -32.08172455 100.30892181 -33.41796875 100.29296875 C-34.75889105 100.28737234 -36.09981949 100.28310245 -37.44075012 100.28010559 C-40.96724431 100.26866018 -44.49336684 100.23919618 -48.01971436 100.20599365 C-51.61921155 100.17528589 -55.2187689 100.16159878 -58.81835938 100.14648438 C-65.87905814 100.11432579 -72.93950479 100.06313345 -80 100 C-82.52834366 71.88919452 -82.52834366 71.88919452 -78.60693359 64.30615234 C-75.10761768 60.23176398 -70.78135019 57.6370157 -66.06933594 55.1484375 C-62.98079066 53.43436046 -60.49704528 51.29473459 -57.8125 49 C-56.99394531 48.34 -56.17539063 47.68 -55.33203125 47 C-52.92350726 44.98917568 -52.92350726 44.98917568 -50.5703125 42.546875 C-47.87347832 39.87463202 -45.07423238 37.56015765 -42.0625 35.25 C-40.56396484 34.08210938 -40.56396484 34.08210938 -39.03515625 32.890625 C-35.83795194 30.89905887 -33.74829844 30.1459699 -30 30 C-29.01 30.66 -28.02 31.32 -27 32 C-27.36504064 37.66442374 -28.0554321 42.00703705 -31 47 C-30.67 47.33 -30.34 47.66 -30 48 C-29.38125 47.34 -28.7625 46.68 -28.125 46 C-26 44 -26 44 -24 44 C-24 43.34 -24 42.68 -24 42 C-19.85385008 38.83712674 -15.68930574 36.24132939 -10.5 35.5 C-8 36 -8 36 -6 38 C-6.1592486 42.77745788 -6.41500081 45.13970708 -9.125 49.125 C-11.35037679 51.90194606 -11.35037679 51.90194606 -10.75 55.375 C-10.5025 56.24125 -10.255 57.1075 -10 58 C-6.83896287 55.89264191 -6.57975982 55.54889514 -5.5 52.1875 C-4.71557201 49.77351626 -3.93252936 47.89549934 -2.54760742 45.75048828 C-0.86341779 42.757259 -0.13653297 40.17147094 0.60546875 36.82421875 C0.86650391 35.66728516 1.12753906 34.51035156 1.39648438 33.31835938 C1.78803711 31.52108398 1.78803711 31.52108398 2.1875 29.6875 C2.46013672 28.46998047 2.73277344 27.25246094 3.01367188 25.99804688 C3.68374051 23.00037139 4.34554038 20.00111495 5 17 C4.401875 16.71125 3.80375 16.4225 3.1875 16.125 C1 15 1 15 -2 13 C-1.47694567 8.59139921 -0.87251184 4.36255922 0 0 Z " fill="#FED158" transform="translate(188,51)"/>
<path d="M0 0 C6.6 0 13.2 0 20 0 C20 6.6 20 13.2 20 20 C17.03 20.495 17.03 20.495 14 21 C12.89181422 24.7488238 11.78922102 28.49927169 10.6875 32.25 C10.37876953 33.29414062 10.07003906 34.33828125 9.75195312 35.4140625 C7.90357121 41.71801768 6.23682101 48.01676587 4.81958008 54.43261719 C3.95062106 57.15468245 2.79905571 58.80728834 1 61 C0.09712976 62.97796899 0.09712976 62.97796899 -0.5625 65 C-0.81386719 65.69480469 -1.06523437 66.38960938 -1.32421875 67.10546875 C-1.65873047 68.04326172 -1.65873047 68.04326172 -2 69 C-3.50529134 72.97826998 -5.29782963 73.95199086 -9 76 C-9.71027344 76.51304688 -10.42054688 77.02609375 -11.15234375 77.5546875 C-11.92707031 78.11414063 -12.70179688 78.67359375 -13.5 79.25 C-14.2321875 79.79140625 -14.964375 80.3328125 -15.71875 80.890625 C-18.61304715 82.29812567 -19.9890719 82.00196437 -23 81 C-24.875 79.3125 -24.875 79.3125 -26 77 C-25.8355708 73.13856581 -25.36309735 71.41304725 -22.78515625 68.48046875 C-21.43744141 67.34544922 -21.43744141 67.34544922 -20.0625 66.1875 C-19.16660156 65.41792969 -18.27070313 64.64835937 -17.34765625 63.85546875 C-15 62 -15 62 -13 61 C-12.34 60.01 -11.68 59.02 -11 58 C-10.360625 57.773125 -9.72125 57.54625 -9.0625 57.3125 C-6.18636154 55.48223007 -5.79720836 53.34258834 -4.80859375 50.16796875 C-4 48 -4 48 -2.54980469 45.75048828 C-0.8630992 42.75703774 -0.1368288 40.17280548 0.60546875 36.82421875 C0.99702148 35.08881836 0.99702148 35.08881836 1.39648438 33.31835938 C1.65751953 32.12017578 1.91855469 30.92199219 2.1875 29.6875 C2.46013672 28.46998047 2.73277344 27.25246094 3.01367188 25.99804688 C3.68374051 23.00037139 4.34554038 20.00111495 5 17 C4.1028125 16.566875 4.1028125 16.566875 3.1875 16.125 C1 15 1 15 -2 13 C-1.47694567 8.59139921 -0.87251184 4.36255922 0 0 Z " fill="#D36CA9" transform="translate(188,51)"/>
<path d="M0 0 C0.43892578 0.91845703 0.43892578 0.91845703 0.88671875 1.85546875 C2.26960382 4.51934209 3.61865435 6.16296193 6 8 C10.21213002 7.69162442 12.46060405 6.12886769 15.625 3.4375 C19.67806841 0 19.67806841 0 23 0 C24.19444611 3.58333832 23.52527994 5.32373832 22.140625 8.75390625 C20.0115272 12.94647897 17.11465866 16.49889295 14 20 C13.63318115 20.60062256 13.2663623 21.20124512 12.88842773 21.82006836 C10.73611006 24.7703148 8.77295292 26.66633023 5.07635498 27.36203003 C-0.75537421 27.88716855 -6.5947183 27.63540669 -12.4375 27.4375 C-14.23626771 27.40235706 -16.03510116 27.37042328 -17.83398438 27.34179688 C-22.22428771 27.26496702 -26.61141891 27.14435078 -31 27 C-27.57566164 22.79271896 -24.41124278 19.5602775 -20 16.3125 C-13.09081951 11.15094166 -6.53402025 5.62503216 0 0 Z " fill="#FEC635" transform="translate(161,124)"/>
<path d="M0 0 C5.6872046 1.52205636 10.12103909 4.38844932 15 7.5625 C16.68306397 8.65576394 18.36666298 9.74820461 20.05078125 10.83984375 C21.29722412 11.64784424 21.29722412 11.64784424 22.56884766 12.47216797 C24.797192 13.87254745 27.05013955 15.17312808 29.35546875 16.44140625 C30.00708984 16.81386475 30.65871094 17.18632324 31.33007812 17.57006836 C33.07584955 18.56158759 34.84015627 19.52026751 36.60546875 20.4765625 C39.24848784 23.26186484 39.56168184 24.19329027 39.921875 27.90234375 C39.72746418 30.98794142 39.49062186 32.4694704 37.3762207 34.75585938 C35.01262919 36.35713167 32.61396119 37.65666834 30.0625 38.9375 C28.2339683 39.93829047 26.40717592 40.9422646 24.58203125 41.94921875 C23.18911865 42.69824463 23.18911865 42.69824463 21.76806641 43.46240234 C17.46131869 45.85470232 13.35987357 48.53742138 9.25 51.25 C8.51789307 51.72816162 7.78578613 52.20632324 7.03149414 52.69897461 C5.35207621 53.79587432 3.67565795 54.89736498 2 56 C0.29115995 54.37660195 -1.37446717 52.70680947 -3 51 C-3 50.34 -3 49.68 -3 49 C-1.38623047 47.81420898 -1.38623047 47.81420898 0.8828125 46.49609375 C1.71458008 46.00657227 2.54634766 45.51705078 3.40332031 45.01269531 C4.30147461 44.49288086 5.19962891 43.97306641 6.125 43.4375 C7.95678432 42.35986448 9.78750729 41.2804229 11.6171875 40.19921875 C12.98182129 39.39363525 12.98182129 39.39363525 14.37402344 38.57177734 C18.04842906 36.37246316 21.65797964 34.08084969 25.25 31.75 C25.8392627 31.3677124 26.42852539 30.9854248 27.03564453 30.59155273 C28.35880029 29.73031399 29.67970772 28.86562209 31 28 C23.64003961 22.71447258 16.07788126 17.83117315 8.375 13.0625 C7.27542969 12.37865234 6.17585937 11.69480469 5.04296875 10.99023438 C2.36352127 9.32431703 -0.31747771 7.66095988 -3 6 C-1.125 1.125 -1.125 1.125 0 0 Z " fill="#4C4C4C" transform="translate(227,82)"/>
<path d="M0 0 C0.66 1.98 1.32 3.96 2 6 C-6.05664062 11.12695312 -6.05664062 11.12695312 -14.11328125 16.25390625 C-15.0770166 16.86766113 -16.04075195 17.48141602 -17.03369141 18.11376953 C-19.07072827 19.40909026 -21.10956498 20.70158356 -23.14990234 21.99169922 C-24.14586426 22.62221191 -25.14182617 23.25272461 -26.16796875 23.90234375 C-27.07184326 24.47331787 -27.97571777 25.04429199 -28.90698242 25.63256836 C-30.90268047 26.83427481 -30.90268047 26.83427481 -32 28 C-31.24662354 28.47457642 -31.24662354 28.47457642 -30.47802734 28.95874023 C-29.7711377 29.40419189 -29.06424805 29.84964355 -28.3359375 30.30859375 C-27.15608276 31.05206055 -27.15608276 31.05206055 -25.95239258 31.81054688 C-24.22700114 32.89968285 -22.5028882 33.99084669 -20.7800293 35.08398438 C-16.74647302 37.6429678 -12.7087059 40.18824605 -8.62109375 42.66015625 C-7.64873779 43.25775757 -7.64873779 43.25775757 -6.65673828 43.86743164 C-4.90807466 44.94130648 -3.15151199 46.00228762 -1.39453125 47.0625 C-0.60433594 47.701875 0.18585938 48.34125 1 49 C1 53 1 53 -1 56 C-6.12248115 54.27876388 -10.42431396 51.33883389 -14.9375 48.4375 C-15.77200684 47.90535889 -16.60651367 47.37321777 -17.46630859 46.82495117 C-19.98004552 45.22051495 -22.49008182 43.61040123 -25 42 C-26.44116388 41.08034924 -27.88255303 40.16105136 -29.32421875 39.2421875 C-30.59136517 38.43263489 -31.85830629 37.62276079 -33.125 36.8125 C-33.71015381 36.43859131 -34.29530762 36.06468262 -34.89819336 35.67944336 C-38.88189817 33.11810183 -38.88189817 33.11810183 -40 32 C-40.66046918 28.86708953 -40.73533323 26.12288055 -40 23 C-37.63263278 20.3295603 -34.73864971 18.81516402 -31.625 17.125 C-29.88801954 16.11198138 -28.15104041 15.09896049 -26.4140625 14.0859375 C-25.51977539 13.58030273 -24.62548828 13.07466797 -23.70410156 12.55371094 C-21.04071997 11.02339671 -18.43537061 9.42529945 -15.8359375 7.7890625 C-15.02302246 7.27843262 -14.21010742 6.76780273 -13.37255859 6.24169922 C-11.81503723 5.26243851 -10.25805305 4.28232279 -8.70166016 3.30126953 C-7.9957373 2.86669434 -7.28981445 2.43211914 -6.5625 1.984375 C-5.94503906 1.59991211 -5.32757813 1.21544922 -4.69140625 0.81933594 C-3 0 -3 0 0 0 Z " fill="#4C4B4B" transform="translate(78,83)"/>
<path d="M0 0 C0.66 0.66 1.32 1.32 2 2 C1.88851095 8.46636514 0.11746414 12.99605633 -4 18 C-6.3125 19.625 -6.3125 19.625 -9 21 C-10.3194204 22.05389388 -11.63132639 23.11723227 -12.9375 24.1875 C-15.59577141 26.18996434 -16.9239417 26.98391074 -20.25 27.6875 C-23 27 -23 27 -25.4375 24.8125 C-27 22 -27 22 -27.0625 19.625 C-25.13748779 14.86908749 -22.83255635 10.93663991 -18.1875 8.5625 C-17.1046875 8.2840625 -17.1046875 8.2840625 -16 8 C-16 7.34 -16 6.68 -16 6 C-11.2584201 2.38290545 -6.16403069 -1.23280614 0 0 Z " fill="#D36BA9" transform="translate(180,87)"/>
<path d="M0 0 C0.64396729 0.2283252 1.28793457 0.45665039 1.95141602 0.69189453 C3.70028583 0.7581396 5.45144349 0.77742049 7.20141602 0.75439453 C8.09344727 0.74537109 8.98547852 0.73634766 9.90454102 0.72705078 C10.58000977 0.71544922 11.25547852 0.70384766 11.95141602 0.69189453 C10.59562465 9.63225787 -3.31358873 16.93424996 -10.20825195 22.26757812 C-12.07633197 23.71336995 -13.93960497 25.16519907 -15.80249023 26.61767578 C-16.98841261 27.53860364 -18.17460033 28.45918991 -19.36108398 29.37939453 C-20.19687988 30.03077393 -20.19687988 30.03077393 -21.04956055 30.6953125 C-24.93324832 33.69189453 -24.93324832 33.69189453 -26.04858398 33.69189453 C-26.58258131 29.24850937 -26.78669362 25.12055233 -26.04858398 20.69189453 C-24.24706413 18.6520784 -22.45626988 17.80175011 -20.03295898 16.57080078 C-15.03930146 13.42688812 -11.26121724 8.95054129 -7.27880859 4.63183594 C-6.66013916 3.98263184 -6.04146973 3.33342773 -5.40405273 2.66455078 C-4.85386475 2.06908447 -4.30367676 1.47361816 -3.73681641 0.86010742 C-2.04858398 -0.30810547 -2.04858398 -0.30810547 0 0 Z " fill="#FED050" transform="translate(134.048583984375,107.30810546875)"/>
<path d="M0 0 C0.33 0.33 0.66 0.66 1 1 C0.984375 2.890625 0.984375 2.890625 0.75 5.25 C0.68296875 6.01828125 0.6159375 6.7865625 0.546875 7.578125 C-0.7255093 13.21296976 -4.09183005 16.19769879 -8.5 19.6875 C-9.4590625 20.45449219 -10.418125 21.22148438 -11.40625 22.01171875 C-16.51476005 25.92773022 -16.51476005 25.92773022 -19.9375 26.4375 C-23 26 -23 26 -25.3125 23.8125 C-26.96821413 21.05297646 -27.46987372 19.12302113 -28 16 C-8.52505967 -1.81384248 -8.52505967 -1.81384248 0 0 Z " fill="#D26AA8" transform="translate(160,82)"/>
<path d="M0 0 C0.66 0.33 1.32 0.66 2 1 C0.65260659 8.00644571 -2.43136992 11.65312617 -8.01171875 15.75390625 C-11.92326062 18.69395406 -15.67210513 21.81371427 -19.4375 24.9375 C-28.15613113 32.14169819 -36.89507043 39.28575026 -46 46 C-46 45.01 -46 44.02 -46 43 C-44.04141634 41.24339528 -42.10648532 39.68691736 -40 38.125 C-38.71765787 37.14726406 -37.43645376 36.16803417 -36.15625 35.1875 C-35.47949219 34.671875 -34.80273438 34.15625 -34.10546875 33.625 C-30.51803155 30.8562173 -27.01042643 27.99036914 -23.5 25.125 C-22.84257812 24.5902002 -22.18515625 24.05540039 -21.5078125 23.50439453 C-20.25815343 22.48649621 -19.01065343 21.46593984 -17.765625 20.44238281 C-16.59742187 19.48804873 -15.42036831 18.5444377 -14.234375 17.61230469 C-10.82317412 14.90620823 -10.82317412 14.90620823 -9 11 C-9.66 11.33 -10.32 11.66 -11 12 C-18.36623662 12.23762054 -18.36623662 12.23762054 -20.89941406 11.2878418 C-23.08098651 10.74540402 -23.08098651 10.74540402 -24.82763672 12.29174805 C-25.43881348 12.94183838 -26.04999023 13.59192871 -26.6796875 14.26171875 C-27.36160156 14.96876953 -28.04351562 15.67582031 -28.74609375 16.40429688 C-29.44863281 17.15775391 -30.15117188 17.91121094 -30.875 18.6875 C-39.67976524 27.99049407 -39.67976524 27.99049407 -45 31 C-45.66 31 -46.32 31 -47 31 C-48.14430865 22.60630162 -48.14430865 22.60630162 -45.61279297 19.05273438 C-43.63732273 17.29377526 -41.60831519 15.76096388 -39.4375 14.25 C-38.01892038 13.19352808 -36.60094718 12.13624139 -35.18359375 11.078125 C-34.4860498 10.57474609 -33.78850586 10.07136719 -33.06982422 9.55273438 C-30.38989724 7.54231499 -27.90731411 5.34566466 -25.42993164 3.09277344 C-24 2 -24 2 -22 2 C-21.525625 3.134375 -21.05125 4.26875 -20.5625 5.4375 C-19.36377917 8.75740166 -19.36377917 8.75740166 -18 10 C-14.62118207 10.67576359 -12.6214888 10.39491537 -9.70703125 8.54296875 C-6.27056148 5.88012512 -3.02695073 3.12304441 0 0 Z " fill="#F2AE2C" transform="translate(155,97)"/>
<path d="M0 0 C1.65 0 3.3 0 5 0 C5 1.32 5 2.64 5 4 C6.65 4 8.3 4 10 4 C9.67 5.65 9.34 7.3 9 9 C7.68 9 6.36 9 5 9 C5.33 12.3 5.66 15.6 6 19 C9.45526297 19.89240897 9.45526297 19.89240897 12.9375 19.5 C15.79617948 18.80698679 18.15109983 19.41727042 21 20 C18.45115655 17.02634931 15.49777936 15.672851 12 14 C11 13 11 13 10.6875 10.125 C11 7 11 7 12.5 5.125 C16.21587044 3.4528583 18.92779509 3.67680913 23 4 C23.99 4.66 24.98 5.32 26 6 C25.34 7.32 24.68 8.64 24 10 C21.69 9.67 19.38 9.34 17 9 C17 9.66 17 10.32 17 11 C18.6396875 11.37125 18.6396875 11.37125 20.3125 11.75 C24 13 24 13 26.0625 14.75 C27 17 27 17 26.375 20.125 C25 23 25 23 22 25 C20.0625 25.23046875 20.0625 25.23046875 18 25.1875 C17.319375 25.18105469 16.63875 25.17460937 15.9375 25.16796875 C14 25 14 25 11 24 C10.34 24.33 9.68 24.66 9 25 C3.69136464 25.45179875 3.69136464 25.45179875 1.3203125 23.90234375 C-0.6498936 21.06361484 -0.28865242 18.71796483 -0.1875 15.3125 C-0.16042969 14.13300781 -0.13335937 12.95351563 -0.10546875 11.73828125 C-0.07066406 10.83464844 -0.03585938 9.93101562 0 9 C-0.99 9 -1.98 9 -3 9 C-3 7.35 -3 5.7 -3 4 C-2.01 4 -1.02 4 0 4 C0 2.68 0 1.36 0 0 Z " fill="#4C4B4B" transform="translate(210,256)"/>
<path d="M0 0 C2.66666667 0 5.33333333 0 8 0 C8.804375 -0.020625 9.60875 -0.04125 10.4375 -0.0625 C12.80863321 -0.00466748 14.71765444 0.42941361 17 1 C17.33 0.67 17.66 0.34 18 0 C20.9375 -0.1875 20.9375 -0.1875 24 0 C27.0103245 3.0103245 26.97819673 5.22903621 27.09765625 9.453125 C27.08605469 10.70609375 27.07445313 11.9590625 27.0625 13.25 C27.05347656 14.51328125 27.04445313 15.7765625 27.03515625 17.078125 C27.02355469 18.04234375 27.01195313 19.0065625 27 20 C25.02 20 23.04 20 21 20 C20.67 15.05 20.34 10.1 20 5 C19.01 5 18.02 5 17 5 C16.67 9.95 16.34 14.9 16 20 C14.35 20 12.7 20 11 20 C10.67 15.38 10.34 10.76 10 6 C9.01 6 8.02 6 7 6 C6.67 10.62 6.34 15.24 6 20 C4.02 20 2.04 20 0 20 C0 13.4 0 6.8 0 0 Z " fill="#4D4C4C" transform="translate(74,260)"/>
<path d="M0 0 C0.3723384 3.77339964 0.27283624 5.57142717 -1.79296875 8.81640625 C-2.58316406 9.72261719 -3.37335938 10.62882813 -4.1875 11.5625 C-4.96480469 12.47128906 -5.74210937 13.38007813 -6.54296875 14.31640625 C-15.12532752 23.69014309 -15.12532752 23.69014309 -20.10644531 24.22705078 C-21.20617676 24.21134033 -21.20617676 24.21134033 -22.328125 24.1953125 C-23.12734375 24.18886719 -23.9265625 24.18242187 -24.75 24.17578125 C-25.575 24.15902344 -26.4 24.14226562 -27.25 24.125 C-28.09046875 24.11597656 -28.9309375 24.10695312 -29.796875 24.09765625 C-31.86470604 24.07415817 -33.93238995 24.03828908 -36 24 C-34.03787588 21.62479711 -32.04201172 19.30588997 -30 17 C-29.23816406 16.1234375 -28.47632813 15.246875 -27.69140625 14.34375 C-20.44695743 6.47770261 -20.44695743 6.47770261 -15.4375 6.25 C-14.71304688 6.25644531 -13.98859375 6.26289063 -13.2421875 6.26953125 C-9.45181553 5.8138942 -6.83920726 3.51968798 -3.84765625 1.27734375 C-2 0 -2 0 0 0 Z " fill="#FFD360" transform="translate(182,127)"/>
<path d="M0 0 C3.73639216 1.24546405 4.18756513 2.63404953 6 6 C5.05125 6.144375 4.1025 6.28875 3.125 6.4375 C-1.92207626 7.8074207 -5.1298168 11.52221095 -8.765625 15.1015625 C-11 17 -11 17 -14 17 C-14.15082031 17.90298828 -14.15082031 17.90298828 -14.3046875 18.82421875 C-15.13978956 21.43743138 -15.98499722 22.13106924 -18.125 23.8125 C-21.16701707 26.31898956 -23.96286428 28.95049309 -26.69140625 31.7890625 C-27.34802246 32.46864014 -28.00463867 33.14821777 -28.68115234 33.84838867 C-30.00777967 35.22974058 -31.32474423 36.62044462 -32.63134766 38.02075195 C-33.25187012 38.66230225 -33.87239258 39.30385254 -34.51171875 39.96484375 C-35.06303467 40.5487085 -35.61435059 41.13257324 -36.18237305 41.73413086 C-38.5524589 43.38475479 -40.17522475 43.2348187 -43 43 C-43.65428174 39.7285913 -43.90136652 38.14160495 -43 35 C-40.27065676 31.99376687 -37.07086072 29.71558159 -33.79345703 27.33496094 C-30.41481888 24.82006938 -27.19136685 22.11045614 -23.9375 19.4375 C-18.66598145 15.14812514 -13.37952416 10.87837123 -8.05078125 6.66015625 C-6.16873099 5.13659175 -4.36813195 3.54982829 -2.5625 1.9375 C-1.716875 1.298125 -0.87125 0.65875 0 0 Z " fill="#FEC434" transform="translate(151,108)"/>
<path d="M0 0 C2.66666667 0 5.33333333 0 8 0 C9.4540625 -0.1546875 9.4540625 -0.1546875 10.9375 -0.3125 C14 0 14 0 16.375 1.875 C18.66878263 6.28612045 18.68101175 10.1207511 18 15 C15.97368421 19.51315789 15.97368421 19.51315789 13 21 C11.00039988 21.039992 8.99952758 21.04346799 7 21 C6.67 23.31 6.34 25.62 6 28 C4.02 28 2.04 28 0 28 C0 18.76 0 9.52 0 0 Z M7 5 C5.76732652 6.00836062 5.76732652 6.00836062 5.90234375 8.06640625 C5.91394531 8.89011719 5.92554687 9.71382813 5.9375 10.5625 C5.94652344 11.38878906 5.95554687 12.21507812 5.96484375 13.06640625 C5.97644531 13.70449219 5.98804687 14.34257812 6 15 C7.65614657 15.38218767 9.32457024 15.71395102 11 16 C12.23267348 14.99163938 12.23267348 14.99163938 12.09765625 12.93359375 C12.08605469 12.10988281 12.07445313 11.28617187 12.0625 10.4375 C12.05347656 9.61121094 12.04445313 8.78492188 12.03515625 7.93359375 C12.02355469 7.29550781 12.01195313 6.65742188 12 6 C10.34385343 5.61781233 8.67542976 5.28604898 7 5 Z " fill="#4B4B4B" transform="translate(104,260)"/>
<path d="M0 0 C1.65 0.33 3.3 0.66 5 1 C5 9.91 5 18.82 5 28 C3.02 28 1.04 28 -1 28 C-1.33 28.33 -1.66 28.66 -2 29 C-5.42389938 29.38043326 -7.35313861 29.40210303 -10.3125 27.5625 C-12.75635471 23.85146136 -13.20626454 20.40794969 -13 16 C-11.50831386 11.89786311 -10.64397687 10.42931791 -7 8 C-3.3125 8.375 -3.3125 8.375 0 9 C0 6.03 0 3.06 0 0 Z M-4 12 C-6.28639008 14.47692259 -6.97637294 15.70466178 -7.25 19.125 C-7.18281354 21.94107996 -7.18281354 21.94107996 -6 24 C-2.70924004 23.62095792 -2.70924004 23.62095792 0 22 C0.07148199 20.64756083 0.08399454 19.29165633 0.0625 17.9375 C0.041875 16.638125 0.02125 15.33875 0 14 C-1.32 13.34 -2.64 12.68 -4 12 Z " fill="#4B4B4B" transform="translate(128,216)"/>
<path d="M0 0 C1.65 0 3.3 0 5 0 C5.48198463 1.24891614 5.96045677 2.49918808 6.4375 3.75 C6.83775391 4.79414063 6.83775391 4.79414063 7.24609375 5.859375 C8 8 8 8 9 12 C10.32 8.04 11.64 4.08 13 0 C14.98 0 16.96 0 19 0 C18.04389685 3.67954847 17.03211823 7.34107443 16 11 C15.70996094 12.06476563 15.41992188 13.12953125 15.12109375 14.2265625 C13.25322423 20.52573754 11.91137049 24.74271422 6 28 C3.125 27.8125 3.125 27.8125 1 27 C1 26.01 1 25.02 1 24 C3.5 22.3125 3.5 22.3125 6 21 C5.73445313 20.35933594 5.46890625 19.71867187 5.1953125 19.05859375 C0 6.33576642 0 6.33576642 0 0 Z " fill="#4E4C4D" transform="translate(66,224)"/>
<path d="M0 0 C3.38939556 2.13679285 4.72582557 3.1774767 6 7 C6.37066773 12.00401435 6.09881835 14.98301324 3 19 C-0.7373856 21.4915904 -2.57331583 21.45793285 -7 21 C-10.38939556 18.86320715 -11.72582557 17.8225233 -13 14 C-13.37066773 8.99598565 -13.09881835 6.01698676 -10 2 C-6.2626144 -0.4915904 -4.42668417 -0.45793285 0 0 Z M-5.5625 5.0625 C-7.73002929 7.98395252 -7.25693207 10.46718405 -7 14 C-6.67 14.66 -6.34 15.32 -6 16 C-4.35 16 -2.7 16 -1 16 C0.52491998 12.95016004 0.23562548 10.3576631 0 7 C-1.29264699 5.03568595 -1.29264699 5.03568595 -3 4 C-4.17710009 3.90628166 -4.17710009 3.90628166 -5.5625 5.0625 Z " fill="#4C4C4C" transform="translate(138,260)"/>
<path d="M0 0 C3.38939556 2.13679285 4.72582557 3.1774767 6 7 C6.37066773 12.00401435 6.09881835 14.98301324 3 19 C-0.7373856 21.4915904 -2.57331583 21.45793285 -7 21 C-10.38939556 18.86320715 -11.72582557 17.8225233 -13 14 C-13.37066773 8.99598565 -13.09881835 6.01698676 -10 2 C-6.2626144 -0.4915904 -4.42668417 -0.45793285 0 0 Z M-5.5625 5.0625 C-7.73002929 7.98395252 -7.25693207 10.46718405 -7 14 C-6.67 14.66 -6.34 15.32 -6 16 C-4.35 16 -2.7 16 -1 16 C0.52491998 12.95016004 0.23562548 10.3576631 0 7 C-1.29264699 5.03568595 -1.29264699 5.03568595 -3 4 C-4.17710009 3.90628166 -4.17710009 3.90628166 -5.5625 5.0625 Z " fill="#4C4C4C" transform="translate(65,260)"/>
<path d="M0 0 C2.66666667 0 5.33333333 0 8 0 C9.485 -0.12375 9.485 -0.12375 11 -0.25 C14 0 14 0 15.67578125 1.5 C17.54725575 5.0331672 17.32150985 8.36027821 17.1875 12.25 C17.16719727 13.36761719 17.16719727 13.36761719 17.14648438 14.5078125 C17.11127204 16.33885416 17.05746851 18.16952169 17 20 C15.02 20 13.04 20 11 20 C10.67 15.05 10.34 10.1 10 5 C9.01 5.33 8.02 5.66 7 6 C6.67 10.62 6.34 15.24 6 20 C4.02 20 2.04 20 0 20 C0 13.4 0 6.8 0 0 Z " fill="#4B4A4A" transform="translate(188,260)"/>
<path d="M0 0 C2.66666667 0 5.33333333 0 8 0 C9.485 -0.12375 9.485 -0.12375 11 -0.25 C14 0 14 0 15.67578125 1.5 C17.54725575 5.0331672 17.32150985 8.36027821 17.1875 12.25 C17.16719727 13.36761719 17.16719727 13.36761719 17.14648438 14.5078125 C17.11127204 16.33885416 17.05746851 18.16952169 17 20 C15.02 20 13.04 20 11 20 C10.67 15.05 10.34 10.1 10 5 C9.01 5.33 8.02 5.66 7 6 C6.67 10.62 6.34 15.24 6 20 C4.02 20 2.04 20 0 20 C0 13.4 0 6.8 0 0 Z " fill="#4B4A4A" transform="translate(147,260)"/>
<path d="M0 0 C2.98415908 0.91182638 3.7558798 1.54837763 5.25 4.3125 C6 7 6 7 6 12 C2.04 12 -1.92 12 -6 12 C-5.67 13.32 -5.34 14.64 -5 16 C-0.545 15.505 -0.545 15.505 4 15 C4.33 16.32 4.66 17.64 5 19 C1.34148709 21.34144827 -1.72830036 21.44965259 -6 21 C-9.38939556 18.86320715 -10.72582557 17.8225233 -12 14 C-12.37066773 8.99598565 -12.09881835 6.01698676 -9 2 C-5.51195905 -0.32536063 -4.09859246 -0.33457898 0 0 Z M-4 4 C-4.66 5.32 -5.32 6.64 -6 8 C-4.02 8 -2.04 8 0 8 C-0.66 6.68 -1.32 5.36 -2 4 C-2.66 4 -3.32 4 -4 4 Z " fill="#4C4B4B" transform="translate(179,260)"/>
<path d="M0 0 C2.98415908 0.91182638 3.7558798 1.54837763 5.25 4.3125 C6 7 6 7 6 12 C2.04 12 -1.92 12 -6 12 C-5.67 13.32 -5.34 14.64 -5 16 C-0.545 15.505 -0.545 15.505 4 15 C4.33 16.32 4.66 17.64 5 19 C1.34148709 21.34144827 -1.72830036 21.44965259 -6 21 C-9.38939556 18.86320715 -10.72582557 17.8225233 -12 14 C-12.37066773 8.99598565 -12.09881835 6.01698676 -9 2 C-5.51195905 -0.32536063 -4.09859246 -0.33457898 0 0 Z M-4 4 C-4.66 5.32 -5.32 6.64 -6 8 C-4.02 8 -2.04 8 0 8 C-0.66 6.68 -1.32 5.36 -2 4 C-2.66 4 -3.32 4 -4 4 Z " fill="#4C4B4B" transform="translate(107,224)"/>
<path d="M0 0 C0.99 0.66 1.98 1.32 3 2 C2.34 3.32 1.68 4.64 1 6 C-1.31 5.67 -3.62 5.34 -6 5 C-6 5.66 -6 6.32 -6 7 C-4.906875 7.2475 -3.81375 7.495 -2.6875 7.75 C1 9 1 9 3.0625 10.75 C4 13 4 13 3.375 16.125 C2 19 2 19 -1 21 C-9.2173913 21.52173913 -9.2173913 21.52173913 -13 19 C-12.34 17.68 -11.68 16.36 -11 15 C-8.03 15.33 -5.06 15.66 -2 16 C-4.9385951 13.0614049 -7.30492216 11.76721114 -11 10 C-12 9 -12 9 -12.3125 6.125 C-12 3 -12 3 -10.5 1.125 C-6.78412956 -0.5471417 -4.07220491 -0.32319087 0 0 Z " fill="#4D4C4C" transform="translate(48,224)"/>
<path d="M0 0 C4.29 0 8.58 0 13 0 C12.01 5.61 11.02 11.22 10 17 C1.55446335 16.38800459 1.55446335 16.38800459 -0.80859375 14.734375 C-2.38675382 12.43698789 -2.17239839 11.28513308 -1.75 8.5625 C-1.64171875 7.80066406 -1.5334375 7.03882813 -1.421875 6.25390625 C-1.02855607 4.15256345 -0.51850131 2.07400524 0 0 Z " fill="#FEA7DC" transform="translate(191,51)"/>
<path d="M0 0 C0.99 0.66 1.98 1.32 3 2 C2.34 3.32 1.68 4.64 1 6 C0.030625 5.979375 -0.93875 5.95875 -1.9375 5.9375 C-4.87465895 5.64381501 -4.87465895 5.64381501 -6 7 C-6.04092937 9.33297433 -6.04241723 11.66705225 -6 14 C-5.2575 14.12375 -4.515 14.2475 -3.75 14.375 C-1.19858515 14.95486701 0.7267573 15.73708739 3 17 C2 20 2 20 0 21 C-4.14135035 21.39069343 -6.31186812 21.43382227 -9.875 19.1875 C-12.60809838 16.37401637 -12.94671805 14.56478869 -13.3125 10.6875 C-12.94446535 6.34469118 -11.71485449 4.35364378 -9 1 C-5.98131566 -0.50934217 -3.32702771 -0.17510672 0 0 Z " fill="#4C4B4B" transform="translate(48,260)"/>
<path d="M0 0 C1.65 0 3.3 0 5 0 C5 1.32 5 2.64 5 4 C6.65 4 8.3 4 10 4 C9.67 5.65 9.34 7.3 9 9 C7.68 9 6.36 9 5 9 C5.33 12.3 5.66 15.6 6 19 C8.475 19.99 8.475 19.99 11 21 C11 21.99 11 22.98 11 24 C8.20129973 25.39935013 6.09501208 25.25265405 3 25 C1.3203125 23.90234375 1.3203125 23.90234375 0 22 C-0.29296875 18.86328125 -0.29296875 18.86328125 -0.1875 15.3125 C-0.16042969 14.13300781 -0.13335937 12.95351562 -0.10546875 11.73828125 C-0.07066406 10.83464844 -0.03585938 9.93101562 0 9 C-0.99 9 -1.98 9 -3 9 C-3 7.35 -3 5.7 -3 4 C-2.01 4 -1.02 4 0 4 C0 2.68 0 1.36 0 0 Z " fill="#4C4B4B" transform="translate(55,220)"/>
<path d="M0 0 C0 7.92 0 15.84 0 24 C0.66 24 1.32 24 2 24 C2.5625 25.9375 2.5625 25.9375 3 28 C2 29 2 29 -0.9375 29.25 C-1.948125 29.1675 -2.95875 29.085 -4 29 C-6.29755922 25.55366118 -6.23643976 24.28931609 -6.1953125 20.23828125 C-6.18886719 19.12001953 -6.18242188 18.00175781 -6.17578125 16.84960938 C-6.15902344 15.68236328 -6.14226562 14.51511719 -6.125 13.3125 C-6.11597656 12.13365234 -6.10695313 10.95480469 -6.09765625 9.74023438 C-6.07406423 6.82661974 -6.0411454 3.91341108 -6 1 C-3 0 -3 0 0 0 Z " fill="#4C4B4B" transform="translate(92,216)"/>
<path d="M0 0 C0.66 0.66 1.32 1.32 2 2 C1.89064634 8.34251247 0.1588187 13.12861111 -4 18 C-4.66 18 -5.32 18 -6 18 C-5.09276387 13.31261335 -4.0452733 8.65806256 -3 4 C-8.19298384 4.39871224 -10.91819912 7.10730332 -14.625 10.4375 C-20.79166667 15.86111111 -20.79166667 15.86111111 -24 18 C-24.41666667 20.5 -24.41666667 20.5 -24 23 C-22.04783565 24.95216435 -20.46800047 25.84826645 -18 27 C-20.25 27.3125 -20.25 27.3125 -23 27 C-25.375 24.8125 -25.375 24.8125 -27 22 C-27.12403867 17.28653068 -24.11250021 13.34529108 -21 10 C-18.1875 8.5625 -18.1875 8.5625 -16 8 C-16 7.34 -16 6.68 -16 6 C-11.2584201 2.38290545 -6.16403069 -1.23280614 0 0 Z " fill="#B24A85" transform="translate(180,87)"/>
<path d="M0 0 C0.99 0 1.98 0 3 0 C4.19444611 3.58333832 3.52527994 5.32373832 2.140625 8.75390625 C0.00607699 12.95721142 -2.92206553 16.45437117 -6 20 C-6.61746094 20.71285156 -7.23492187 21.42570312 -7.87109375 22.16015625 C-11.29371762 25.86247841 -11.29371762 25.86247841 -13 27 C-15.20703125 26.6796875 -15.20703125 26.6796875 -17 26 C-16.195625 25.54625 -15.39125 25.0925 -14.5625 24.625 C-8.69519787 20.74613916 -3.87235097 14.80852645 0 9 C0.39013716 7.0103005 0.73202649 5.00980131 1 3 C0.31035156 3.49371094 -0.37929687 3.98742187 -1.08984375 4.49609375 C-2.02957031 5.13675781 -2.96929687 5.77742187 -3.9375 6.4375 C-4.85402344 7.07558594 -5.77054688 7.71367187 -6.71484375 8.37109375 C-9.87744704 9.93923355 -11.01050393 10.13396535 -14.359375 10.21484375 C-20.49706732 10.68667684 -23.43143923 14.72472128 -27.3125 19.125 C-28.67186088 20.6382268 -30.04246868 22.14144947 -31.42578125 23.6328125 C-32.01786377 24.30199707 -32.60994629 24.97118164 -33.2199707 25.66064453 C-35 27 -35 27 -37.22338867 26.71044922 C-38.10281128 26.35877686 -38.10281128 26.35877686 -39 26 C-29.46193949 16.28921808 -29.46193949 16.28921808 -24.9375 12.5 C-22.00369857 10.33347554 -22.00369857 10.33347554 -21 8 C-20.38253906 8.06960937 -19.76507813 8.13921875 -19.12890625 8.2109375 C-11.74490567 8.68297407 -7.62804273 6.68194934 -2 2 C-1.34 1.34 -0.68 0.68 0 0 Z " fill="#FDCC49" transform="translate(181,124)"/>
<path d="M0 0 C0.99 0.33 1.98 0.66 3 1 C-4.92955754 7.91904421 -12.9386418 14.62100229 -21.35546875 20.94140625 C-23.93599531 22.84191493 -23.93599531 22.84191493 -25.6640625 24.765625 C-27 26 -27 26 -30.1875 26.1875 C-31.5796875 26.0946875 -31.5796875 26.0946875 -33 26 C-31.4114658 21.71095765 -28.56872632 19.67654474 -25 17 C-24.34 17 -23.68 17 -23 17 C-23 16.34 -23 15.68 -23 15 C-22.40832031 14.84144531 -21.81664062 14.68289062 -21.20703125 14.51953125 C-15.83356026 12.93291094 -12.81172687 11.27375437 -9 7 C-8.34 7 -7.68 7 -7 7 C-7 6.34 -7 5.68 -7 5 C-5.57421875 3.67578125 -5.57421875 3.67578125 -3.6875 2.3125 C-3.07261719 1.85488281 -2.45773438 1.39726563 -1.82421875 0.92578125 C-1.22222656 0.62027344 -0.62023437 0.31476563 0 0 Z " fill="#FDC131" transform="translate(157,125)"/>
<path d="M0 0 C-0.875 4.75 -0.875 4.75 -2 7 C-0.02 5.68 1.96 4.36 4 3 C4.66 3.33 5.32 3.66 6 4 C2.85714286 12.57142857 2.85714286 12.57142857 1 16 C0.34 16 -0.32 16 -1 16 C-0.34 13.69 0.32 11.38 1 9 C-1.31 8.67 -3.62 8.34 -6 8 C-6 7.34 -6 6.68 -6 6 C-5.01 5.34 -4.02 4.68 -3 4 C-5.77612564 5.17451469 -7.8650269 6.66968014 -10.125 8.625 C-13 11 -13 11 -15 11 C-15.33 11.99 -15.66 12.98 -16 14 C-16.66 14 -17.32 14 -18 14 C-18 16.64 -18 19.28 -18 22 C-16.02 22.33 -14.04 22.66 -12 23 C-12.33 23.66 -12.66 24.32 -13 25 C-15.98828314 24.67694236 -17.61321245 24.34810879 -19.875 22.3125 C-21.44400529 19.08732247 -20.95499124 17.42947966 -20 14 C-17.78515625 11.48046875 -17.78515625 11.48046875 -15.0625 9.1875 C-14.16660156 8.41792969 -13.27070313 7.64835937 -12.34765625 6.85546875 C-10 5 -10 5 -8 4 C-7.34 3.01 -6.68 2.02 -6 1 C-3 0 -3 0 0 0 Z " fill="#B34F81" transform="translate(183,108)"/>
<path d="M0 0 C1.32 0.33 2.64 0.66 4 1 C3.67 3.31 3.34 5.62 3 8 C2.34 8 1.68 8 1 8 C0.95101562 8.85722656 0.90203125 9.71445313 0.8515625 10.59765625 C0.45465756 16.66756456 0.00791601 22.24397411 -2 28 C-3.32 27.67 -4.64 27.34 -6 27 C-5.32106473 21.65338472 -4.2614142 16.48761115 -3 11.25 C-2.82210937 10.49589844 -2.64421875 9.74179688 -2.4609375 8.96484375 C-1.73902154 5.93171924 -0.98644859 2.95934576 0 0 Z " fill="#F597D0" transform="translate(195,69)"/>
<path d="M0 0 C1.0625 1.875 1.0625 1.875 2 4 C1.67 4.66 1.34 5.32 1 6 C0.154375 6.020625 -0.69125 6.04125 -1.5625 6.0625 C-5.4409974 7.12027202 -6.02175827 7.87446217 -8.5 10.875 C-12.06452328 15.15795433 -15.91578816 18.65695821 -20.25 22.125 C-21.15395508 22.87112549 -21.15395508 22.87112549 -22.07617188 23.63232422 C-23.828125 25.0078125 -23.828125 25.0078125 -27 27 C-29.19824219 26.62451172 -29.19824219 26.62451172 -31 26 C-25.64389481 21.06880503 -20.24267589 16.31635023 -14.44921875 11.90625 C-9.52380062 8.07275072 -4.77632856 4.01664179 0 0 Z " fill="#F3A321" transform="translate(161,124)"/>
<path d="M0 0 C2.0625 0.4375 2.0625 0.4375 4 1 C4.5810771 4.16364201 4.75130964 6.85544574 4 10 C1.37312908 12.92935908 -1.57409289 15.07679222 -5 17 C-5.66 17 -6.32 17 -7 17 C-6.34 14.69 -5.68 12.38 -5 10 C-5.66 9.67 -6.32 9.34 -7 9 C-6.34 8.67 -5.68 8.34 -5 8 C-3.91852299 6.38240139 -3.91852299 6.38240139 -2.9375 4.5 C-1.08071749 1.08071749 -1.08071749 1.08071749 0 0 Z " fill="#DE74B4" transform="translate(188,98)"/>
<path d="M0 0 C-0.66 1.32 -1.32 2.64 -2 4 C-2.66 4 -3.32 4 -4 4 C-4.33 4.99 -4.66 5.98 -5 7 C-6.70703125 8.68359375 -6.70703125 8.68359375 -8.8125 10.4375 C-11.11265868 12.37967334 -13.27115592 14.2782916 -15.375 16.4375 C-17 18 -17 18 -19 18 C-19.7109375 16.2421875 -19.7109375 16.2421875 -20 14 C-16.00474348 8.22907391 -7.30493286 0 0 0 Z " fill="#D775B2" transform="translate(177,92)"/>
<path d="M0 0 C0.33 0.33 0.66 0.66 1 1 C0.94921875 2.99609375 0.94921875 2.99609375 0.6875 5.4375 C0.56955078 6.64212891 0.56955078 6.64212891 0.44921875 7.87109375 C0 10 0 10 -2 12 C-1.67 8.37 -1.34 4.74 -1 1 C-9.80584245 3.27247547 -17.14872112 7.81519432 -22.6875 15.1875 C-24.19103374 18.40935802 -24.19240436 19.69795715 -23 23 C-22.67 23.66 -22.34 24.32 -22 25 C-23.875 24.4375 -23.875 24.4375 -26 23 C-27.25 19.375 -27.25 19.375 -28 16 C-8.52505967 -1.81384248 -8.52505967 -1.81384248 0 0 Z " fill="#B04781" transform="translate(160,82)"/>
<path d="M0 0 C0.66 0 1.32 0 2 0 C1.73445313 1.03898437 1.46890625 2.07796875 1.1953125 3.1484375 C-0.7298692 10.73270717 -2.59299939 18.29852295 -4 26 C-4.33 26 -4.66 26 -5 26 C-5.33 23.69 -5.66 21.38 -6 19 C-6.99 19 -7.98 19 -9 19 C-10.4694809 20.76732099 -10.4694809 20.76732099 -11.6875 23 C-12.12449219 23.7425 -12.56148437 24.485 -13.01171875 25.25 C-13.33785156 25.8275 -13.66398438 26.405 -14 27 C-14.61328125 25.2109375 -14.61328125 25.2109375 -15 23 C-14.06005621 21.24975983 -13.11054198 19.50170739 -12.05859375 17.81640625 C-10.61311676 15.33615975 -9.80345875 12.74515074 -9 10 C-8.67 10 -8.34 10 -8 10 C-7.67 11.98 -7.34 13.96 -7 16 C-6.01 16.33 -5.02 16.66 -4 17 C-3.8453125 15.576875 -3.8453125 15.576875 -3.6875 14.125 C-3.0089081 9.26508446 -1.4914524 4.66196126 0 0 Z " fill="#964672" transform="translate(197,80)"/>
<path d="M0 0 C0.99 0 1.98 0 3 0 C2.88140625 0.90363281 2.7628125 1.80726562 2.640625 2.73828125 C2.51171875 3.91777344 2.3828125 5.09726562 2.25 6.3125 C2.11078125 7.48425781 1.9715625 8.65601563 1.828125 9.86328125 C1.88484375 10.89839844 1.9415625 11.93351562 2 13 C3.89763886 14.72023651 3.89763886 14.72023651 6 16 C7.15773842 24.53832085 4.2472292 32.82369734 2 41 C1.67 41 1.34 41 1 41 C0.76047837 35.36375658 1.61720415 30.51426608 3 25.0625 C3.19078125 24.28326172 3.3815625 23.50402344 3.578125 22.70117188 C4.0449138 20.79900752 4.52145136 18.89923991 5 17 C4.1028125 16.566875 4.1028125 16.566875 3.1875 16.125 C1 15 1 15 -2 13 C-1.48041715 8.62065881 -0.94324258 4.31196609 0 0 Z " fill="#A75E8A" transform="translate(188,51)"/>
<path d="M0 0 C0.66 0.33 1.32 0.66 2 1 C1.34 1.66 0.68 2.32 0 3 C0 2.01 0 1.02 0 0 Z M-1 2 C-1 5 -1 5 -2.46875 6.578125 C-3.1390625 7.12984375 -3.809375 7.6815625 -4.5 8.25 C-5.5828125 9.15685547 -5.5828125 9.15685547 -6.6875 10.08203125 C-7.450625 10.71496094 -8.21375 11.34789063 -9 12 C-10.5037703 13.30817856 -12.00397861 14.62046688 -13.5 15.9375 C-14.66666667 16.95833333 -15.83333333 17.97916667 -17 19 C-17.66 18.67 -18.32 18.34 -19 18 C-17.00887692 13.58321877 -14.09116558 10.97400484 -10.5625 7.75 C-9.97662109 7.19570312 -9.39074219 6.64140625 -8.78710938 6.0703125 C-4.37092057 2 -4.37092057 2 -1 2 Z " fill="#D876B2" transform="translate(156,85)"/>
<path d="M0 0 C0.33 0 0.66 0 1 0 C1 6.6 1 13.2 1 20 C-0.98 20.33 -2.96 20.66 -5 21 C-5.66 23.31 -6.32 25.62 -7 28 C-7.33 28 -7.66 28 -8 28 C-7.9129995 26.37399059 -7.8048219 24.74910322 -7.6875 23.125 C-7.62949219 22.22007813 -7.57148438 21.31515625 -7.51171875 20.3828125 C-7 18 -7 18 -4 16 C-3.1374405 13.2709656 -2.43008056 10.65771705 -1.8125 7.875 C-1.63525391 7.12089844 -1.45800781 6.36679687 -1.27539062 5.58984375 C-0.83962818 3.72902033 -0.41841214 1.86480133 0 0 Z " fill="#C45A9C" transform="translate(207,51)"/>
<path d="M0 0 C-21.53736655 17 -21.53736655 17 -23 17 C-23.3125 14.6875 -23.3125 14.6875 -23 12 C-21 10.5 -21 10.5 -18 9 C-16.59451722 8.18304634 -15.19909043 7.34862365 -13.8125 6.5 C-13.13832031 6.0978125 -12.46414062 5.695625 -11.76953125 5.28125 C-9.71524183 3.95053688 -9.71524183 3.95053688 -8 1 C-4.65086245 -0.71750644 -3.65376797 -1.21792266 0 0 Z " fill="#FEC637" transform="translate(131,124)"/>
<path d="M0 0 C0.99 0 1.98 0 3 0 C4.19444611 3.58333832 3.52527994 5.32373832 2.140625 8.75390625 C0.00607699 12.95721142 -2.92206553 16.45437117 -6 20 C-6.61746094 20.71285156 -7.23492187 21.42570312 -7.87109375 22.16015625 C-11.29371762 25.86247841 -11.29371762 25.86247841 -13 27 C-15.20703125 26.6796875 -15.20703125 26.6796875 -17 26 C-16.195625 25.54625 -15.39125 25.0925 -14.5625 24.625 C-8.69519787 20.74613916 -3.87235097 14.80852645 0 9 C0.39013716 7.0103005 0.73202649 5.00980131 1 3 C0.01 2.67 -0.98 2.34 -2 2 C-1.34 1.34 -0.68 0.68 0 0 Z " fill="#F4BC36" transform="translate(181,124)"/>
<path d="M0 0 C2.31 0 4.62 0 7 0 C8.19307194 5.13938681 8.48934063 7.91219077 5.6875 12.5 C4.32421875 14.53125 4.32421875 14.53125 3 16 C2.34 16 1.68 16 1 16 C1.90723613 11.31261335 2.9547267 6.65806256 4 2 C2.35 2 0.7 2 -1 2 C-0.67 1.34 -0.34 0.68 0 0 Z " fill="#BE5891" transform="translate(173,89)"/>
<path d="M0 0 C1.32 0 2.64 0 4 0 C3.855625 0.67546875 3.71125 1.3509375 3.5625 2.046875 C3.376875 2.93890625 3.19125 3.8309375 3 4.75 C2.814375 5.63171875 2.62875 6.5134375 2.4375 7.421875 C1.88846325 10.22143965 1.88846325 10.22143965 2 14 C2.99 14.66 3.98 15.32 5 16 C0.25 15.25 0.25 15.25 -2 13 C-2.01171875 10.9765625 -2.01171875 10.9765625 -1.6875 8.625 C-1.58824219 7.85414062 -1.48898438 7.08328125 -1.38671875 6.2890625 C-1.02612969 4.15466662 -0.55839834 2.09041429 0 0 Z " fill="#ED84C5" transform="translate(191,51)"/>
<path d="M0 0 C0.66 0.33 1.32 0.66 2 1 C-0.07624438 2.82121437 -2.16024802 4.6319006 -4.25 6.4375 C-4.83652344 6.95376953 -5.42304688 7.47003906 -6.02734375 8.00195312 C-6.88779297 8.74155273 -6.88779297 8.74155273 -7.765625 9.49609375 C-8.28930664 9.95169678 -8.81298828 10.4072998 -9.35253906 10.87670898 C-11.21015148 12.14328793 -12.80540019 12.58068958 -15 13 C-13.4114658 8.71095765 -10.56872632 6.67654474 -7 4 C-6.34 4 -5.68 4 -5 4 C-5 3.34 -5 2.68 -5 2 C-2.625 0.9375 -2.625 0.9375 0 0 Z " fill="#FFCD41" transform="translate(139,138)"/>
<path d="M0 0 C0.66 0 1.32 0 2 0 C1.01 5.61 0.02 11.22 -1 17 C-2.65 17 -4.3 17 -6 17 C-5.34 16.67 -4.68 16.34 -4 16 C-3.64428808 14.10761841 -3.64428808 14.10761841 -3.5625 11.875 C-3.17174466 7.3523687 -1.98792959 4.06229091 0 0 Z " fill="#EF85C5" transform="translate(202,51)"/>
<path d="M0 0 C0 0.66 0 1.32 0 2 C-1.64453125 3.62109375 -1.64453125 3.62109375 -3.8125 5.4375 C-6.81186465 7.95599885 -6.81186465 7.95599885 -9.57421875 10.72265625 C-11 12 -11 12 -14 12 C-12.53823872 8.65452573 -10.67661689 6.3497606 -8.125 3.75 C-7.44695312 3.04359375 -6.76890625 2.3371875 -6.0703125 1.609375 C-4 0 -4 0 0 0 Z " fill="#D876B2" transform="translate(179,117)"/>
<path d="M0 0 C0.33 0 0.66 0 1 0 C1 2.64 1 5.28 1 8 C1.66 8 2.32 8 3 8 C2.34 11.3 1.68 14.6 1 18 C-0.32 17.67 -1.64 17.34 -3 17 C-2.25339288 11.27601207 -1.17122859 5.65146223 0 0 Z " fill="#E68AC3" transform="translate(192,79)"/>
<path d="M0 0 C0.969375 0.165 1.93875 0.33 2.9375 0.5 C2.9375 0.83 2.9375 1.16 2.9375 1.5 C1.885625 1.726875 0.83375 1.95375 -0.25 2.1875 C-4.28437716 3.34364416 -6.22902331 5.38317565 -9.0625 8.5 C-10.25084545 9.64609316 -11.46009002 10.77084458 -12.6875 11.875 C-13.25726563 12.39835937 -13.82703125 12.92171875 -14.4140625 13.4609375 C-14.95804688 13.80382812 -15.50203125 14.14671875 -16.0625 14.5 C-17.0525 14.17 -18.0425 13.84 -19.0625 13.5 C-18.0625 11.5 -18.0625 11.5 -15.7734375 10.13671875 C-12.98547213 8.4534947 -10.9939574 6.598141 -8.6875 4.3125 C-3.93722309 -0.03993127 -3.93722309 -0.03993127 0 0 Z " fill="#FECF46" transform="translate(155.0625,113.5)"/>
<path d="M0 0 C3.3 0.33 6.6 0.66 10 1 C8.68 1.33 7.36 1.66 6 2 C6 5.63 6 9.26 6 13 C5.01 13 4.02 13 3 13 C2.67 14.98 2.34 16.96 2 19 C0.84058962 15.52176885 1.29179116 13.54104422 2 10 C2.66 10 3.32 10 4 10 C4 7.69 4 5.38 4 3 C3.01 2.67 2.02 2.34 1 2 C0.67 2.99 0.34 3.98 0 5 C0 3.35 0 1.7 0 0 Z " fill="#C0689E" transform="translate(194,67)"/>
<path d="M0 0 C0 2.31 0 4.62 0 7 C-0.99 5.68 -1.98 4.36 -3 3 C-3.93972656 3.45052734 -3.93972656 3.45052734 -4.8984375 3.91015625 C-5.71570313 4.29042969 -6.53296875 4.67070313 -7.375 5.0625 C-8.18710938 5.44535156 -8.99921875 5.82820313 -9.8359375 6.22265625 C-10.55007812 6.47917969 -11.26421875 6.73570313 -12 7 C-12.66 6.67 -13.32 6.34 -14 6 C-12.61447798 4.98576166 -11.21605712 3.98912998 -9.8125 3 C-9.03519531 2.443125 -8.25789062 1.88625 -7.45703125 1.3125 C-4.71663363 -0.151369 -3.05899163 -0.26080213 0 0 Z " fill="#C75A9C" transform="translate(159,83)"/>
<path d="M0 0 C0.99 0.33 1.98 0.66 3 1 C1.02 1.99 1.02 1.99 -1 3 C-1 3.66 -1 4.32 -1 5 C-2.64453125 6.40234375 -2.64453125 6.40234375 -4.8125 7.9375 C-8.6344148 10.65948304 -11.38453732 13.07680598 -14 17 C-13.76571814 13.04577933 -13.38419547 11.39221239 -10.56640625 8.515625 C-9.57511719 7.76796875 -8.58382812 7.0203125 -7.5625 6.25 C-6.07943359 5.11304687 -6.07943359 5.11304687 -4.56640625 3.953125 C-3.71949219 3.30859375 -2.87257812 2.6640625 -2 2 C-1.34 1.34 -0.68 0.68 0 0 Z " fill="#CA60A2" transform="translate(178,111)"/>
<path d="M0 0 C0.66 0.33 1.32 0.66 2 1 C1.01 2.485 1.01 2.485 0 4 C-0.66 4 -1.32 4 -2 4 C-2 6.64 -2 9.28 -2 12 C0.97 12.495 0.97 12.495 4 13 C3.67 13.66 3.34 14.32 3 15 C0.01171686 14.67694236 -1.61321245 14.34810879 -3.875 12.3125 C-5.44278618 9.0898284 -5.0585672 7.38741505 -4 4 C-1.9375 1.625 -1.9375 1.625 0 0 Z " fill="#C15684" transform="translate(167,118)"/>
<path d="M0 0 C0.99 0.33 1.98 0.66 3 1 C1.09576486 2.70363175 -0.82117747 4.38711578 -2.75 6.0625 C-3.28882813 6.54783203 -3.82765625 7.03316406 -4.3828125 7.53320312 C-5.984375 8.91015625 -5.984375 8.91015625 -9 11 C-11.390625 10.80859375 -11.390625 10.80859375 -13 10 C-9.25 7 -9.25 7 -7 7 C-7 6.34 -7 5.68 -7 5 C-5.57421875 3.67578125 -5.57421875 3.67578125 -3.6875 2.3125 C-3.07261719 1.85488281 -2.45773438 1.39726563 -1.82421875 0.92578125 C-0.92123047 0.46751953 -0.92123047 0.46751953 0 0 Z " fill="#FECB40" transform="translate(157,125)"/>
<path d="M0 0 C-0.25561323 2.3431213 -0.59270772 4.67843403 -1 7 C-1.99 7.495 -1.99 7.495 -3 8 C-3 6.35 -3 4.7 -3 3 C-4.32 3.99 -5.64 4.98 -7 6 C-7.66 5.67 -8.32 5.34 -9 5 C-4.5 0 -4.5 0 0 0 Z " fill="#F1B337" transform="translate(177,105)"/>
<path d="M0 0 C0.99 0 1.98 0 3 0 C2.40380045 4.86896303 1.43023178 9.32790951 0 14 C-0.66 13.67 -1.32 13.34 -2 13 C-1.48041715 8.62065881 -0.94324258 4.31196609 0 0 Z " fill="#935779" transform="translate(188,51)"/>
<path d="M0 0 C0.33 0.66 0.66 1.32 1 2 C0.690625 2.7425 0.38125 3.485 0.0625 4.25 C-1.13278785 7.34368621 -1.15290981 9.71243908 -1 13 C-2.32 13.33 -3.64 13.66 -5 14 C-4.34 11.69 -3.68 9.38 -3 7 C-3.66 6.67 -4.32 6.34 -5 6 C-4.34 5.67 -3.68 5.34 -3 5 C-1.9590934 3.35857037 -0.95495674 1.69287785 0 0 Z " fill="#CB5C9C" transform="translate(186,101)"/>
<path d="M0 0 C0.33 0.99 0.66 1.98 1 3 C-0.98 3.33 -2.96 3.66 -5 4 C-5.99 7.465 -5.99 7.465 -7 11 C-7.33 11 -7.66 11 -8 11 C-7.67 7.7 -7.34 4.4 -7 1 C-3.535 0.505 -3.535 0.505 0 0 Z " fill="#7D4165" transform="translate(207,68)"/>
<path d="M0 0 C0.66 0.33 1.32 0.66 2 1 C1.43628586 4.26954202 0.50037734 5.82575883 -2 8 C-2.99 7.01 -3.98 6.02 -5 5 C-3.35 3.35 -1.7 1.7 0 0 Z " fill="#E8A22D" transform="translate(155,97)"/>
<path d="M0 0 C0.66 0.33 1.32 0.66 2 1 C-0.87164566 3.70272533 -2.30991841 4.94791837 -6.3125 5.25 C-7.199375 5.1675 -8.08625 5.085 -9 5 C-9 4.01 -9 3.02 -9 2 C-6.94921875 1.77213542 -4.8984375 1.54427083 -2.84765625 1.31640625 C-0.98859771 1.18113386 -0.98859771 1.18113386 0 0 Z " fill="#C86295" transform="translate(146,103)"/>
<path d="M0 0 C0.33 0 0.66 0 1 0 C0.95875 0.9075 0.9175 1.815 0.875 2.75 C0.99720095 5.92722465 1.24397131 7.41216824 3 10 C3.99 10.66 4.98 11.32 6 12 C1.25 11.25 1.25 11.25 -1 9 C-0.9765625 6.8359375 -0.9765625 6.8359375 -0.625 4.375 C-0.51414063 3.55773438 -0.40328125 2.74046875 -0.2890625 1.8984375 C-0.19367188 1.27195313 -0.09828125 0.64546875 0 0 Z " fill="#E17FBB" transform="translate(190,55)"/>
<path d="M0 0 C0.66 0.33 1.32 0.66 2 1 C1.01 3.64 0.02 6.28 -1 9 C-1.33 8.01 -1.66 7.02 -2 6 C-2.99 5.34 -3.98 4.68 -5 4 C-3.35 2.68 -1.7 1.36 0 0 Z " fill="#9F437A" transform="translate(187,111)"/>
<path d="M0 0 C1.32 0.33 2.64 0.66 4 1 C4.22893297 4.03336186 4.36475845 6.97465051 4 10 C2 12.0625 2 12.0625 0 13 C0.33 11.35 0.66 9.7 1 8 C1.66 8 2.32 8 3 8 C2.55296014 3.52116304 2.55296014 3.52116304 0 0 Z " fill="#C75898" transform="translate(188,98)"/>
<path d="M0 0 C0.33 0 0.66 0 1 0 C0.75 3.375 0.75 3.375 0 7 C-2.0625 8.4375 -2.0625 8.4375 -4 9 C-3.35499066 5.51694958 -1.95865224 2.93797836 0 0 Z " fill="#C05D97" transform="translate(157,90)"/>
<path d="M0 0 C0.33 0 0.66 0 1 0 C1 2.97 1 5.94 1 9 C-0.32 9.33 -1.64 9.66 -3 10 C-2.01 6.7 -1.02 3.4 0 0 Z " fill="#B34787" transform="translate(207,59)"/>
<path d="M0 0 C1.10844919 3.32534757 0.84454356 5.62182575 0 9 C-1.65 9 -3.3 9 -5 9 C-4.34 8.67 -3.68 8.34 -3 8 C-1.82513503 5.37383124 -0.90985138 2.72955415 0 0 Z " fill="#E67FBE" transform="translate(201,59)"/>
<path d="M0 0 C1.0625 1.875 1.0625 1.875 2 4 C1.67 4.66 1.34 5.32 1 6 C-0.65 6 -2.3 6 -4 6 C-2.68 4.02 -1.36 2.04 0 0 Z " fill="#F1A225" transform="translate(161,124)"/>
<path d="M0 0 C-2.1875 1.625 -2.1875 1.625 -5 3 C-7.8125 2.1875 -7.8125 2.1875 -10 1 C-2.8 -1.4 -2.8 -1.4 0 0 Z " fill="#C9639C" transform="translate(167,111)"/>
<path d="M0 0 C-0.75 2.9375 -0.75 2.9375 -2 6 C-4.125 6.875 -4.125 6.875 -6 7 C-6 6.34 -6 5.68 -6 5 C-5.01 4.34 -4.02 3.68 -3 3 C-3.33 2.34 -3.66 1.68 -4 1 C-2 0 -2 0 0 0 Z " fill="#BE498C" transform="translate(183,109)"/>
<path d="" fill="#756B6E" transform="translate(0,0)"/>
<path d="" fill="#756B6E" transform="translate(0,0)"/>
</svg>
