<?xml version="1.0" encoding="UTF-8"?>
<svg version="1.1" xmlns="http://www.w3.org/2000/svg" width="150" height="150">
<path d="M0 0 C9.24 0 18.48 0 28 0 C28 9.9 28 19.8 28 30 C25.03 30 22.06 30 19 30 C19 31.98 19 33.96 19 36 C18.34 36 17.68 36 17 36 C16.92652344 37.01320313 16.92652344 37.01320313 16.8515625 38.046875 C16.77679688 38.93890625 16.70203125 39.8309375 16.625 40.75 C16.52058594 42.07257812 16.52058594 42.07257812 16.4140625 43.421875 C15.99008525 46.06173334 15.18812347 47.62802688 14 50 C13.28849532 52.64312871 12.62161879 55.27376636 12 57.9375 C10.24576624 65.4135509 10.24576624 65.4135509 8.8671875 68.703125 C7.88396964 71.30732364 7.92001328 73.0540917 8.125 75.8125 C8.2483971 80.96432884 7.0039993 84.80097908 4 89 C3.01 89.495 3.01 89.495 2 90 C1.15936627 92.47502865 1.15936627 92.47502865 0.5 95.375 C-0.34797787 98.86830012 -0.98168815 100.97253222 -3 104 C-3.66 104 -4.32 104 -5 104 C-5.77192048 107.66662228 -5.94742154 110.8571069 -5.6875 114.5625 C-5.55107309 121.4363173 -8.86741964 127.05182658 -12 133 C-12.66 133 -13.32 133 -14 133 C-14 133.66 -14 134.32 -14 135 C-14.66 135 -15.32 135 -16 135 C-16.0825 135.556875 -16.165 136.11375 -16.25 136.6875 C-17.23895541 139.73677919 -18.84757466 141.65189963 -21 144 C-21.66 144 -22.32 144 -23 144 C-23.28875 144.61875 -23.5775 145.2375 -23.875 145.875 C-25 148 -25 148 -27 150 C-30.01330006 150.18838354 -32.93405043 150.25164443 -35.94775391 150.22705078 C-36.87463516 150.22734283 -37.80151642 150.22763489 -38.75648499 150.22793579 C-41.82993834 150.22653889 -44.90315133 150.21096075 -47.9765625 150.1953125 C-50.10362618 150.19158365 -52.23069156 150.18873608 -54.35775757 150.18673706 C-59.96379312 150.17909052 -65.5697255 150.15943327 -71.17572021 150.1373291 C-76.89317428 150.11689264 -82.61064496 150.10774006 -88.328125 150.09765625 C-99.55212873 150.07618834 -110.7760558 150.0420401 -122 150 C-122.1243179 143.2374561 -122.21432213 136.47534619 -122.2746582 129.71191406 C-122.29980906 127.4110164 -122.33393396 125.11019868 -122.37719727 122.80957031 C-122.43782147 119.50305467 -122.46620441 116.19759479 -122.48828125 112.890625 C-122.51408768 111.86132874 -122.5398941 110.83203247 -122.56648254 109.77154541 C-122.56929994 102.60453924 -122.56929994 102.60453924 -119.63745117 99.49121094 C-118.76709229 98.99911133 -117.8967334 98.50701172 -117 98 C-115.6696875 96.63875 -115.6696875 96.63875 -114.3125 95.25 C-112 93 -112 93 -110 93 C-109.67 92.01 -109.34 91.02 -109 90 C-106.9375 89.3125 -106.9375 89.3125 -105 89 C-105 88.34 -105 87.68 -105 87 C-100.52941176 83 -100.52941176 83 -98 83 C-98 82.34 -98 81.68 -98 81 C-96.6875 79.375 -96.6875 79.375 -95 78 C-94.01 78 -93.02 78 -92 78 C-91.505 76.515 -91.505 76.515 -91 75 C-90.34 75 -89.68 75 -89 75 C-89 74.34 -89 73.68 -89 73 C-88.401875 72.731875 -87.80375 72.46375 -87.1875 72.1875 C-84.95672092 71.1106021 -84.95672092 71.1106021 -83.375 69.375 C-82.92125 68.92125 -82.4675 68.4675 -82 68 C-81.34 68 -80.68 68 -80 68 C-80 67.34 -80 66.68 -80 66 C-78.35546875 64.59765625 -78.35546875 64.59765625 -76.1875 63.0625 C-73.55457436 61.18731981 -71.27797787 59.28418489 -69 57 C-67.453125 55.9790625 -67.453125 55.9790625 -65.875 54.9375 C-62.94935958 53.30854547 -62.94935958 53.30854547 -62 51 C-59.48828125 49.67578125 -59.48828125 49.67578125 -56.3125 48.3125 C-55.27738281 47.85488281 -54.24226563 47.39726563 -53.17578125 46.92578125 C-49.6064473 45.88527431 -47.54986505 45.9654679 -44 47 C-41.9375 49.4375 -41.9375 49.4375 -41 53 C-41.63258253 56.48190727 -42.74917634 59.69668842 -44 63 C-44.33 63.99 -44.66 64.98 -45 66 C-45.66 66 -46.32 66 -47 66 C-47.495 67.485 -47.495 67.485 -48 69 C-48.66 69 -49.32 69 -50 69 C-50 69.99 -50 70.98 -50 72 C-45.25452058 72 -43.71326262 70.8055762 -40 68 C-39.67 67.34 -39.34 66.68 -39 66 C-38.01 65.67 -37.02 65.34 -36 65 C-35.38125 64.34 -34.7625 63.68 -34.125 63 C-31.71248065 60.72939356 -30.23922825 60.35991425 -27 60 C-27 59.34 -27 58.68 -27 58 C-22.37802694 55.78145293 -19.23175837 54.61718841 -14 55 C-14 55.66 -14 56.32 -14 57 C-12.515 57.495 -12.515 57.495 -11 58 C-10.97287934 59.43739513 -10.95354933 60.87493863 -10.9375 62.3125 C-10.92589844 63.11300781 -10.91429688 63.91351563 -10.90234375 64.73828125 C-11 67 -11 67 -12 70 C-12.66 70 -13.32 70 -14 70 C-14 71.32 -14 72.64 -14 74 C-14.66 74 -15.32 74 -16 74 C-18.25068815 78.36898288 -17.79341493 81.23951043 -17 86 C-17.495 87.485 -17.495 87.485 -18 89 C-14.98434837 87.99425024 -14.98434837 87.99425024 -12 86 C-10.72632589 82.66783981 -10.72632589 82.66783981 -10 79 C-8.35811267 75.3592933 -6.65739583 72.00401267 -4 69 C-3.34 69 -2.68 69 -2 69 C-1.88527344 67.72898437 -1.77054687 66.45796875 -1.65234375 65.1484375 C-1.0628879 59.85058654 0.13831736 54.78730577 1.4375 49.625 C3.19846647 42.45071551 4.85403136 35.30341207 6 28 C5.05125 27.401875 4.1025 26.80375 3.125 26.1875 C-0 24 -0 24 -2 21 C-2.265625 18.3984375 -2.265625 18.3984375 -2.25 15.375 C-2.25773437 13.90160156 -2.25773437 13.90160156 -2.265625 12.3984375 C-1.93825011 8.20996469 -0.9113785 4.10120324 0 0 Z " fill="#DD950A" transform="translate(122,0)"/>
<path d="M0 0 C0.99 0.33 1.98 0.66 3 1 C1.7934375 1.9590625 1.7934375 1.9590625 0.5625 2.9375 C-2.75412763 6.90127449 -2.87952582 9.97294083 -3 15 C-2.34 15 -1.68 15 -1 15 C-0.505 15.99 -0.505 15.99 0 17 C0.99 17.33 1.98 17.66 3 18 C3 18.66 3 19.32 3 20 C3.59167969 19.86722656 4.18335938 19.73445313 4.79296875 19.59765625 C6.41937245 19.23416962 8.04703724 18.87628942 9.67578125 18.5234375 C11.42142949 18.13029991 13.15307243 17.6741317 14.875 17.1875 C17 17 17 17 18.8125 18.4375 C19.4003125 19.2109375 19.4003125 19.2109375 20 20 C19.34 20.99 18.68 21.98 18 23 C20.97 20.36 23.94 17.72 27 15 C28.35665057 17.71330113 28 19.98001855 28 23 C28.05858941 25.71568967 28.05858941 25.71568967 29 28 C31.47636012 29.37466625 31.47636012 29.37466625 34 30 C31.69556473 37.2678343 29.66097695 42.74337854 24 48 C23.175 49.010625 22.35 50.02125 21.5 51.0625 C19.16203314 53.80961107 16.80204949 55.75836041 14 58 C13.175 59.010625 12.35 60.02125 11.5 61.0625 C9 64 9 64 6.625 65.375 C3.35243607 67.40087291 1.36784312 69.94311604 -1.09765625 72.8671875 C-10.80520461 83.75080435 -10.80520461 83.75080435 -16.91088867 84.22705078 C-18.64689331 84.21134033 -18.64689331 84.21134033 -20.41796875 84.1953125 C-22.29838867 84.18564453 -22.29838867 84.18564453 -24.21679688 84.17578125 C-26.18229492 84.15064453 -26.18229492 84.15064453 -28.1875 84.125 C-29.52277987 84.11496639 -30.85806689 84.1058412 -32.19335938 84.09765625 C-35.46242015 84.07405292 -38.73112028 84.04112594 -42 84 C-42.12673206 77.23750813 -42.21432235 70.47532217 -42.2746582 63.71191406 C-42.29980906 61.4110164 -42.33393396 59.11019868 -42.37719727 56.80957031 C-42.43782147 53.50305467 -42.46620441 50.19759479 -42.48828125 46.890625 C-42.51408768 45.86132874 -42.5398941 44.83203247 -42.56648254 43.77154541 C-42.56929994 36.60453924 -42.56929994 36.60453924 -39.63745117 33.49121094 C-38.76709229 32.99911133 -37.8967334 32.50701172 -37 32 C-36.113125 31.0925 -35.22625 30.185 -34.3125 29.25 C-32 27 -32 27 -30 27 C-29.67 26.01 -29.34 25.02 -29 24 C-26.9375 23.3125 -26.9375 23.3125 -25 23 C-25 22.34 -25 21.68 -25 21 C-20.52941176 17 -20.52941176 17 -18 17 C-18 16.34 -18 15.68 -18 15 C-16.6875 13.375 -16.6875 13.375 -15 12 C-14.01 12 -13.02 12 -12 12 C-11.67 11.01 -11.34 10.02 -11 9 C-10.34 9 -9.68 9 -9 9 C-9 8.34 -9 7.68 -9 7 C-8.401875 6.731875 -7.80375 6.46375 -7.1875 6.1875 C-4.95672092 5.1106021 -4.95672092 5.1106021 -3.375 3.375 C-2.92125 2.92125 -2.4675 2.4675 -2 2 C-1.34 2 -0.68 2 0 2 C0 1.34 0 0.68 0 0 Z M32 37 C32.33 37.66 32.66 38.32 33 39 C32.34 38.67 31.68 38.34 31 38 C31.33 37.67 31.66 37.34 32 37 Z " fill="#FBCA47" transform="translate(42,66)"/>
<path d="M0 0 C9.24 0 18.48 0 28 0 C28 9.9 28 19.8 28 30 C25.03 30 22.06 30 19 30 C19 31.98 19 33.96 19 36 C18.34 36 17.68 36 17 36 C16.95101562 36.67546875 16.90203125 37.3509375 16.8515625 38.046875 C16.77679688 38.93890625 16.70203125 39.8309375 16.625 40.75 C16.52058594 42.07257812 16.52058594 42.07257812 16.4140625 43.421875 C15.99008525 46.06173334 15.18812347 47.62802688 14 50 C13.28849532 52.64312871 12.62161879 55.27376636 12 57.9375 C10.24576624 65.4135509 10.24576624 65.4135509 8.8671875 68.703125 C7.88396964 71.30732364 7.92001328 73.0540917 8.125 75.8125 C8.2483971 80.96432884 7.0039993 84.80097908 4 89 C3.01 89.495 3.01 89.495 2 90 C1.15936627 92.47502865 1.15936627 92.47502865 0.5 95.375 C-0.34797787 98.86830012 -0.98168815 100.97253222 -3 104 C-3.66 104 -4.32 104 -5 104 C-5.495 105.98 -5.495 105.98 -6 108 C-6.639375 108.103125 -7.27875 108.20625 -7.9375 108.3125 C-8.618125 108.539375 -9.29875 108.76625 -10 109 C-10.33 109.99 -10.66 110.98 -11 112 C-11.66 112 -12.32 112 -13 112 C-13.20625 112.556875 -13.4125 113.11375 -13.625 113.6875 C-16.12409863 117.89052951 -19.56321326 120.35803146 -23.9375 122.3125 C-27.50227482 123.11275557 -30.35792411 123.39731737 -34 123 C-36.75329021 121.20437595 -38.52627461 119.94745078 -40 117 C-40.3125 114.125 -40.3125 114.125 -40 111 C-38.0625 108.875 -38.0625 108.875 -36 107 C-35.89558594 106.39027344 -35.79117188 105.78054687 -35.68359375 105.15234375 C-34.66561611 101.94716845 -32.62146398 100.73733919 -30 98.6875 C-29.01 97.90761719 -28.02 97.12773438 -27 96.32421875 C-26.01 95.55722656 -25.02 94.79023437 -24 94 C-23.13375 93.30519531 -22.2675 92.61039062 -21.375 91.89453125 C-15.41086187 87.13695396 -15.41086187 87.13695396 -12 86 C-11.27359045 83.68456957 -10.61568542 81.34730065 -10 79 C-8.35811267 75.3592933 -6.65739583 72.00401267 -4 69 C-3.34 69 -2.68 69 -2 69 C-1.88527344 67.72898437 -1.77054688 66.45796875 -1.65234375 65.1484375 C-1.0628879 59.85058654 0.13831736 54.78730577 1.4375 49.625 C3.19846647 42.45071551 4.85403136 35.30341207 6 28 C5.05125 27.401875 4.1025 26.80375 3.125 26.1875 C0 24 0 24 -2 21 C-2.265625 18.3984375 -2.265625 18.3984375 -2.25 15.375 C-2.25773437 13.90160156 -2.25773437 13.90160156 -2.265625 12.3984375 C-1.93825011 8.20996469 -0.9113785 4.10120324 0 0 Z " fill="#EE95D8" transform="translate(122,0)"/>
<path d="M0 0 C0.99 0.33 1.98 0.66 3 1 C1.7934375 1.9590625 1.7934375 1.9590625 0.5625 2.9375 C-2.75412763 6.90127449 -2.87952582 9.97294083 -3 15 C-2.34 15 -1.68 15 -1 15 C-0.505 15.99 -0.505 15.99 0 17 C0.99 17.33 1.98 17.66 3 18 C3 18.66 3 19.32 3 20 C3.59167969 19.86722656 4.18335938 19.73445313 4.79296875 19.59765625 C6.41937245 19.23416962 8.04703724 18.87628942 9.67578125 18.5234375 C11.42142949 18.13029991 13.15307243 17.6741317 14.875 17.1875 C17 17 17 17 18.8125 18.4375 C19.4003125 19.2109375 19.4003125 19.2109375 20 20 C16.14073136 25.48422385 11.11985008 29.87556351 6.1875 34.375 C5.65979004 34.85759277 5.13208008 35.34018555 4.58837891 35.83740234 C1.09672529 39.02219107 -2.43297411 42.15810853 -6.00390625 45.25390625 C-8.37955778 47.33202021 -10.72082561 49.44618976 -13.0625 51.5625 C-14.70742385 53.04267801 -16.35320648 54.5219024 -18 56 C-18.69996094 56.6290625 -19.39992188 57.258125 -20.12109375 57.90625 C-24.76518278 62 -24.76518278 62 -27 62 C-27.23589844 62.58523437 -27.47179688 63.17046875 -27.71484375 63.7734375 C-29.28150372 66.48771161 -31.03808829 67.78538055 -33.5625 69.625 C-36.80810703 71.86379366 -36.80810703 71.86379366 -39 75 C-39.99 75 -40.98 75 -42 75 C-42.12366591 69.51912668 -42.21436943 64.03906643 -42.2746582 58.55712891 C-42.29979147 56.69272719 -42.33390383 54.8284239 -42.37719727 52.96435547 C-42.43790352 50.28328169 -42.46622058 47.60351098 -42.48828125 44.921875 C-42.51408768 44.08944275 -42.5398941 43.2570105 -42.56648254 42.39935303 C-42.56930076 36.57488964 -42.56930076 36.57488964 -39.63745117 33.61425781 C-38.76709229 33.08155273 -37.8967334 32.54884766 -37 32 C-36.113125 31.0925 -35.22625 30.185 -34.3125 29.25 C-32 27 -32 27 -30 27 C-29.67 26.01 -29.34 25.02 -29 24 C-26.9375 23.3125 -26.9375 23.3125 -25 23 C-25 22.34 -25 21.68 -25 21 C-20.52941176 17 -20.52941176 17 -18 17 C-18 16.34 -18 15.68 -18 15 C-16.6875 13.375 -16.6875 13.375 -15 12 C-14.01 12 -13.02 12 -12 12 C-11.67 11.01 -11.34 10.02 -11 9 C-10.34 9 -9.68 9 -9 9 C-9 8.34 -9 7.68 -9 7 C-8.401875 6.731875 -7.80375 6.46375 -7.1875 6.1875 C-4.95672092 5.1106021 -4.95672092 5.1106021 -3.375 3.375 C-2.92125 2.92125 -2.4675 2.4675 -2 2 C-1.34 2 -0.68 2 0 2 C0 1.34 0 0.68 0 0 Z " fill="#FAC437" transform="translate(42,66)"/>
<path d="M0 0 C2.37514113 2.37514113 2.37175065 3.04748525 2.5 6.3125 C2.41856385 13.26511147 -0.82185242 18.96530311 -4 25 C-4.66 25 -5.32 25 -6 25 C-6 25.66 -6 26.32 -6 27 C-6.66 27 -7.32 27 -8 27 C-8.0825 27.556875 -8.165 28.11375 -8.25 28.6875 C-9.23895541 31.73677919 -10.84757466 33.65189963 -13 36 C-13.66 36 -14.32 36 -15 36 C-15.433125 36.928125 -15.433125 36.928125 -15.875 37.875 C-17 40 -17 40 -19 42 C-21.32852173 42.24050903 -21.32852173 42.24050903 -24.27587891 42.22705078 C-25.3768692 42.22689972 -26.4778595 42.22674866 -27.61221313 42.22659302 C-28.80494843 42.21627045 -29.99768372 42.20594788 -31.2265625 42.1953125 C-32.44451508 42.1924826 -33.66246765 42.18965271 -34.91732788 42.18673706 C-38.81998383 42.17551256 -42.72241303 42.15040372 -46.625 42.125 C-49.26562169 42.11497314 -51.90624697 42.10584678 -54.546875 42.09765625 C-61.0313278 42.07556581 -67.5156477 42.04206592 -74 42 C-72.625 40 -72.625 40 -71 38 C-70.34 38 -69.68 38 -69 38 C-69 37.34 -69 36.68 -69 36 C-67.01310269 34.64721885 -65.01254782 33.31431695 -63 32 C-62.67 31.34 -62.34 30.68 -62 30 C-61.2575 29.7525 -60.515 29.505 -59.75 29.25 C-56.72473828 27.87488103 -55.45156179 26.2476603 -53.4609375 23.6484375 C-51.23245171 21.13394284 -48.54045012 19.36772341 -45.76953125 17.4921875 C-43.78296967 15.81698547 -43.09332447 14.32681874 -42 12 C-40.34997172 10.64613064 -38.6825613 9.31321858 -37 8 C-36.443125 7.2575 -35.88625 6.515 -35.3125 5.75 C-34.879375 5.1725 -34.44625 4.595 -34 4 C-33.34 4 -32.68 4 -32 4 C-31.7525 5.093125 -31.505 6.18625 -31.25 7.3125 C-30.28873034 10.91620813 -30.28873034 10.91620813 -28.3125 12.9375 C-22.72537254 15.50455856 -16.5724792 13.888976 -11 12 C-9.79996657 10.18398635 -9.79996657 10.18398635 -9 8 C-7.03814584 6.28859531 -5.03697617 4.62126675 -3 3 C-1.98319689 2.01709032 -0.97261781 1.02665213 0 0 Z " fill="#FAC947" transform="translate(114,108)"/>
<path d="M0 0 C2.97 0 5.94 0 9 0 C9 9.9 9 19.8 9 30 C6.03 30 3.06 30 0 30 C0 31.98 0 33.96 0 36 C-0.66 36 -1.32 36 -2 36 C-2.04898438 36.67546875 -2.09796875 37.3509375 -2.1484375 38.046875 C-2.22320312 38.93890625 -2.29796875 39.8309375 -2.375 40.75 C-2.47941406 42.07257812 -2.47941406 42.07257812 -2.5859375 43.421875 C-3.00991475 46.06173334 -3.81187653 47.62802688 -5 50 C-5.71150468 52.64312871 -6.37838121 55.27376636 -7 57.9375 C-8.75423376 65.4135509 -8.75423376 65.4135509 -10.1328125 68.703125 C-11.11603036 71.30732364 -11.07998672 73.0540917 -10.875 75.8125 C-10.7516029 80.96432884 -11.9960007 84.80097908 -15 89 C-15.99 89.495 -15.99 89.495 -17 90 C-17.84063373 92.47502865 -17.84063373 92.47502865 -18.5 95.375 C-19.34797787 98.86830012 -19.98168815 100.97253222 -22 104 C-22.66 104 -23.32 104 -24 104 C-24.33 105.32 -24.66 106.64 -25 108 C-25.639375 108.103125 -26.27875 108.20625 -26.9375 108.3125 C-27.618125 108.539375 -28.29875 108.76625 -29 109 C-29.33 109.99 -29.66 110.98 -30 112 C-30.66 112 -31.32 112 -32 112 C-32.20625 112.556875 -32.4125 113.11375 -32.625 113.6875 C-35.15718304 117.94617148 -38.60424374 120.40181875 -43.0625 122.3125 C-45.8371869 122.96189481 -48.16473022 123.16678058 -51 123 C-48.05152019 117.63912761 -44.1668292 114.6577357 -39.33984375 110.96484375 C-36.47147452 108.55617978 -34.93203783 106.16854205 -33 103 C-31.515 102.505 -31.515 102.505 -30 102 C-29.26676204 99.98491642 -29.26676204 99.98491642 -29 98 C-29.66 97.67 -30.32 97.34 -31 97 C-28.94766315 94.7522025 -27.99332739 93.9977758 -25 93 C-23.77030122 89.48809191 -23.77030122 89.48809191 -23 86 C-22.34 86 -21.68 86 -21 86 C-20.01 82.04 -19.02 78.08 -18 74 C-17.34 74 -16.68 74 -16 74 C-16.20625 73.113125 -16.4125 72.22625 -16.625 71.3125 C-17.02550239 67.7747289 -16.56683516 66.13367033 -15 63 C-14.34 63 -13.68 63 -13 63 C-12.86722656 62.30132812 -12.73445313 61.60265625 -12.59765625 60.8828125 C-12.42105469 59.97273438 -12.24445313 59.06265625 -12.0625 58.125 C-11.88847656 57.22007813 -11.71445313 56.31515625 -11.53515625 55.3828125 C-11 53 -11 53 -10 51 C-9.65499516 49.00535018 -9.34844371 47.00396917 -9.0625 45 C-8.21771886 39.28978762 -7.19799075 33.64585 -6 28 C-5.34 28 -4.68 28 -4 28 C-3.81824219 26.98292969 -3.81824219 26.98292969 -3.6328125 25.9453125 C-3.46523437 25.01460937 -3.29765625 24.08390625 -3.125 23.125 C-2.94453125 22.12210938 -2.7640625 21.11921875 -2.578125 20.0859375 C-2.05533421 17.29536506 -1.47273958 14.52521947 -0.875 11.75 C-0.05404922 7.7350376 0.17779247 4.08922681 0 0 Z " fill="#9E6088" transform="translate(141,0)"/>
<path d="M0 0 C0.99 0.33 1.98 0.66 3 1 C1.7934375 1.9590625 1.7934375 1.9590625 0.5625 2.9375 C-2.75412763 6.90127449 -2.87952582 9.97294083 -3 15 C-2.34 15 -1.68 15 -1 15 C1 19.17391304 1 19.17391304 1 22 C-1.94595922 27.04495517 -6.02287743 30.11810988 -11 33 C-13.55267028 34.76602304 -16.07447687 36.57108127 -18.59765625 38.37890625 C-21 40 -21 40 -23.10546875 41.03515625 C-25.16399004 42.08351658 -26.56806025 43.29920208 -28.25 44.875 C-31.84939934 48.05459898 -35.64158955 50.0462298 -40 52 C-40.99 52.495 -40.99 52.495 -42 53 C-42.13517903 50.24835568 -42.23415251 47.50335479 -42.3125 44.75 C-42.35439453 43.97269531 -42.39628906 43.19539063 -42.43945312 42.39453125 C-42.48716739 40.16150369 -42.45970006 38.18713398 -42 36 C-39.6484375 33.625 -39.6484375 33.625 -37 32 C-36.113125 31.0925 -35.22625 30.185 -34.3125 29.25 C-32 27 -32 27 -30 27 C-29.67 26.01 -29.34 25.02 -29 24 C-26.9375 23.3125 -26.9375 23.3125 -25 23 C-25 22.34 -25 21.68 -25 21 C-20.52941176 17 -20.52941176 17 -18 17 C-18 16.34 -18 15.68 -18 15 C-16.6875 13.375 -16.6875 13.375 -15 12 C-14.01 12 -13.02 12 -12 12 C-11.67 11.01 -11.34 10.02 -11 9 C-10.34 9 -9.68 9 -9 9 C-9 8.34 -9 7.68 -9 7 C-8.401875 6.731875 -7.80375 6.46375 -7.1875 6.1875 C-4.95672092 5.1106021 -4.95672092 5.1106021 -3.375 3.375 C-2.92125 2.92125 -2.4675 2.4675 -2 2 C-1.34 2 -0.68 2 0 2 C0 1.34 0 0.68 0 0 Z " fill="#FED460" transform="translate(42,66)"/>
<path d="M0 0 C0.9375 3.0625 0.9375 3.0625 1 7 C-0.98945857 9.71969336 -3.48559987 11.77572296 -6 14 C-6.639375 14.825 -7.27875 15.65 -7.9375 16.5 C-10.39590277 19.47988214 -13.1895055 21.81018575 -16.125 24.30859375 C-18.14333127 26.03111387 -18.14333127 26.03111387 -20 28.5625 C-23.65682391 33.01925414 -27.65143901 36.74836847 -33.5 37.375 C-34.7375 37.189375 -34.7375 37.189375 -36 37 C-36.495 35.515 -36.495 35.515 -37 34 C-37.66 34 -38.32 34 -39 34 C-39.49475836 29.0524164 -39.66201379 25.98356335 -36.8125 21.75 C-35.884375 20.8425 -34.95625 19.935 -34 19 C-33.154375 18.13375 -32.30875 17.2675 -31.4375 16.375 C-30.633125 15.59125 -29.82875 14.8075 -29 14 C-28.360625 13.319375 -27.72125 12.63875 -27.0625 11.9375 C-24.58097061 9.60636633 -21.82830833 7.88553889 -19 6 C-18.67 5.34 -18.34 4.68 -18 4 C-15.48828125 2.67578125 -15.48828125 2.67578125 -12.3125 1.3125 C-11.27738281 0.85488281 -10.24226563 0.39726563 -9.17578125 -0.07421875 C-5.65930432 -1.09931719 -3.51994716 -0.87075155 0 0 Z " fill="#E29DDB" transform="translate(78,47)"/>
<path d="M0 0 C0.33 0 0.66 0 1 0 C1.44539877 8.7595092 1.44539877 8.7595092 -2 13 C-2.66 13 -3.32 13 -4 13 C-4.268125 14.134375 -4.53625 15.26875 -4.8125 16.4375 C-5.96078681 21.04705135 -7.45097898 25.51226481 -9 30 C-9.33 30.99 -9.66 31.98 -10 33 C-9.34 33 -8.68 33 -8 33 C-8.33 33.61875 -8.66 34.2375 -9 34.875 C-10.14193235 36.91018344 -10.14193235 36.91018344 -10 39 C-10.31802943 40.66965451 -10.64984951 42.33678518 -11 44 C-11.99 44 -12.98 44 -14 44 C-14.226875 44.72574219 -14.45375 45.45148438 -14.6875 46.19921875 C-16.27460743 49.58599264 -18.19581986 51.35476654 -21 53.8125 C-21.886875 54.60269531 -22.77375 55.39289063 -23.6875 56.20703125 C-26 58 -26 58 -28 58 C-28.2475 58.61875 -28.495 59.2375 -28.75 59.875 C-30.20628639 62.35068687 -31.37812506 62.95125002 -34 64 C-38.875 60.25 -38.875 60.25 -40 58 C-40.3125 55.125 -40.3125 55.125 -40 52 C-38.0625 49.875 -38.0625 49.875 -36 48 C-35.89558594 47.39027344 -35.79117188 46.78054687 -35.68359375 46.15234375 C-34.66561611 42.94716845 -32.62146398 41.73733919 -30 39.6875 C-28.515 38.51767578 -28.515 38.51767578 -27 37.32421875 C-26.01 36.55722656 -25.02 35.79023437 -24 35 C-23.13375 34.30519531 -22.2675 33.61039063 -21.375 32.89453125 C-15.41086187 28.13695396 -15.41086187 28.13695396 -12 27 C-11.27359045 24.68456957 -10.61568542 22.34730065 -10 20 C-8.35811267 16.3592933 -6.65739583 13.00401267 -4 10 C-3.34 10 -2.68 10 -2 10 C-1.90912109 9.04287109 -1.90912109 9.04287109 -1.81640625 8.06640625 C-1.73261719 7.24011719 -1.64882812 6.41382812 -1.5625 5.5625 C-1.48128906 4.73878906 -1.40007812 3.91507813 -1.31640625 3.06640625 C-1 1 -1 1 0 0 Z " fill="#DA87C6" transform="translate(122,59)"/>
<path d="M0 0 C0.66 0.33 1.32 0.66 2 1 C1.52140759 2.60433809 1.04210442 4.20846416 0.5625 5.8125 C0.29566406 6.70582031 0.02882812 7.59914063 -0.24609375 8.51953125 C-0.80387873 10.35473055 -1.39344575 12.18033726 -2 14 C-2.66 14 -3.32 14 -4 14 C-4.33 14.99 -4.66 15.98 -5 17 C-5.66 17 -6.32 17 -7 17 C-7 17.99 -7 18.98 -7 20 C-2.25452058 20 -0.71326262 18.8055762 3 16 C3.33 15.34 3.66 14.68 4 14 C4.99 13.67 5.98 13.34 7 13 C7.61875 12.34 8.2375 11.68 8.875 11 C11.28751935 8.72939356 12.76077175 8.35991425 16 8 C16 7.34 16 6.68 16 6 C20.62197306 3.78145293 23.76824163 2.61718841 29 3 C29 3.66 29 4.32 29 5 C27.96875 5.268125 26.9375 5.53625 25.875 5.8125 C20.86845641 7.26308808 16.71743196 9.28684403 12.75 12.6875 C10 15 10 15 8 15 C8 15.66 8 16.32 8 17 C6.27734375 18.48046875 6.27734375 18.48046875 3.9375 20.1875 C0.07380196 23.08375239 -3.24596351 26.14713381 -6.4921875 29.71484375 C-8 31 -8 31 -11 31 C-13.11775458 32.53448205 -13.11775458 32.53448205 -15.1875 34.5 C-15.90292969 35.1496875 -16.61835937 35.799375 -17.35546875 36.46875 C-17.89816406 36.9740625 -18.44085938 37.479375 -19 38 C-19.66 37.67 -20.32 37.34 -21 37 C-20.01 36.01 -19.02 35.02 -18 34 C-18.66 33.34 -19.32 32.68 -20 32 C-22.61580479 32.3269756 -24.64078137 32.82039068 -27 34 C-29.3329866 34.04022391 -31.66706666 34.04320247 -34 34 C-34 33.34 -34 32.68 -34 32 C-32.36816893 30.94410931 -30.69207001 29.9563874 -29 29 C-25.51288692 26.89320251 -22.78310338 24.91637923 -20.25 21.75 C-19.13625 20.38875 -19.13625 20.38875 -18 19 C-17.34 19 -16.68 19 -16 19 C-15.773125 18.4225 -15.54625 17.845 -15.3125 17.25 C-13.65273655 14.40469122 -11.57933333 13.06346666 -9 11 C-5.71969547 7.51467643 -2.65629194 3.98443791 0 0 Z " fill="#D8910E" transform="translate(79,52)"/>
<path d="M0 0 C0.66 0.33 1.32 0.66 2 1 C2.02712066 2.43739513 2.04645067 3.87493863 2.0625 5.3125 C2.07410156 6.11300781 2.08570313 6.91351563 2.09765625 7.73828125 C2 10 2 10 1 13 C0.34 13 -0.32 13 -1 13 C-1 14.32 -1 15.64 -1 17 C-1.66 17 -2.32 17 -3 17 C-3.04125 17.5775 -3.0825 18.155 -3.125 18.75 C-4.20676018 21.53166904 -5.6907463 22.22694778 -8.18359375 23.72265625 C-11.19887103 25.84307705 -13.57690769 28.59428362 -16.0703125 31.29296875 C-18.09856369 33.08719096 -19.35582266 33.60631137 -22 34 C-22 34.66 -22 35.32 -22 36 C-25.63821698 38.32845886 -28.76028942 38.23553948 -33 38 C-33.66 37.67 -34.32 37.34 -35 37 C-33.59394337 32.07880181 -30.88210452 30.16906492 -27 27 C-26.484375 26.0925 -25.96875 25.185 -25.4375 24.25 C-24.963125 23.5075 -24.48875 22.765 -24 22 C-22.33985384 21.63557767 -20.67293936 21.30027117 -19 21 C-17.85790183 19.21771064 -17.85790183 19.21771064 -17 17 C-14.28242414 13.06420047 -12.36530711 11.72314754 -8 10 C-6.86649466 7.98330173 -6.86649466 7.98330173 -6 6 C-5.01 5.67 -4.02 5.34 -3 5 C-2.67 4.34 -2.34 3.68 -2 3 C-1.34 3 -0.68 3 0 3 C0 2.01 0 1.02 0 0 Z " fill="#AC569A" transform="translate(109,57)"/>
<path d="M0 0 C0.93634555 4.77536232 1.31115399 7.67569182 -1 12 C-3.49609375 14.3515625 -3.49609375 14.3515625 -6.4375 16.625 C-10.22710396 19.53465434 -10.22710396 19.53465434 -13.72265625 22.7734375 C-15 24 -15 24 -17 24 C-17.020625 24.70125 -17.04125 25.4025 -17.0625 26.125 C-18.27914905 29.85605709 -20.2645084 31.21893134 -23.30859375 33.5703125 C-25.25419066 35.08080282 -25.25419066 35.08080282 -27 38 C-27.66 38 -28.32 38 -29 38 C-29.33 38.99 -29.66 39.98 -30 41 C-30.66 41 -31.32 41 -32 41 C-32.24105469 41.75410156 -32.48210937 42.50820312 -32.73046875 43.28515625 C-34.18678646 46.39943565 -35.52352216 47.48287183 -38.3125 49.4375 C-41.24290513 51.5789499 -43.62495288 53.53900007 -45.8125 56.4375 C-46.8953125 57.7059375 -46.8953125 57.7059375 -48 59 C-49.32 59 -50.64 59 -52 59 C-52.33 59.99 -52.66 60.98 -53 62 C-56.44444444 65 -56.44444444 65 -59 65 C-59 65.66 -59 66.32 -59 67 C-61.25 69.1875 -61.25 69.1875 -64 71 C-66.171875 70.61328125 -66.171875 70.61328125 -68 70 C-67.35675781 69.47792969 -66.71351562 68.95585937 -66.05078125 68.41796875 C-59.62470298 63.18360257 -53.2644015 57.87975831 -46.953125 52.5078125 C-45.24266807 51.05528161 -43.52677755 49.60900414 -41.796875 48.1796875 C-39.05189707 45.90016235 -36.62209458 43.65285004 -34.375 40.875 C-32 38 -32 38 -29.3125 35.9375 C-26.87382676 34.21022169 -26.87382676 34.21022169 -26.125 31.75 C-24.63728096 28.11335347 -22.24856015 25.78902884 -19.55859375 22.96484375 C-17.94175458 20.92657282 -17.41301406 19.54031936 -17 17 C-18.32 16.34 -19.64 15.68 -21 15 C-19.68 14.67 -18.36 14.34 -17 14 C-17 13.34 -17 12.68 -17 12 C-15.6253797 11.1064968 -14.24742303 10.21781433 -12.85546875 9.3515625 C-9.8200123 7.14047212 -7.37553838 4.35857009 -4.83203125 1.609375 C-3 0 -3 0 0 0 Z " fill="#DA920D" transform="translate(104,79)"/>
<path d="M0 0 C0 0.99 0 1.98 0 3 C-0.66 3 -1.32 3 -2 3 C-2.33 3.99 -2.66 4.98 -3 6 C-4.32407669 6.68486725 -5.65909241 7.34870203 -7 8 C-8.37701298 9.28817344 -9.70644173 10.62804426 -11 12 C-11.845625 12.825 -12.69125 13.65 -13.5625 14.5 C-15.97243694 16.82414692 -15.97243694 16.82414692 -17.4375 19.125 C-19 21 -19 21 -22 22.4375 C-25.48220195 24.25114685 -26.15076591 25.62313775 -28 29 C-30.76734976 32.05118051 -33.15901131 34.43515275 -37 36 C-39.05845885 33.77000291 -39.96230985 32.15418696 -40.6875 29.1875 C-39.59595352 24.1266936 -35.93821116 22.09716946 -32 19 C-30.53584667 17.69399564 -29.077234 16.38174553 -27.625 15.0625 C-24.24615385 12 -24.24615385 12 -22 12 C-22 11.34 -22 10.68 -22 10 C-15.407498 3.92024815 -9.21695122 -0.55301707 0 0 Z " fill="#E29FD7" transform="translate(109,57)"/>
<path d="M0 0 C0.99 0 1.98 0 3 0 C3 1.98 3 3.96 3 6 C2.34 6 1.68 6 1 6 C0.95101562 6.67546875 0.90203125 7.3509375 0.8515625 8.046875 C0.77679688 8.93890625 0.70203125 9.8309375 0.625 10.75 C0.52058594 12.07257812 0.52058594 12.07257812 0.4140625 13.421875 C-0.00991475 16.06173334 -0.81187653 17.62802688 -2 20 C-2.71150468 22.64312871 -3.37838121 25.27376636 -4 27.9375 C-5.75423376 35.4135509 -5.75423376 35.4135509 -7.1328125 38.703125 C-8.11603036 41.30732364 -8.07998672 43.0540917 -7.875 45.8125 C-7.7516029 50.96432884 -8.9960007 54.80097908 -12 59 C-12.99 59.495 -12.99 59.495 -14 60 C-14.84063373 62.47502865 -14.84063373 62.47502865 -15.5 65.375 C-16.34797787 68.86830012 -16.98168815 70.97253222 -19 74 C-19.66 74 -20.32 74 -21 74 C-21.33 75.32 -21.66 76.64 -22 78 C-22.639375 78.103125 -23.27875 78.20625 -23.9375 78.3125 C-24.618125 78.539375 -25.29875 78.76625 -26 79 C-26.33 79.99 -26.66 80.98 -27 82 C-27.66 82 -28.32 82 -29 82 C-29.20625 82.556875 -29.4125 83.11375 -29.625 83.6875 C-32.02277876 87.72012791 -34.94983313 90.3478262 -39.39453125 91.76171875 C-41.59154378 92.24955933 -43.77441275 92.66863479 -46 93 C-43.63707344 90.47411298 -42.33537489 89.11179163 -39 88 C-38.319375 87.319375 -37.63875 86.63875 -36.9375 85.9375 C-36.298125 85.298125 -35.65875 84.65875 -35 84 C-34.34 84 -33.68 84 -33 84 C-32.731875 83.401875 -32.46375 82.80375 -32.1875 82.1875 C-30.99427577 79.98945536 -29.75321129 78.75321129 -28 77 C-27.54625 76.195625 -27.0925 75.39125 -26.625 74.5625 C-25 72 -25 72 -22.4375 70.0625 C-19.40792635 67.49901461 -19.00686061 65.81168658 -18 62 C-16.62410077 57.47798972 -15.20707344 53.24837623 -12.875 49.125 C-10.67322974 44.98000069 -10.44357744 41.05755394 -10.2734375 36.41796875 C-10 34 -10 34 -8 31 C-7.529686 29.60379278 -7.11626415 28.18774952 -6.74609375 26.76171875 C-6.53146484 25.94123047 -6.31683594 25.12074219 -6.09570312 24.27539062 C-5.87849609 23.42138672 -5.66128906 22.56738281 -5.4375 21.6875 C-5.21642578 20.84509766 -4.99535156 20.00269531 -4.76757812 19.13476562 C-3.6394159 14.77549225 -2.64784355 10.46211344 -2 6 C-1.34 6 -0.68 6 0 6 C0 4.02 0 2.04 0 0 Z " fill="#523249" transform="translate(138,30)"/>
<path d="M0 0 C0.66 0.33 1.32 0.66 2 1 C-1.85926864 6.48422385 -6.88014992 10.87556351 -11.8125 15.375 C-12.60406494 16.09888916 -12.60406494 16.09888916 -13.41162109 16.83740234 C-16.90327471 20.02219107 -20.43297411 23.15810853 -24.00390625 26.25390625 C-26.37955778 28.33202021 -28.72082561 30.44618976 -31.0625 32.5625 C-32.70742385 34.04267801 -34.35320648 35.5219024 -36 37 C-36.69996094 37.6290625 -37.39992188 38.258125 -38.12109375 38.90625 C-42.76518278 43 -42.76518278 43 -45 43 C-45.23589844 43.58523437 -45.47179688 44.17046875 -45.71484375 44.7734375 C-47.28150372 47.48771161 -49.03808829 48.78538055 -51.5625 50.625 C-54.80810703 52.86379366 -54.80810703 52.86379366 -57 56 C-57.99 56 -58.98 56 -60 56 C-60.25 53.1875 -60.25 53.1875 -60 50 C-58.125 48.125 -58.125 48.125 -56 47 C-55.34 47 -54.68 47 -54 47 C-54 46.34 -54 45.68 -54 45 C-52.65820312 43.7824707 -52.65820312 43.7824707 -50.78125 42.42578125 C-49.75922485 41.67699707 -49.75922485 41.67699707 -48.71655273 40.91308594 C-47.98509033 40.38489258 -47.25362793 39.85669922 -46.5 39.3125 C-36.6938374 32.08588953 -28.59367734 24.6829724 -20.7734375 15.33984375 C-19.61714844 13.99599609 -19.61714844 13.99599609 -18.4375 12.625 C-17.73496094 11.79226562 -17.03242187 10.95953125 -16.30859375 10.1015625 C-13.10376259 7.18413583 -9.87525995 6.35477891 -5.6875 5.5625 C-5.130625 5.376875 -4.57375 5.19125 -4 5 C-3.67 4.01 -3.34 3.02 -3 2 C-2.01 1.34 -1.02 0.68 0 0 Z " fill="#DB930C" transform="translate(60,85)"/>
<path d="M0 0 C2.37514113 2.37514113 2.37175065 3.04748525 2.5 6.3125 C2.41856385 13.26511147 -0.82185242 18.96530311 -4 25 C-4.66 25 -5.32 25 -6 25 C-6 25.66 -6 26.32 -6 27 C-6.66 27 -7.32 27 -8 27 C-8.0825 27.556875 -8.165 28.11375 -8.25 28.6875 C-9.23895541 31.73677919 -10.84757466 33.65189963 -13 36 C-13.66 36 -14.32 36 -15 36 C-15.433125 36.928125 -15.433125 36.928125 -15.875 37.875 C-17 40 -17 40 -19 42 C-21.1640625 42.1953125 -21.1640625 42.1953125 -23.625 42.125 C-24.44226563 42.10695312 -25.25953125 42.08890625 -26.1015625 42.0703125 C-26.72804688 42.04710937 -27.35453125 42.02390625 -28 42 C-27.67 41.01 -27.34 40.02 -27 39 C-26.34 39 -25.68 39 -25 39 C-24.79375 38.4225 -24.5875 37.845 -24.375 37.25 C-22.48374778 34.15522364 -20.09964063 32.8081237 -17 31 C-16.34 31 -15.68 31 -15 31 C-14.87625 30.195625 -14.87625 30.195625 -14.75 29.375 C-13.95260191 26.84990605 -12.76077172 24.95124615 -11.24609375 22.79296875 C-10.29185931 21.41994804 -9.37391526 20.02164251 -8.47265625 18.61328125 C-7.94542969 17.79214844 -7.41820313 16.97101563 -6.875 16.125 C-6.37742187 15.34382813 -5.87984375 14.56265625 -5.3671875 13.7578125 C-4.91601562 13.17773438 -4.46484375 12.59765625 -4 12 C-3.34 12 -2.68 12 -2 12 C-1.67 9.69 -1.34 7.38 -1 5 C-1.70576172 5.66708984 -1.70576172 5.66708984 -2.42578125 6.34765625 C-3.04839844 6.91355469 -3.67101562 7.47945313 -4.3125 8.0625 C-4.92738281 8.63097656 -5.54226562 9.19945313 -6.17578125 9.78515625 C-6.77777344 10.18605469 -7.37976563 10.58695313 -8 11 C-8.99 10.67 -9.98 10.34 -11 10 C-10.2575 9.443125 -9.515 8.88625 -8.75 8.3125 C-6.08110497 6.06820191 -4.1421349 3.73306867 -2 1 C-1.34 0.67 -0.68 0.34 0 0 Z " fill="#CB800D" transform="translate(114,108)"/>
<path d="M0 0 C0.99 0.33 1.98 0.66 3 1 C2.59007812 1.45890625 2.18015625 1.9178125 1.7578125 2.390625 C1.21898437 3.00421875 0.68015625 3.6178125 0.125 4.25 C-0.40867188 4.85328125 -0.94234375 5.4565625 -1.4921875 6.078125 C-3.08084133 7.95070431 -3.08084133 7.95070431 -4.0234375 10.21875 C-4.34570312 10.8065625 -4.66796875 11.394375 -5 12 C-5.9075 12.0825 -6.815 12.165 -7.75 12.25 C-11.47872957 13.11047605 -11.64836984 13.50993689 -13.67578125 16.51953125 C-17.71723086 22.15902538 -22.65594631 26.754846 -27.63476562 31.55664062 C-32.06630746 35.89262361 -35.98255291 40.34518608 -39.67211914 45.33227539 C-40.11031982 45.88262451 -40.54852051 46.43297363 -41 47 C-41.33 47 -41.66 47 -42 47 C-42.28776633 43.29101172 -42.42915234 39.70143896 -42 36 C-39.8125 33.625 -39.8125 33.625 -37 32 C-36.113125 31.0925 -35.22625 30.185 -34.3125 29.25 C-32 27 -32 27 -30 27 C-29.67 26.01 -29.34 25.02 -29 24 C-26.9375 23.3125 -26.9375 23.3125 -25 23 C-25 22.34 -25 21.68 -25 21 C-20.52941176 17 -20.52941176 17 -18 17 C-18 16.34 -18 15.68 -18 15 C-16.6875 13.375 -16.6875 13.375 -15 12 C-14.01 12 -13.02 12 -12 12 C-11.67 11.01 -11.34 10.02 -11 9 C-10.34 9 -9.68 9 -9 9 C-9 8.34 -9 7.68 -9 7 C-8.401875 6.731875 -7.80375 6.46375 -7.1875 6.1875 C-4.95672092 5.1106021 -4.95672092 5.1106021 -3.375 3.375 C-2.92125 2.92125 -2.4675 2.4675 -2 2 C-1.34 2 -0.68 2 0 2 C0 1.34 0 0.68 0 0 Z " fill="#FED14F" transform="translate(42,66)"/>
<path d="M0 0 C0.99 0.33 1.98 0.66 3 1 C2.34 2.98 1.68 4.96 1 7 C0.34 7 -0.32 7 -1 7 C-1.05671875 7.72058594 -1.1134375 8.44117187 -1.171875 9.18359375 C-2.29434545 13.00105221 -4.2603952 14.47657179 -7.25 17.0625 C-8.20390625 17.89910156 -9.1578125 18.73570313 -10.140625 19.59765625 C-11.55601563 20.78681641 -11.55601563 20.78681641 -13 22 C-13.88558594 22.76699219 -14.77117188 23.53398438 -15.68359375 24.32421875 C-18 26 -18 26 -20.8125 25.75 C-21.534375 25.5025 -22.25625 25.255 -23 25 C-23 23.02 -23 21.04 -23 19 C-22.34 18.67 -21.68 18.34 -21 18 C-20.67 17.01 -20.34 16.02 -20 15 C-18.2578125 13.28125 -18.2578125 13.28125 -16.125 11.5 C-13.17251522 9.02001848 -13.17251522 9.02001848 -10.39453125 6.3515625 C-7.59950704 3.64265949 -3.71722282 2.82604952 0 2 C0 1.34 0 0.68 0 0 Z " fill="#E4A8E1" transform="translate(62,56)"/>
<path d="M0 0 C0.66 0.33 1.32 0.66 2 1 C1.52140759 2.60433809 1.04210442 4.20846416 0.5625 5.8125 C0.29566406 6.70582031 0.02882812 7.59914063 -0.24609375 8.51953125 C-0.80387873 10.35473055 -1.39344575 12.18033726 -2 14 C-2.66 14 -3.32 14 -4 14 C-4.33 14.99 -4.66 15.98 -5 17 C-5.9075 17.598125 -6.815 18.19625 -7.75 18.8125 C-11.09178036 20.8161915 -11.09178036 20.8161915 -13.1875 23.8125 C-17.01488366 28.65556476 -23.1510652 33.25141199 -29.26953125 34.44140625 C-31.1875 34.4375 -31.1875 34.4375 -34 34 C-34 33.34 -34 32.68 -34 32 C-32.36816893 30.94410931 -30.69207001 29.9563874 -29 29 C-25.51288692 26.89320251 -22.78310338 24.91637923 -20.25 21.75 C-19.13625 20.38875 -19.13625 20.38875 -18 19 C-17.34 19 -16.68 19 -16 19 C-15.773125 18.4225 -15.54625 17.845 -15.3125 17.25 C-13.65273655 14.40469122 -11.57933333 13.06346666 -9 11 C-5.71969547 7.51467643 -2.65629194 3.98443791 0 0 Z " fill="#7A4240" transform="translate(79,52)"/>
<path d="M0 0 C1.04220703 0.47566406 1.04220703 0.47566406 2.10546875 0.9609375 C5.26188644 2.09401052 7.97280167 2.40480011 11.3125 2.625 C12.91544922 2.73714844 12.91544922 2.73714844 14.55078125 2.8515625 C15.35902344 2.90054688 16.16726562 2.94953125 17 3 C16.4375 6.375 16.4375 6.375 15 10 C13.36378429 10.43409805 11.72127458 10.85385704 10.05859375 11.171875 C3.80763224 13.68649329 -0.61592092 21.45536099 -4.5625 26.6875 C-9.70152083 33.40501915 -15.60669926 38.0076176 -23 42 C-23.66 42.66 -24.32 43.32 -25 44 C-27.125 43.625 -27.125 43.625 -29 43 C-28.01 43 -27.02 43 -26 43 C-25.67 42.01 -25.34 41.02 -25 40 C-23.328125 38.60546875 -23.328125 38.60546875 -21.25 37.1875 C-17.44796804 34.44949481 -14.89034867 31.67152399 -12 28 C-10.33333333 26.33333333 -8.66666667 24.66666667 -7 23 C-6.11423036 21.96747562 -5.23927329 20.9255837 -4.375 19.875 C-2 17 -2 17 -0.25 15.375 C1.34404303 13.62155267 1.53676711 12.31616446 2 10 C2.65509503 7.99617991 3.31974363 5.99541868 4 4 C2.68 3.34 1.36 2.68 0 2 C0 1.34 0 0.68 0 0 Z M3 11 C2.67 11.66 2.34 12.32 2 13 C2.66 13 3.32 13 4 13 C3.67 12.34 3.34 11.68 3 11 Z " fill="#EAA819" transform="translate(71,92)"/>
<path d="M0 0 C0 0.99 0 1.98 0 3 C-0.99 3 -1.98 3 -3 3 C-3 3.99 -3 4.98 -3 6 C-4.57421875 7.6484375 -4.57421875 7.6484375 -6.6875 9.375 C-9.15603118 11.43500665 -11.43462806 13.44473569 -13.6875 15.75 C-16.0257302 18.02503479 -18.03713184 19.63252239 -21 21 C-23.3125 20.6875 -23.3125 20.6875 -25 20 C-25.25817569 17.0840595 -25.35902222 15.51475056 -23.65478516 13.07128906 C-23.03909668 12.47541992 -22.4234082 11.87955078 -21.7890625 11.265625 C-21.12132813 10.60949219 -20.45359375 9.95335938 -19.765625 9.27734375 C-19.05921875 8.60832031 -18.3528125 7.93929687 -17.625 7.25 C-16.92632812 6.56550781 -16.22765625 5.88101563 -15.5078125 5.17578125 C-9.73739864 -0.42817837 -7.97088698 -1.15706424 0 0 Z " fill="#E6ABE1" transform="translate(108,99)"/>
<path d="M0 0 C1.67542976 0.28604898 3.34385343 0.61781233 5 1 C1.79785575 6.33690708 -0.80157595 9.13838373 -6.87109375 10.7734375 C-10.55651353 12.21815886 -12.13894588 13.8772243 -14.6875 16.875 C-15.43386719 17.73867187 -16.18023437 18.60234375 -16.94921875 19.4921875 C-18.23217664 21.06106172 -19.47262377 22.66683733 -20.64453125 24.3203125 C-21.09183594 24.87460938 -21.53914063 25.42890625 -22 26 C-22.66 26 -23.32 26 -24 26 C-24.21527344 26.56074219 -24.43054688 27.12148437 -24.65234375 27.69921875 C-26.46500241 30.79387367 -28.78064575 32.55646239 -31.5625 34.8125 C-32.09536621 35.2461084 -32.62823242 35.6797168 -33.17724609 36.12646484 C-34.77893197 37.42516794 -36.38888721 38.71302237 -38 40 C-38.89847656 40.72832031 -39.79695313 41.45664063 -40.72265625 42.20703125 C-46.72606925 47 -46.72606925 47 -49 47 C-49 47.66 -49 48.32 -49 49 C-52.46153846 52 -52.46153846 52 -55 52 C-54.67 50.35 -54.34 48.7 -54 47 C-53.34 47 -52.68 47 -52 47 C-52 46.34 -52 45.68 -52 45 C-50.13002213 43.64161985 -48.20205007 42.3625437 -46.25 41.125 C-43.13674835 39.14725801 -40.37544228 37.38476177 -37.796875 34.7421875 C-36 33 -36 33 -33 33 C-32.61908203 32.07767578 -32.61908203 32.07767578 -32.23046875 31.13671875 C-30.81443271 28.67776093 -29.80228573 28.08918777 -27.3125 26.8125 C-22.24700173 23.84844938 -19.42652872 19.6563472 -16 15 C-12.24826543 10.67107549 -8.29140909 8.09086584 -3 6 C-2.34 6 -1.68 6 -1 6 C-1.495 5.01 -1.495 5.01 -2 4 C-4.31 4 -6.62 4 -9 4 C-9 3.67 -9 3.34 -9 3 C-8.43410156 2.86722656 -7.86820313 2.73445313 -7.28515625 2.59765625 C-6.18494141 2.33275391 -6.18494141 2.33275391 -5.0625 2.0625 C-3.96615234 1.80146484 -3.96615234 1.80146484 -2.84765625 1.53515625 C-1.00030102 1.16112431 -1.00030102 1.16112431 0 0 Z " fill="#EDAE1F" transform="translate(55,83)"/>
<path d="M0 0 C1.16074419 3.58775476 1.00737751 6.75944686 0.75 10.5 C0.68296875 11.6240625 0.6159375 12.748125 0.546875 13.90625 C-0.03684596 17.20844287 -0.90637973 18.47043309 -3 21 C-3.6984766 22.9100751 -3.6984766 22.9100751 -4.0625 24.875 C-4.22492188 25.57109375 -4.38734375 26.2671875 -4.5546875 26.984375 C-4.93321562 28.6977128 -5.31049196 30.41132708 -5.6875 32.125 C-7.29465379 35.6454321 -9.34212531 37.1934424 -12.328125 39.5625 C-14.49571919 41.42622584 -15.65207715 43.49671471 -17 46 C-19.45110034 49.39991338 -21.23694708 51.24390864 -25 53 C-25.66 53.99 -26.32 54.98 -27 56 C-30.23349228 57.85753812 -32.24413583 59 -36 59 C-33.30958594 55.40655344 -30.5929542 52.74078446 -27 50.0625 C-23.01531063 46.97304921 -20.59644666 44.25817252 -18 40 C-16.515 39.505 -16.515 39.505 -15 39 C-14.26676204 36.98491642 -14.26676204 36.98491642 -14 35 C-14.66 34.67 -15.32 34.34 -16 34 C-13.94766315 31.7522025 -12.99332739 30.9977758 -10 30 C-8.77030122 26.48809191 -8.77030122 26.48809191 -8 23 C-7.34 23 -6.68 23 -6 23 C-5.01 19.04 -4.02 15.08 -3 11 C-2.34 11 -1.68 11 -1 11 C-1.20625 10.113125 -1.4125 9.22625 -1.625 8.3125 C-2.02550239 4.7747289 -1.56683516 3.13367033 0 0 Z " fill="#994888" transform="translate(126,63)"/>
<path d="M0 0 C2.64 0 5.28 0 8 0 C8.16610919 5.86033218 7.58988209 11.13825073 6.4375 16.875 C5.05342407 22.03332523 5.05342407 22.03332523 6 27 C2.05459685 25.72040979 0.12600915 24.58226398 -2 21 C-2.96355564 13.84067795 -1.84409053 6.9153395 0 0 Z " fill="#D369AB" transform="translate(122,0)"/>
<path d="M0 0 C0.99 0 1.98 0 3 0 C3.9375 3.0625 3.9375 3.0625 4 7 C2.01054143 9.71969336 -0.48559987 11.77572296 -3 14 C-3.639375 14.825 -4.27875 15.65 -4.9375 16.5 C-7.39590277 19.47988214 -10.1895055 21.81018575 -13.125 24.30859375 C-15.14333127 26.03111387 -15.14333127 26.03111387 -17 28.5625 C-20.65682391 33.01925414 -24.65143901 36.74836847 -30.5 37.375 C-31.7375 37.189375 -31.7375 37.189375 -33 37 C-33.33 36.34 -33.66 35.68 -34 35 C-33.31164063 34.6184375 -32.62328125 34.236875 -31.9140625 33.84375 C-28.46482442 31.66139025 -25.4630367 29.15796766 -22.375 26.5 C-21.80265625 26.01402344 -21.2303125 25.52804688 -20.640625 25.02734375 C-17.99577225 22.76999268 -15.43670472 20.47920539 -13 18 C-11.71591607 16.86635268 -10.42374569 15.74182022 -9.125 14.625 C-2.1705656 8.83322721 -2.1705656 8.83322721 2 1 C1.34 0.67 0.68 0.34 0 0 Z " fill="#C668B2" transform="translate(75,47)"/>
<path d="M0 0 C0.66 0 1.32 0 2 0 C1.67 2.64 1.34 5.28 1 8 C0.34 8 -0.32 8 -1 8 C-1 9.32 -1 10.64 -1 12 C-1.66 12 -2.32 12 -3 12 C-3.04125 12.5775 -3.0825 13.155 -3.125 13.75 C-4.20676018 16.53166904 -5.6907463 17.22694778 -8.18359375 18.72265625 C-11.19887103 20.84307705 -13.57690769 23.59428362 -16.0703125 26.29296875 C-18.09856369 28.08719096 -19.35582266 28.60631137 -22 29 C-22 29.66 -22 30.32 -22 31 C-25.63423209 33.32590854 -28.77088331 33.16265833 -33 33 C-33 32.67 -33 32.34 -33 32 C-32.113125 31.773125 -31.22625 31.54625 -30.3125 31.3125 C-26.44782354 29.7812131 -24.82758721 28.02955772 -22 25 C-20.67775889 23.82077681 -19.34356834 22.65486492 -18 21.5 C-11.87262386 16.56818217 -11.87262386 16.56818217 -8 10 C-6.48303867 8.77352063 -4.96507932 7.54813812 -3.43359375 6.33984375 C-1.4657602 4.50069686 -0.73091325 2.55819637 0 0 Z " fill="#71393F" transform="translate(109,62)"/>
<path d="M0 0 C0 3 0 3 -1.4609375 4.5 C-2.09257813 4.995 -2.72421875 5.49 -3.375 6 C-5.86340153 7.96614442 -7.1957287 9.29359306 -9 12 C-9.66 12 -10.32 12 -11 12 C-11.33 12.99 -11.66 13.98 -12 15 C-12.66 15 -13.32 15 -14 15 C-14.24105469 15.75410156 -14.48210937 16.50820312 -14.73046875 17.28515625 C-16.18678646 20.39943565 -17.52352216 21.48287183 -20.3125 23.4375 C-23.24290513 25.5789499 -25.62495288 27.53900007 -27.8125 30.4375 C-28.8953125 31.7059375 -28.8953125 31.7059375 -30 33 C-31.32 33 -32.64 33 -34 33 C-34.33 33.99 -34.66 34.98 -35 36 C-38.44444444 39 -38.44444444 39 -41 39 C-41 39.66 -41 40.32 -41 41 C-43.25 43.1875 -43.25 43.1875 -46 45 C-48.171875 44.61328125 -48.171875 44.61328125 -50 44 C-49.03513672 43.21689453 -49.03513672 43.21689453 -48.05078125 42.41796875 C-41.62470298 37.18360257 -35.2644015 31.87975831 -28.953125 26.5078125 C-27.24266807 25.05528161 -25.52677755 23.60900414 -23.796875 22.1796875 C-21.05464138 19.90244132 -18.79764836 17.75717804 -16.5 15 C-14.0487677 12.05852124 -11.51861752 9.78327752 -8.55078125 7.39453125 C-6.7459798 5.88740659 -6.7459798 5.88740659 -5 3 C-4.01 3 -3.02 3 -2 3 C-2 2.34 -2 1.68 -2 1 C-1.34 0.67 -0.68 0.34 0 0 Z " fill="#C5780F" transform="translate(86,105)"/>
<path d="M0 0 C0.66 0.33 1.32 0.66 2 1 C-0.79825595 4.97646899 -3.75197876 9.11262319 -8.375 10.9375 C-13.17132386 12.87886918 -16.70429466 16.70211334 -20.3203125 20.32421875 C-23.28175143 23.28134071 -26.3096091 26.15149997 -29.375 29 C-29.91382813 29.50789063 -30.45265625 30.01578125 -31.0078125 30.5390625 C-34.79495523 34.05569504 -38.74280184 37.06846102 -43 40 C-42.17071855 35.72095228 -40.49202206 34.50371661 -37 31.875 C-30.45466057 26.70985505 -25.182869 20.83816556 -19.875 14.4375 C-13.59659091 7.01756198 -13.59659091 7.01756198 -8 6 C-5.76832815 5.63143136 -5.76832815 5.63143136 -4 5 C-3.67 4.01 -3.34 3.02 -3 2 C-2.01 1.34 -1.02 0.68 0 0 Z " fill="#DF980D" transform="translate(60,85)"/>
<path d="M0 0 C0.33 0 0.66 0 1 0 C2.33834323 6.32671343 1.52936531 10.96305733 -0.2109375 17.16796875 C-0.93551245 19.76854714 -1.47523023 22.35391514 -2 25 C-2.33 25.99 -2.66 26.98 -3 28 C-3.66 28 -4.32 28 -5 28 C-4.938125 29.794375 -4.938125 29.794375 -4.875 31.625 C-4.86148292 35.42329953 -5.57990247 38.44975618 -7 42 C-7.33 42 -7.66 42 -8 42 C-7.67 37.71 -7.34 33.42 -7 29 C-7.66 29.33 -8.32 29.66 -9 30 C-9.46523063 31.89533342 -9.46523063 31.89533342 -9.625 34.0625 C-9.74875 35.361875 -9.8725 36.66125 -10 38 C-10.66 38 -11.32 38 -12 38 C-12.103125 39.299375 -12.20625 40.59875 -12.3125 41.9375 C-12.848308 46.90160353 -14.24930225 51.34248334 -16 56 C-16.96503711 52.92144467 -16.98468736 50.81129485 -16.328125 47.6640625 C-16.07289062 46.43816406 -16.07289062 46.43816406 -15.8125 45.1875 C-15.626875 44.341875 -15.44125 43.49625 -15.25 42.625 C-15.07984375 41.78710938 -14.9096875 40.94921875 -14.734375 40.0859375 C-13.71568949 35.32208465 -12.42610454 31.28054078 -10 27 C-8.68 27 -7.36 27 -6 27 C-6 26.34 -6 25.68 -6 25 C-5.34 25 -4.68 25 -4 25 C-4.04640625 24.45214844 -4.0928125 23.90429688 -4.140625 23.33984375 C-4.51641433 15.08589951 -2.33684438 7.82425575 0 0 Z " fill="#C378AC" transform="translate(140,0)"/>
<path d="M0 0 C0.66 0.99 1.32 1.98 2 3 C0.94643208 4.27824811 -0.11832783 5.54727493 -1.1875 6.8125 C-1.77917969 7.52019531 -2.37085938 8.22789063 -2.98046875 8.95703125 C-5.1634665 11.1653636 -7.30503 12.47285033 -10 14 C-12.55267028 15.76602304 -15.07447687 17.57108127 -17.59765625 19.37890625 C-20 21 -20 21 -22.10546875 22.03515625 C-24.16399004 23.08351658 -25.56806025 24.29920208 -27.25 25.875 C-30.84939934 29.05459898 -34.64158955 31.0462298 -39 33 C-39.99 33.495 -39.99 33.495 -41 34 C-41 33.01 -41 32.02 -41 31 C-38.9453125 29.203125 -38.9453125 29.203125 -36.125 27.25 C-35.1246875 26.55003906 -34.124375 25.85007812 -33.09375 25.12890625 C-32.0728125 24.42636719 -31.051875 23.72382812 -30 23 C-28.20830572 21.7292056 -26.41663706 20.45837508 -24.625 19.1875 C-22.30529435 17.55439619 -19.99504002 15.99703989 -17.55859375 14.54296875 C-14.75570157 12.85267499 -12.10012775 11.02846406 -9.4375 9.125 C-8.50808594 8.46757813 -7.57867187 7.81015625 -6.62109375 7.1328125 C-3.97031809 4.97584751 -2.02810024 2.73912833 0 0 Z " fill="#FFD150" transform="translate(41,85)"/>
<path d="M0 0 C0.66 0.33 1.32 0.66 2 1 C1.21654285 2.17219543 0.42297164 3.33763668 -0.375 4.5 C-0.81585938 5.1496875 -1.25671875 5.799375 -1.7109375 6.46875 C-2.13632813 6.9740625 -2.56171875 7.479375 -3 8 C-3.66 8 -4.32 8 -5 8 C-5 8.99 -5 9.98 -5 11 C-6.62102968 12.71108689 -8.29503463 14.37253306 -10 16 C-10.70125 16.9075 -11.4025 17.815 -12.125 18.75 C-14 21 -14 21 -17 22 C-17.33 22.66 -17.66 23.32 -18 24 C-18.66 24 -19.32 24 -20 24 C-20.33 24.99 -20.66 25.98 -21 27 C-22.8125 29.1875 -22.8125 29.1875 -25 31 C-26.32 31 -27.64 31 -29 31 C-27.59394337 26.07880181 -24.88210452 24.16906492 -21 21 C-20.484375 20.0925 -19.96875 19.185 -19.4375 18.25 C-18.963125 17.5075 -18.48875 16.765 -18 16 C-16.33985384 15.63557767 -14.67293936 15.30027117 -13 15 C-11.85790183 13.21771064 -11.85790183 13.21771064 -11 11 C-8.28242414 7.06420047 -6.36530711 5.72314754 -2 4 C-0.65589738 1.98264795 -0.65589738 1.98264795 0 0 Z " fill="#BB63A7" transform="translate(103,63)"/>
<path d="M0 0 C0.99 0.33 1.98 0.66 3 1 C2.59007812 1.45890625 2.18015625 1.9178125 1.7578125 2.390625 C1.21898437 3.00421875 0.68015625 3.6178125 0.125 4.25 C-0.40867188 4.85328125 -0.94234375 5.4565625 -1.4921875 6.078125 C-3.07708924 7.94313796 -3.07708924 7.94313796 -3.9921875 10.17578125 C-5 12 -5 12 -8.25 12.9375 C-9.4875 13.288125 -10.725 13.63875 -12 14 C-14.14356598 15.53111856 -16.02170173 17.25173641 -18 19 C-18.66 19 -19.32 19 -20 19 C-20 19.66 -20 20.32 -20 21 C-21.73391951 22.60634015 -23.538091 24.1375287 -25.375 25.625 C-26.37273438 26.44226563 -27.37046875 27.25953125 -28.3984375 28.1015625 C-31 30 -31 30 -33 30 C-33 30.66 -33 31.32 -33 32 C-34.4609375 33.5078125 -34.4609375 33.5078125 -36.375 35.125 C-37.00148438 35.66382813 -37.62796875 36.20265625 -38.2734375 36.7578125 C-40 38 -40 38 -42 38 C-40.5611898 34.612801 -38.77880501 32.6405896 -36 30.25 C-34.948125 29.32960938 -34.948125 29.32960938 -33.875 28.390625 C-32 27 -32 27 -30 27 C-29.67 26.01 -29.34 25.02 -29 24 C-26.9375 23.3125 -26.9375 23.3125 -25 23 C-25 22.34 -25 21.68 -25 21 C-20.52941176 17 -20.52941176 17 -18 17 C-18 16.34 -18 15.68 -18 15 C-16.6875 13.375 -16.6875 13.375 -15 12 C-14.01 12 -13.02 12 -12 12 C-11.67 11.01 -11.34 10.02 -11 9 C-10.34 9 -9.68 9 -9 9 C-9 8.34 -9 7.68 -9 7 C-8.401875 6.731875 -7.80375 6.46375 -7.1875 6.1875 C-4.95672092 5.1106021 -4.95672092 5.1106021 -3.375 3.375 C-2.92125 2.92125 -2.4675 2.4675 -2 2 C-1.34 2 -0.68 2 0 2 C0 1.34 0 0.68 0 0 Z " fill="#D99912" transform="translate(42,66)"/>
<path d="M0 0 C1.98 0 3.96 0 6 0 C6.33 1.98 6.66 3.96 7 6 C6.38125 6.061875 5.7625 6.12375 5.125 6.1875 C4.42375 6.455625 3.7225 6.72375 3 7 C2.59394531 8.11375 2.59394531 8.11375 2.1796875 9.25 C0.70929989 12.67765854 -1.20633572 14.36398319 -4 16.8125 C-5.3303125 17.99779297 -5.3303125 17.99779297 -6.6875 19.20703125 C-9 21 -9 21 -11 21 C-11.2475 21.61875 -11.495 22.2375 -11.75 22.875 C-13.20628639 25.35068687 -14.37812506 25.95125002 -17 27 C-17.99 26.01 -18.98 25.02 -20 24 C-19.45472656 23.67128906 -18.90945312 23.34257813 -18.34765625 23.00390625 C-12.78281895 19.49377811 -8.34117517 15.56040944 -3.84765625 10.7578125 C-2 9 -2 9 0 9 C0 8.01 0 7.02 0 6 C0.99 6 1.98 6 3 6 C3 5.01 3 4.02 3 3 C1.68 3 0.36 3 -1 3 C-0.67 2.01 -0.34 1.02 0 0 Z " fill="#C56DB2" transform="translate(105,96)"/>
<path d="M0 0 C0.66 0 1.32 0 2 0 C1.52583422 4.97874064 0.0900669 8.06718758 -3 12 C-3.66 12 -4.32 12 -5 12 C-5.103125 12.556875 -5.20625 13.11375 -5.3125 13.6875 C-6.14178408 16.4769101 -7.34299056 18.6139064 -9 21 C-9.66 21 -10.32 21 -11 21 C-11 21.66 -11 22.32 -11 23 C-11.5775 23.226875 -12.155 23.45375 -12.75 23.6875 C-15.2118792 24.92469103 -15.2118792 24.92469103 -16.9375 27.625 C-19 30 -19 30 -21.75 30.3125 C-22.4925 30.209375 -23.235 30.10625 -24 30 C-23.505 28.515 -23.505 28.515 -23 27 C-22.34 27 -21.68 27 -21 27 C-20.79375 26.4225 -20.5875 25.845 -20.375 25.25 C-18.48374778 22.15522364 -16.09964063 20.8081237 -13 19 C-12.34 19 -11.68 19 -11 19 C-10.87625 18.195625 -10.87625 18.195625 -10.75 17.375 C-9.95260191 14.84990605 -8.76077172 12.95124615 -7.24609375 10.79296875 C-6.29185931 9.41994804 -5.37391526 8.02164251 -4.47265625 6.61328125 C-3.94542969 5.79214844 -3.41820313 4.97101563 -2.875 4.125 C-2.37742187 3.34382813 -1.87984375 2.56265625 -1.3671875 1.7578125 C-0.91601562 1.17773438 -0.46484375 0.59765625 0 0 Z " fill="#E6A214" transform="translate(110,120)"/>
<path d="M0 0 C-2.3510565 1.94801825 -4.6165638 3.78023364 -7.26953125 5.30078125 C-10.61697279 7.38395302 -13.51367391 9.81133259 -16.5 12.375 C-17.33337891 13.07882813 -17.33337891 13.07882813 -18.18359375 13.796875 C-20.84417589 16.06306496 -23.33612979 18.34462745 -25.78125 20.8515625 C-28 23 -28 23 -30 23 C-30.33 24.32 -30.66 25.64 -31 27 C-31.66 27 -32.32 27 -33 27 C-32.10499325 20.95870444 -27.17563171 17.07124092 -23 13 C-22.360625 12.319375 -21.72125 11.63875 -21.0625 10.9375 C-18.58097061 8.60636633 -15.82830833 6.88553889 -13 5 C-12.67 4.34 -12.34 3.68 -12 3 C-10.0390625 1.89453125 -10.0390625 1.89453125 -7.625 0.8125 C-6.83351563 0.44769531 -6.04203125 0.08289062 -5.2265625 -0.29296875 C-3 -1 -3 -1 0 0 Z " fill="#A4508A" transform="translate(72,48)"/>
<path d="M0 0 C0 0.66 0 1.32 0 2 C-1.546875 2.4021875 -1.546875 2.4021875 -3.125 2.8125 C-8.13154359 4.26308808 -12.28256804 6.28684403 -16.25 9.6875 C-19 12 -19 12 -21 12 C-21 12.66 -21 13.32 -21 14 C-22.72265625 15.48046875 -22.72265625 15.48046875 -25.0625 17.1875 C-29.42521121 20.47333946 -33.25261424 24.03572374 -37 28 C-37 24.40052181 -36.16587393 23.74899383 -34 21 C-33.731875 20.34 -33.46375 19.68 -33.1875 19 C-31.44729229 16.06912385 -28.83544519 14.80985863 -26 13 C-25.67 12.34 -25.34 11.68 -25 11 C-24.01 10.67 -23.02 10.34 -22 10 C-21.38125 9.34 -20.7625 8.68 -20.125 8 C-17.71248065 5.72939356 -16.23922825 5.35991425 -13 5 C-13 4.34 -13 3.68 -13 3 C-8.37802694 0.78145293 -5.23175837 -0.38281159 0 0 Z " fill="#A44B88" transform="translate(108,55)"/>
<path d="M0 0 C0.99 0 1.98 0 3 0 C3 1.98 3 3.96 3 6 C2.34 6 1.68 6 1 6 C0.95101562 6.67546875 0.90203125 7.3509375 0.8515625 8.046875 C0.77679688 8.93890625 0.70203125 9.8309375 0.625 10.75 C0.55539063 11.63171875 0.48578125 12.5134375 0.4140625 13.421875 C-0.00997038 16.06207973 -0.81339812 17.62679623 -2 20 C-2.71037893 22.66392098 -3.37763116 25.31603438 -4 28 C-5.97938144 36.53608247 -5.97938144 36.53608247 -8 40 C-8.66 40 -9.32 40 -10 40 C-10.25 34.375 -10.25 34.375 -8 31 C-7.529686 29.60379278 -7.11626415 28.18774952 -6.74609375 26.76171875 C-6.53146484 25.94123047 -6.31683594 25.12074219 -6.09570312 24.27539062 C-5.87849609 23.42138672 -5.66128906 22.56738281 -5.4375 21.6875 C-5.10588867 20.42389648 -5.10588867 20.42389648 -4.76757812 19.13476562 C-3.6394159 14.77549225 -2.64784355 10.46211344 -2 6 C-1.34 6 -0.68 6 0 6 C0 4.02 0 2.04 0 0 Z " fill="#6A4B5E" transform="translate(138,30)"/>
<path d="M0 0 C1.65 0 3.3 0 5 0 C4.01 0.33 3.02 0.66 2 1 C2 2.98 2 4.96 2 7 C1.34 7 0.68 7 0 7 C-0.1134375 8.2890625 -0.226875 9.578125 -0.34375 10.90625 C-0.90357336 15.93677539 -2.09404368 20.64744218 -3.5 25.5 C-3.83837891 26.71429688 -3.83837891 26.71429688 -4.18359375 27.953125 C-5.85794789 33.85794789 -5.85794789 33.85794789 -7 35 C-7.28479122 37.77558423 -7.44843019 40.55127845 -7.62109375 43.3359375 C-8 46 -8 46 -10 49 C-10.72105148 41.43697111 -9.33955148 35.16720169 -6.92358398 28.06225586 C-5.13601596 22.72361398 -4.19357124 17.51917439 -3.46875 11.9296875 C-2.79744673 7.73404208 -1.48214185 3.97483497 0 0 Z " fill="#985381" transform="translate(136,29)"/>
<path d="M0 0 C0.66 0 1.32 0 2 0 C2.02715383 1.74991334 2.04646551 3.49994945 2.0625 5.25 C2.07410156 6.22453125 2.08570313 7.1990625 2.09765625 8.203125 C2.01106432 10.68311798 1.62360471 12.62250704 1 15 C0.93543121 16.41534778 0.91388961 17.83337689 0.9375 19.25 C0.958125 20.4875 0.97875 21.725 1 23 C1.99 23.33 2.98 23.66 4 24 C4.33 22.02 4.66 20.04 5 18 C5.33 18 5.66 18 6 18 C6 20.31 6 22.62 6 25 C5.34 25 4.68 25 4 25 C4 25.66 4 26.32 4 27 C2.02 27.33 0.04 27.66 -2 28 C-3.88797195 24.09715962 -4.12568673 21.7205272 -3.3203125 17.48046875 C-3.13339844 16.45888672 -2.94648437 15.43730469 -2.75390625 14.38476562 C-2.54636719 13.32966797 -2.33882813 12.27457031 -2.125 11.1875 C-1.82529297 9.57584961 -1.82529297 9.57584961 -1.51953125 7.93164062 C-1.02551658 5.28513345 -0.51864174 2.64177183 0 0 Z " fill="#EA85CA" transform="translate(130,0)"/>
<path d="M0 0 C0 3.5405582 -0.65992801 4.18297567 -2.8125 6.875 C-4.63918928 9.20338563 -6.20790146 11.36190254 -7.6875 13.9375 C-9 16 -9 16 -12 17 C-13.20882096 19.00016466 -13.20882096 19.00016466 -14 21 C-14.99 21 -15.98 21 -17 21 C-17 21.66 -17 22.32 -17 23 C-17.99 23 -18.98 23 -20 23 C-20 23.66 -20 24.32 -20 25 C-21.98 25.33 -23.96 25.66 -26 26 C-22.66666667 22.66666667 -19.33333333 19.33333333 -16 16 C-15.443125 15.401875 -14.88625 14.80375 -14.3125 14.1875 C-13 13 -13 13 -11 13 C-10.773125 12.4225 -10.54625 11.845 -10.3125 11.25 C-8.66216522 8.42085466 -6.56741423 7.01725404 -4 5 C-2.62631655 3.36643049 -1.28062485 1.7074998 0 0 Z " fill="#8F457E" transform="translate(74,58)"/>
<path d="M0 0 C0 3 0 3 -1.5625 5.5625 C-2.036875 6.366875 -2.51125 7.17125 -3 8 C-2.67 8.66 -2.34 9.32 -2 10 C-2.66 10 -3.32 10 -4 10 C-4.33 10.99 -4.66 11.98 -5 13 C-5.66 13 -6.32 13 -7 13 C-7.309375 13.8353125 -7.309375 13.8353125 -7.625 14.6875 C-10.02277876 18.72012791 -12.94983313 21.3478262 -17.39453125 22.76171875 C-19.59154378 23.24955933 -21.77441275 23.66863479 -24 24 C-21.63707344 21.47411298 -20.33537489 20.11179163 -17 19 C-15.9790625 17.9790625 -15.9790625 17.9790625 -14.9375 16.9375 C-14.298125 16.298125 -13.65875 15.65875 -13 15 C-12.34 15 -11.68 15 -11 15 C-10.731875 14.401875 -10.46375 13.80375 -10.1875 13.1875 C-8.99427577 10.98945536 -7.75321129 9.75321129 -6 8 C-5.505 7.175 -5.01 6.35 -4.5 5.5 C-3.16687258 3.27812096 -1.90632582 1.72477098 0 0 Z " fill="#723C41" transform="translate(116,99)"/>
<path d="M0 0 C0.93634555 4.77536232 1.31115399 7.67569182 -1 12 C-3.49609375 14.3515625 -3.49609375 14.3515625 -6.4375 16.625 C-10.22710396 19.53465434 -10.22710396 19.53465434 -13.72265625 22.7734375 C-15 24 -15 24 -17 24 C-15.58566816 20.66101039 -13.93619488 18.88456419 -11.125 16.625 C-7.63338979 13.66126529 -5.12639568 11.06788739 -3 7 C-3.33 6.01 -3.66 5.02 -4 4 C-5.98 4.99 -5.98 4.99 -8 6 C-3.375 0 -3.375 0 0 0 Z " fill="#BA6711" transform="translate(104,79)"/>
<path d="M0 0 C-1.38894199 3.21982006 -2.94246936 5.07349534 -5.625 7.3125 C-6.68654297 8.20775391 -6.68654297 8.20775391 -7.76953125 9.12109375 C-8.50558594 9.74113281 -9.24164063 10.36117187 -10 11 C-12.08304241 12.86844835 -14.16318438 14.73991934 -16.23828125 16.6171875 C-18 18 -18 18 -21 19 C-21.309375 19.61875 -21.61875 20.2375 -21.9375 20.875 C-23.20298687 23.40597375 -24.67272837 24.44848558 -27 26 C-25.84826645 23.53199953 -24.95216435 21.95216435 -23 20 C-22.8453125 19.08154297 -22.8453125 19.08154297 -22.6875 18.14453125 C-21.66280823 14.94819157 -19.61664004 13.73356714 -17 11.6875 C-16.01128906 10.90890625 -15.02257812 10.1303125 -14.00390625 9.328125 C-13.01261719 8.55984375 -12.02132812 7.7915625 -11 7 C-10.12214844 6.29359375 -9.24429688 5.5871875 -8.33984375 4.859375 C-2.265625 0 -2.265625 0 0 0 Z " fill="#A54C76" transform="translate(109,87)"/>
<path d="M0 0 C-1.57380433 4.30511636 -4.87999621 6.68672911 -8.3125 9.5 C-13.29586587 13.66595419 -18.14273192 17.92588303 -22.875 22.375 C-27.37304664 26.58853164 -31.96205631 30.44380446 -37 34 C-37.66 33.67 -38.32 33.34 -39 33 C-38.04480469 32.17757812 -37.08960938 31.35515625 -36.10546875 30.5078125 C-34.79922558 29.38050211 -33.49325518 28.25287559 -32.1875 27.125 C-31.50985596 26.54016846 -30.83221191 25.95533691 -30.1340332 25.3527832 C-25.01219082 20.9166701 -20.01048768 16.37159454 -15.07421875 11.73046875 C-13 10 -13 10 -11 10 C-10.67 9.01 -10.34 8.02 -10 7 C-8.22265625 5.17578125 -8.22265625 5.17578125 -6.0625 3.3125 C-5.35222656 2.68988281 -4.64195313 2.06726563 -3.91015625 1.42578125 C-2 0 -2 0 0 0 Z " fill="#D08313" transform="translate(52,95)"/>
<path d="M0 0 C0.33 0.66 0.66 1.32 1 2 C-9.72668394 14.78950777 -9.72668394 14.78950777 -15.375 15.3125 C-16.24125 15.209375 -17.1075 15.10625 -18 15 C-16.625 13 -16.625 13 -15 11 C-14.34 11 -13.68 11 -13 11 C-13 10.34 -13 9.68 -13 9 C-11.01310269 7.64721885 -9.01254782 6.31431695 -7 5 C-6.67 4.34 -6.34 3.68 -6 3 C-4.34795544 2.29788106 -2.68076231 1.63028587 -1 1 C-0.67 0.67 -0.34 0.34 0 0 Z " fill="#F9C33A" transform="translate(58,135)"/>
<path d="M0 0 C0.99 0 1.98 0 3 0 C2.86155153 3.79197449 2.71299256 7.5834859 2.5625 11.375 C2.50352539 12.99535156 2.50352539 12.99535156 2.44335938 14.6484375 C2.40146484 15.6796875 2.35957031 16.7109375 2.31640625 17.7734375 C2.27974854 18.72653809 2.24309082 19.67963867 2.20532227 20.66162109 C2 23 2 23 1 25 C-2.73257709 20.8537864 -2.3632264 17.4883954 -2.23828125 12.12890625 C-1.91754226 7.91723528 -1.08751758 4.07819093 0 0 Z " fill="#B45E8E" transform="translate(122,0)"/>
<path d="M0 0 C0 0.99 0 1.98 0 3 C-0.66 3 -1.32 3 -2 3 C-2.33 3.99 -2.66 4.98 -3 6 C-4.03060547 6.05607422 -4.03060547 6.05607422 -5.08203125 6.11328125 C-6.43361328 6.21189453 -6.43361328 6.21189453 -7.8125 6.3125 C-9.15248047 6.39951172 -9.15248047 6.39951172 -10.51953125 6.48828125 C-13.0714851 6.77431501 -13.0714851 6.77431501 -14.57421875 8.60546875 C-15.27998047 9.29576172 -15.27998047 9.29576172 -16 10 C-18.1875 9.6875 -18.1875 9.6875 -20 9 C-13.69474691 3.23573016 -8.95592874 -0.53735572 0 0 Z " fill="#E29FDC" transform="translate(109,57)"/>
<path d="M0 0 C1.04220703 0.47566406 1.04220703 0.47566406 2.10546875 0.9609375 C5.26188644 2.09401052 7.97280167 2.40480011 11.3125 2.625 C12.91544922 2.73714844 12.91544922 2.73714844 14.55078125 2.8515625 C15.35902344 2.90054688 16.16726562 2.94953125 17 3 C15.96890187 5.91636038 15.34613214 6.83424658 12.50390625 8.1953125 C11.53324219 8.50210938 10.56257813 8.80890625 9.5625 9.125 C6.25425307 10.19103962 3.91669651 11.05553566 1 13 C1.309375 12.443125 1.61875 11.88625 1.9375 11.3125 C3.05761821 8.87459567 3.56037364 6.63775814 4 4 C2.68 3.34 1.36 2.68 0 2 C0 1.34 0 0.68 0 0 Z " fill="#EEB024" transform="translate(71,92)"/>
<path d="M0 0 C0.99 0 1.98 0 3 0 C3.9375 3.0625 3.9375 3.0625 4 7 C2.01054143 9.71969336 -0.48559987 11.77572296 -3 14 C-3.639375 14.825 -4.27875 15.65 -4.9375 16.5 C-7.38754563 19.46975227 -10.17056156 21.79281089 -13.09375 24.28515625 C-15.35792407 26.32198498 -17.21056004 28.53952006 -19 31 C-19.66 30.67 -20.32 30.34 -21 30 C-19.92781239 28.36762448 -18.84178756 26.74433197 -17.75 25.125 C-17.14671875 24.22007813 -16.5434375 23.31515625 -15.921875 22.3828125 C-13.99964556 19.99956055 -12.73689083 19.20469981 -10 18 C-9.67 17.34 -9.34 16.68 -9 16 C-8.34 16 -7.68 16 -7 16 C-7 15.34 -7 14.68 -7 14 C-5.0324413 12.14000715 -2.94444402 10.46609802 -0.84765625 8.75390625 C1.24798169 7.03994919 1.24798169 7.03994919 2 4 C2 3.01 2 2.02 2 1 C1.34 0.67 0.68 0.34 0 0 Z " fill="#AB579A" transform="translate(75,47)"/>
<path d="M0 0 C0.33 0 0.66 0 1 0 C1.44539877 8.7595092 1.44539877 8.7595092 -2 13 C-2.66 13 -3.32 13 -4 13 C-4.2475 14.175625 -4.495 15.35125 -4.75 16.5625 C-5.81896129 20.90806003 -7.63577541 24.21724066 -10 28 C-10.66 27.67 -11.32 27.34 -12 27 C-10.37695932 20.75753584 -8.35541297 14.92351031 -4 10 C-3.34 10 -2.68 10 -2 10 C-1.93941406 9.36191406 -1.87882812 8.72382812 -1.81640625 8.06640625 C-1.73261719 7.24011719 -1.64882812 6.41382812 -1.5625 5.5625 C-1.48128906 4.73878906 -1.40007812 3.91507813 -1.31640625 3.06640625 C-1 1 -1 1 0 0 Z " fill="#953970" transform="translate(122,59)"/>
<path d="M0 0 C1.32 0 2.64 0 4 0 C4 0.99 4 1.98 4 3 C3.01 3 2.02 3 1 3 C1 3.99 1 4.98 1 6 C-0.57421875 7.6484375 -0.57421875 7.6484375 -2.6875 9.375 C-5.15603118 11.43500665 -7.43462806 13.44473569 -9.6875 15.75 C-12.0257302 18.02503479 -14.03713184 19.63252239 -17 21 C-19.3125 20.6875 -19.3125 20.6875 -21 20 C-20.1646875 19.6596875 -20.1646875 19.6596875 -19.3125 19.3125 C-16.8137112 18.02977851 -16.8137112 18.02977851 -14.5625 15.5625 C-12.14548094 13.14548094 -9.93276902 11.6979189 -7 10 C-3.95846778 7.54337782 -2.6686814 4.48906111 -1 1 C-0.67 0.67 -0.34 0.34 0 0 Z " fill="#D88BC9" transform="translate(104,99)"/>
<path d="M0 0 C1.16074419 3.58775476 1.00737751 6.75944686 0.75 10.5 C0.68296875 11.6240625 0.6159375 12.748125 0.546875 13.90625 C-0.03514648 17.19882866 -0.87584192 18.50099049 -3 21 C-3.72351427 22.98014432 -4.40265389 24.97821315 -5 27 C-5.66 27 -6.32 27 -7 27 C-7.33 27.99 -7.66 28.98 -8 30 C-9.33332095 27.3333581 -8.67102033 25.83319697 -8 23 C-7.34 23 -6.68 23 -6 23 C-5.01 19.04 -4.02 15.08 -3 11 C-2.34 11 -1.68 11 -1 11 C-1.20625 10.113125 -1.4125 9.22625 -1.625 8.3125 C-2.02550239 4.7747289 -1.56683516 3.13367033 0 0 Z " fill="#BE49A1" transform="translate(126,63)"/>
<path d="M0 0 C0.525685 5.38827123 -1.16581274 8.60035912 -4 13 C-4.53625 13.969375 -5.0725 14.93875 -5.625 15.9375 C-6.305625 16.9584375 -6.305625 16.9584375 -7 18 C-7.66 18 -8.32 18 -9 18 C-7.19360499 6.05654124 -7.19360499 6.05654124 -4 1 C-2 0 -2 0 0 0 Z " fill="#F08CE2" transform="translate(121,74)"/>
<path d="M0 0 C0 3 0 3 -1.4609375 4.5 C-2.09257813 4.995 -2.72421875 5.49 -3.375 6 C-5.86340153 7.96614442 -7.1957287 9.29359306 -9 12 C-9.66 12 -10.32 12 -11 12 C-11.33 12.99 -11.66 13.98 -12 15 C-12.66 15 -13.32 15 -14 15 C-14.2475 15.804375 -14.495 16.60875 -14.75 17.4375 C-16 20 -16 20 -18.125 20.8125 C-18.74375 20.874375 -19.3625 20.93625 -20 21 C-18.8274442 16.89605472 -17.0727021 15.0335369 -13.71875 12.46875 C-10.99896185 10.1445674 -8.84979051 7.35571647 -6.61328125 4.57421875 C-5 3 -5 3 -2 3 C-2 2.34 -2 1.68 -2 1 C-1.34 0.67 -0.68 0.34 0 0 Z " fill="#C4750F" transform="translate(86,105)"/>
<path d="M0 0 C0.66 0 1.32 0 2 0 C1.67 2.31 1.34 4.62 1 7 C0.01 7.33 -0.98 7.66 -2 8 C-2.33 8.99 -2.66 9.98 -3 11 C-4.64639965 12.35827971 -6.31295807 13.69254251 -8 15 C-8.33 15.66 -8.66 16.32 -9 17 C-10.66279327 18.0064275 -12.32983484 19.00585407 -14 20 C-15.75149165 21.58245275 -15.75149165 21.58245275 -17 23 C-17.66 22.67 -18.32 22.34 -19 22 C-17.71451591 20.66070495 -16.42141845 19.32871357 -15.125 18 C-14.40570313 17.2575 -13.68640625 16.515 -12.9453125 15.75 C-11 14 -11 14 -9 14 C-8.7525 13.4225 -8.505 12.845 -8.25 12.25 C-6.81700012 9.67060021 -5.21575324 7.93878408 -3 6 C-2.34 6 -1.68 6 -1 6 C-0.67 4.02 -0.34 2.04 0 0 Z " fill="#FFD250" transform="translate(70,94)"/>
<path d="M0 0 C1.98 0 3.96 0 6 0 C6.33 1.98 6.66 3.96 7 6 C6.38125 6.061875 5.7625 6.12375 5.125 6.1875 C4.42375 6.455625 3.7225 6.72375 3 7 C2.71125 7.7425 2.4225 8.485 2.125 9.25 C0.55903108 13.07792402 -1.73121827 14.51288346 -5 17 C-4.41980487 13.63486826 -3.36548527 12.36548527 -1 10 C-0.28552357 7.89667109 -0.28552357 7.89667109 0 6 C0.99 6 1.98 6 3 6 C3 5.01 3 4.02 3 3 C1.68 3 0.36 3 -1 3 C-0.67 2.01 -0.34 1.02 0 0 Z " fill="#BF67AD" transform="translate(105,96)"/>
<path d="M0 0 C0 3 0 3 -2.3125 5.5 C-3.199375 6.325 -4.08625 7.15 -5 8 C-5.556875 8.598125 -6.11375 9.19625 -6.6875 9.8125 C-8 11 -8 11 -10 11 C-10.33 11.99 -10.66 12.98 -11 14 C-12.66279327 15.0064275 -14.32983484 16.00585407 -16 17 C-16.53625 17.721875 -17.0725 18.44375 -17.625 19.1875 C-18.305625 20.0846875 -18.305625 20.0846875 -19 21 C-19.99 21 -20.98 21 -22 21 C-20.71480435 18.13302508 -19.42870746 16.02392288 -17 14 C-16.34 14 -15.68 14 -15 14 C-14.67 13.01 -14.34 12.02 -14 11 C-12.63875 10.3503125 -12.63875 10.3503125 -11.25 9.6875 C-7.27128341 7.62162792 -5.75276878 5.49676034 -3 2 C-2.01 1.34 -1.02 0.68 0 0 Z " fill="#A25591" transform="translate(100,73)"/>
<path d="M0 0 C0.66 0 1.32 0 2 0 C2 0.66 2 1.32 2 2 C1.34 2 0.68 2 0 2 C-0.2475 2.61875 -0.495 3.2375 -0.75 3.875 C-2.20628639 6.35068687 -3.37812506 6.95125002 -6 8 C-6 8.66 -6 9.32 -6 10 C-6.99 10 -7.98 10 -9 10 C-9 11.32 -9 12.64 -9 14 C-12.63423209 16.32590854 -15.77088331 16.16265833 -20 16 C-20 15.67 -20 15.34 -20 15 C-19.113125 14.773125 -18.22625 14.54625 -17.3125 14.3125 C-13.44782354 12.7812131 -11.82758721 11.02955772 -9 8 C-6.91336776 6.12361778 -4.79455667 4.28852645 -2.671875 2.453125 C-1.75931754 1.65996758 -0.85494439 0.85494439 0 0 Z " fill="#813E70" transform="translate(96,79)"/>
<path d="M0 0 C0 0.66 0 1.32 0 2 C-1.546875 2.4021875 -1.546875 2.4021875 -3.125 2.8125 C-9.59178318 4.68241321 -14.64282083 8.03568742 -20 12 C-20.66 11.34 -21.32 10.68 -22 10 C-19.16569547 6.7457985 -17.31392226 5.4793247 -13 5 C-13 4.34 -13 3.68 -13 3 C-8.37802694 0.78145293 -5.23175837 -0.38281159 0 0 Z " fill="#9D5589" transform="translate(108,55)"/>
<path d="M0 0 C0.66 0 1.32 0 2 0 C1.34 3.63 0.68 7.26 0 11 C-0.66 11 -1.32 11 -2 11 C-2.103125 12.299375 -2.20625 13.59875 -2.3125 14.9375 C-2.848308 19.90160353 -4.24930225 24.34248334 -6 29 C-6.96503711 25.92144467 -6.98468736 23.81129485 -6.328125 20.6640625 C-6.15796875 19.84679687 -5.9878125 19.02953125 -5.8125 18.1875 C-5.5340625 16.9190625 -5.5340625 16.9190625 -5.25 15.625 C-5.07984375 14.78710938 -4.9096875 13.94921875 -4.734375 13.0859375 C-3.71568949 8.32208465 -2.42610454 4.28054078 0 0 Z " fill="#AF6292" transform="translate(130,27)"/>
<path d="M0 0 C0.66 0 1.32 0 2 0 C2 1.32 2 2.64 2 4 C1.01 4.66 0.02 5.32 -1 6 C-0.67 6.66 -0.34 7.32 0 8 C-4.0188515 9.81242323 -7.61110675 11.33501617 -12 12 C-5.5546875 4.15820312 -5.5546875 4.15820312 -2 2 C-1.34 2 -0.68 2 0 2 C0 1.34 0 0.68 0 0 Z " fill="#DC9AD3" transform="translate(87,67)"/>
<path d="M0 0 C0.66 0 1.32 0 2 0 C1.93965068 2.22990727 1.8507725 4.4590536 1.75 6.6875 C1.68039063 8.54955078 1.68039063 8.54955078 1.609375 10.44921875 C0.92862155 14.41591675 -0.25338754 16.12704336 -3 19 C-3 15.7 -3 12.4 -3 9 C-2.34 9 -1.68 9 -1 9 C-1.020625 7.700625 -1.04125 6.40125 -1.0625 5.0625 C-1.08399454 3.70834367 -1.07148199 2.35243917 -1 1 C-0.67 0.67 -0.34 0.34 0 0 Z " fill="#E98ED2" transform="translate(131,29)"/>
<path d="M0 0 C0.66 0.33 1.32 0.66 2 1 C-8.01118568 16.61744966 -8.01118568 16.61744966 -15 19 C-15.99 19 -16.98 19 -18 19 C-15.30958594 15.40655344 -12.5929542 12.74078446 -9 10.0625 C-5.06159562 7.00123288 -2.39636604 4.35702916 0 0 Z " fill="#AA5799" transform="translate(108,103)"/>
<path d="M0 0 C0.99 0 1.98 0 3 0 C3 1.98 3 3.96 3 6 C2.34 6 1.68 6 1 6 C0.95101562 6.67546875 0.90203125 7.3509375 0.8515625 8.046875 C0.77679688 8.93890625 0.70203125 9.8309375 0.625 10.75 C0.52058594 12.07257812 0.52058594 12.07257812 0.4140625 13.421875 C0.00149945 15.99066382 -0.71160957 17.75841015 -2 20 C-2.33 20 -2.66 20 -3 20 C-3.08333357 15.1666528 -2.95261487 10.76307437 -2 6 C-1.34 6 -0.68 6 0 6 C0 4.02 0 2.04 0 0 Z " fill="#644C5A" transform="translate(138,30)"/>
<path d="M0 0 C0.66 0.33 1.32 0.66 2 1 C1.21654285 2.17219543 0.42297164 3.33763668 -0.375 4.5 C-0.81585938 5.1496875 -1.25671875 5.799375 -1.7109375 6.46875 C-2.13632813 6.9740625 -2.56171875 7.479375 -3 8 C-3.66 8 -4.32 8 -5 8 C-5 8.99 -5 9.98 -5 11 C-10.25714286 15 -10.25714286 15 -13 15 C-10.46332306 9.2924769 -7.7697714 6.27754134 -2 4 C-0.65589738 1.98264795 -0.65589738 1.98264795 0 0 Z " fill="#CB70B8" transform="translate(103,63)"/>
<path d="M0 0 C0.99 0.33 1.98 0.66 3 1 C2.3125 2.875 2.3125 2.875 1 5 C-0.66666667 5.66666667 -2.33333333 6.33333333 -4 7 C-4.68268138 8.32520503 -5.3507041 9.65812182 -6 11 C-8.125 11.75 -8.125 11.75 -10 12 C-7.03539823 4.14380531 -7.03539823 4.14380531 -3 2 C-2.01 2 -1.02 2 0 2 C0 1.34 0 0.68 0 0 Z " fill="#E7BAE9" transform="translate(62,56)"/>
<path d="M0 0 C0.99 0.33 1.98 0.66 3 1 C2.38511719 1.68835938 2.38511719 1.68835938 1.7578125 2.390625 C1.21898437 3.00421875 0.68015625 3.6178125 0.125 4.25 C-0.40867187 4.85328125 -0.94234375 5.4565625 -1.4921875 6.078125 C-2.9797487 7.97418746 -4.00322436 9.81290005 -5 12 C-6.65 12 -8.3 12 -10 12 C-9.75 9.625 -9.75 9.625 -9 7 C-7.125 5.875 -7.125 5.875 -5 5 C-4.46375 4.46375 -3.9275 3.9275 -3.375 3.375 C-2.92125 2.92125 -2.4675 2.4675 -2 2 C-1.34 2 -0.68 2 0 2 C0 1.34 0 0.68 0 0 Z " fill="#EBB42F" transform="translate(42,66)"/>
<path d="M0 0 C0.33 0.66 0.66 1.32 1 2 C-4.75 7 -4.75 7 -7 7 C-7.0825 7.5775 -7.165 8.155 -7.25 8.75 C-8.21797787 11.6539336 -9.68694284 13.03740604 -12 15 C-12.66 15 -13.32 15 -14 15 C-14 11 -14 11 -12.5390625 9.296875 C-11.90742188 8.78640625 -11.27578125 8.2759375 -10.625 7.75 C-9.99851562 7.22921875 -9.37203125 6.7084375 -8.7265625 6.171875 C-7 5 -7 5 -5 5 C-5 4.34 -5 3.68 -5 3 C-2.5 1.375 -2.5 1.375 0 0 Z " fill="#F8C033" transform="translate(14,93)"/>
<path d="M0 0 C0.33 0 0.66 0 1 0 C1.33 2.64 1.66 5.28 2 8 C2.99 8.33 3.98 8.66 5 9 C5.33 7.02 5.66 5.04 6 3 C6.33 3 6.66 3 7 3 C7 5.31 7 7.62 7 10 C6.34 10 5.68 10 5 10 C5 10.66 5 11.32 5 12 C3.02 12.33 1.04 12.66 -1 13 C-1.07654536 8.48382401 -1.10228696 4.40914783 0 0 Z " fill="#E891D1" transform="translate(129,15)"/>
<path d="M0 0 C0.66 0.33 1.32 0.66 2 1 C2.3690205 11.55808656 2.3690205 11.55808656 0 16 C-0.99 16 -1.98 16 -3 16 C-2.01 10.72 -1.02 5.44 0 0 Z " fill="#3C2934" transform="translate(128,70)"/>
<path d="M0 0 C0.66 0 1.32 0 2 0 C1.67 2.64 1.34 5.28 1 8 C0.39414063 8.09152344 -0.21171875 8.18304688 -0.8359375 8.27734375 C-3.53674184 9.1792369 -4.13435526 10.18227695 -5.625 12.5625 C-6.8515625 14.50390625 -6.8515625 14.50390625 -8 16 C-8.66 16 -9.32 16 -10 16 C-8.70699324 10.44007093 -6.33941381 8.52577372 -2 5 C-0.60180488 2.3485518 -0.60180488 2.3485518 0 0 Z " fill="#683C5C" transform="translate(109,62)"/>
<path d="M0 0 C0.33 0.66 0.66 1.32 1 2 C0.45730469 2.47050781 -0.08539063 2.94101563 -0.64453125 3.42578125 C-1.35996094 4.04839844 -2.07539062 4.67101562 -2.8125 5.3125 C-3.52019531 5.92738281 -4.22789063 6.54226562 -4.95703125 7.17578125 C-6.98244046 8.93276741 -6.98244046 8.93276741 -8.63671875 10.73046875 C-10 12 -10 12 -12 12 C-12 8 -12 8 -10.64453125 6.3671875 C-7.23909474 3.59346309 -4.27698593 1.29605634 0 0 Z " fill="#E7B4E7" transform="translate(82,76)"/>
<path d="M0 0 C0.99 0 1.98 0 3 0 C1.86280581 3.41158256 0.95657056 4.11854601 -2 6 C-2.66 6 -3.32 6 -4 6 C-4 6.99 -4 7.98 -4 9 C-5.8125 10.0625 -5.8125 10.0625 -8 11 C-8.99 10.67 -9.98 10.34 -11 10 C-9.68 9.34 -8.36 8.68 -7 8 C-7 6.68 -7 5.36 -7 4 C-5.824375 3.566875 -5.824375 3.566875 -4.625 3.125 C-1.90328368 2.15087746 -1.90328368 2.15087746 0 0 Z " fill="#E7B6E8" transform="translate(96,63)"/>
<path d="M0 0 C0.66 0.33 1.32 0.66 2 1 C1.1875 4.4375 1.1875 4.4375 0 8 C-0.99 8.33 -1.98 8.66 -3 9 C-4.36830247 10.6336861 -4.36830247 10.6336861 -5.5625 12.5625 C-6.81640625 14.50390625 -6.81640625 14.50390625 -8 16 C-8.66 16 -9.32 16 -10 16 C-8.56058464 12.96200316 -6.88346492 10.22031941 -5 7.4375 C-4.484375 6.67308594 -3.96875 5.90867187 -3.4375 5.12109375 C-2.963125 4.42113281 -2.48875 3.72117188 -2 3 C-1.34 2.01 -0.68 1.02 0 0 Z " fill="#6A3E5E" transform="translate(79,52)"/>
<path d="M0 0 C1.32 0.66 2.64 1.32 4 2 C2.63855967 7.19822672 0.53269829 10.09543873 -3 14 C-3.99 13.67 -4.98 13.34 -6 13 C-5.195625 12.34 -4.39125 11.68 -3.5625 11 C-0.24851076 7.12020772 -0.25422975 4.99985175 0 0 Z " fill="#FAC234" transform="translate(72,94)"/>
<path d="M0 0 C0.99 0.33 1.98 0.66 3 1 C1.37660195 2.70884005 -0.29319053 4.37446717 -2 6 C-2.66 6 -3.32 6 -4 6 C-4 6.66 -4 7.32 -4 8 C-6.25 10.1875 -6.25 10.1875 -9 12 C-11.171875 11.61328125 -11.171875 11.61328125 -13 11 C-12.22914062 10.37351563 -11.45828125 9.74703125 -10.6640625 9.1015625 C-9.15972656 7.87566406 -9.15972656 7.87566406 -7.625 6.625 C-6.62726562 5.81289062 -5.62953125 5.00078125 -4.6015625 4.1640625 C-2.03639494 2.09734084 -2.03639494 2.09734084 0 0 Z " fill="#B7670D" transform="translate(49,138)"/>
<path d="M0 0 C0.33 0.66 0.66 1.32 1 2 C1.66 2 2.32 2 3 2 C3.6875 3.75 3.6875 3.75 4 6 C2.75 8.25 2.75 8.25 1 10 C0.01 10 -0.98 10 -2 10 C-2 8.02 -2 6.04 -2 4 C-2.66 3.67 -3.32 3.34 -4 3 C-2.68 2.01 -1.36 1.02 0 0 Z " fill="#A85E16" transform="translate(71,70)"/>
<path d="M0 0 C0.66 0.33 1.32 0.66 2 1 C-7.5276873 12.30618893 -7.5276873 12.30618893 -13 16 C-15.3125 15.75 -15.3125 15.75 -17 15 C-16.01 15 -15.02 15 -14 15 C-13.67 14.01 -13.34 13.02 -13 12 C-11.328125 10.60546875 -11.328125 10.60546875 -9.25 9.1875 C-5.47590534 6.47911193 -2.80833142 3.68593499 0 0 Z " fill="#F0B223" transform="translate(59,120)"/>
<path d="M0 0 C0.66 0.33 1.32 0.66 2 1 C1.34 2.32 0.68 3.64 0 5 C-0.99 5 -1.98 5 -3 5 C-3 5.66 -3 6.32 -3 7 C-3.99 7 -4.98 7 -6 7 C-6 7.66 -6 8.32 -6 9 C-7.98 9.33 -9.96 9.66 -12 10 C-8.66848902 6.2877449 -6.81978738 4.91185167 -2 4 C-0.63979849 2.03241727 -0.63979849 2.03241727 0 0 Z " fill="#894577" transform="translate(60,74)"/>
<path d="M0 0 C0.99 0.33 1.98 0.66 3 1 C-0.60575001 5.58913637 -4.47384007 9.32167983 -9 13 C-9.33 12.01 -9.66 11.02 -10 10 C-6.7 6.7 -3.4 3.4 0 0 Z " fill="#E5A4DE" transform="translate(89,72)"/>
<path d="M0 0 C0.33 0 0.66 0 1 0 C1.20086443 3.71599191 1.1519437 4.77208445 -1 8 C-1.66 8 -2.32 8 -3 8 C-3.33 10.31 -3.66 12.62 -4 15 C-4.99 15.33 -5.98 15.66 -7 16 C-6.11889688 10.00849877 -3.25904221 5.03670159 0 0 Z " fill="#DC58BD" transform="translate(121,78)"/>
<path d="M0 0 C1.67542976 0.28604898 3.34385343 0.61781233 5 1 C1.55384615 6.78461538 1.55384615 6.78461538 -1.25 7.875 C-1.8275 7.91625 -2.405 7.9575 -3 8 C-3 7.34 -3 6.68 -3 6 C-2.34 6 -1.68 6 -1 6 C-1.33 5.34 -1.66 4.68 -2 4 C-4.31 4 -6.62 4 -9 4 C-9 3.67 -9 3.34 -9 3 C-8.43410156 2.86722656 -7.86820313 2.73445313 -7.28515625 2.59765625 C-6.18494141 2.33275391 -6.18494141 2.33275391 -5.0625 2.0625 C-4.33160156 1.88847656 -3.60070313 1.71445313 -2.84765625 1.53515625 C-1.00030102 1.16112431 -1.00030102 1.16112431 0 0 Z " fill="#E8A81F" transform="translate(55,83)"/>
<path d="M0 0 C0 3 0 3 -1 6 C-0.34 6 0.32 6 1 6 C1 5.34 1 4.68 1 4 C3.97411124 2.76078698 6.85262818 1.69941596 10 1 C7.66666667 3.33333333 5.33333333 5.66666667 3 8 C0.375 7.625 0.375 7.625 -2 7 C-2 5.02 -2 3.04 -2 1 C-1.34 0.67 -0.68 0.34 0 0 Z " fill="#E39AD4" transform="translate(41,74)"/>
<path d="M0 0 C0 3 0 3 -2.484375 5.6640625 C-3.56509376 6.65960145 -4.65403136 7.64627452 -5.75 8.625 C-6.28882813 9.12773438 -6.82765625 9.63046875 -7.3828125 10.1484375 C-12.31605446 14.62445215 -12.31605446 14.62445215 -16 15 C-12.49441279 11.44314278 -8.89446761 8.03716953 -5.1875 4.6875 C-4.21167969 3.80449219 -3.23585938 2.92148438 -2.23046875 2.01171875 C-1.49441406 1.34785156 -0.75835937 0.68398437 0 0 Z " fill="#C97B11" transform="translate(29,114)"/>
<path d="M0 0 C1.125 3.75 1.125 3.75 0 6 C0.66 6.33 1.32 6.66 2 7 C1.525625 7.391875 1.05125 7.78375 0.5625 8.1875 C-1.35179633 10.40808374 -1.61266988 12.13375709 -2 15 C-2.33 15 -2.66 15 -3 15 C-3.08142927 13.2507786 -3.13938541 11.50045458 -3.1875 9.75 C-3.22230469 8.77546875 -3.25710937 7.8009375 -3.29296875 6.796875 C-2.96075202 3.62531258 -2.11327721 2.32959693 0 0 Z " fill="#572648" transform="translate(125,80)"/>
<path d="M0 0 C-1.98858245 4.2693263 -4.54427057 7.78929784 -8 11 C-10.875 11.9375 -10.875 11.9375 -13 12 C-11.88625 10.948125 -11.88625 10.948125 -10.75 9.875 C-8.07939115 7.08299984 -6.11907302 4.21514527 -4 1 C-2 0 -2 0 0 0 Z " fill="#C869B5" transform="translate(89,78)"/>
<path d="M0 0 C-0.928125 0.7425 -1.85625 1.485 -2.8125 2.25 C-5.27126958 4.29025561 -7.21647549 6.32471323 -9 9 C-9.99 8.67 -10.98 8.34 -12 8 C-12 7.34 -12 6.68 -12 6 C-11.01 5.67 -10.02 5.34 -9 5 C-8.525625 4.175 -8.05125 3.35 -7.5625 2.5 C-6 0 -6 0 -3.9375 -0.875 C-2 -1 -2 -1 0 0 Z " fill="#DB8DC7" transform="translate(83,84)"/>
<path d="M0 0 C0.99 0 1.98 0 3 0 C3 0.66 3 1.32 3 2 C3.66 2 4.32 2 5 2 C5 2.99 5 3.98 5 5 C3.35 5.33 1.7 5.66 0 6 C0 6.66 0 7.32 0 8 C-0.99 8.33 -1.98 8.66 -3 9 C-1.125 2.25 -1.125 2.25 0 0 Z " fill="#E7AEE7" transform="translate(72,46)"/>
<path d="M0 0 C0.66 0.33 1.32 0.66 2 1 C0.28032649 4.02990095 -1.29238306 6.76327296 -4 9 C-4.66 9 -5.32 9 -6 9 C-6 7.68 -6 6.36 -6 5 C-2.78571429 2 -2.78571429 2 0 2 C0 1.34 0 0.68 0 0 Z " fill="#DD940A" transform="translate(6,130)"/>
<path d="M0 0 C0.66 0.33 1.32 0.66 2 1 C-0.64 3.97 -3.28 6.94 -6 10 C-7.32 9.67 -8.64 9.34 -10 9 C-8.68 8.34 -7.36 7.68 -6 7 C-6 6.34 -6 5.68 -6 5 C-4.04072937 3.2856382 -2.04119788 1.61594832 0 0 Z " fill="#FBCA45" transform="translate(28,80)"/>
<path d="M0 0 C0 3 0 3 -2.3125 5.5 C-3.199375 6.325 -4.08625 7.15 -5 8 C-5.556875 8.598125 -6.11375 9.19625 -6.6875 9.8125 C-8 11 -8 11 -10 11 C-10.33 11.99 -10.66 12.98 -11 14 C-11.66 13.67 -12.32 13.34 -13 13 C-12.278125 12.29875 -11.55625 11.5975 -10.8125 10.875 C-8.86886803 8.94238011 -7.09777169 6.94370996 -5.375 4.8125 C-3 2 -3 2 0 0 Z " fill="#974A86" transform="translate(100,73)"/>
<path d="M0 0 C1.65 0 3.3 0 5 0 C4.01 0.33 3.02 0.66 2 1 C2 2.98 2 4.96 2 7 C1.34 7 0.68 7 0 7 C-0.33 9.97 -0.66 12.94 -1 16 C-1.33 16 -1.66 16 -2 16 C-1.85833643 14.08302063 -1.71150416 12.16642277 -1.5625 10.25 C-1.48128906 9.18265625 -1.40007812 8.1153125 -1.31640625 7.015625 C-1.05909227 4.56320038 -0.68187782 2.36078709 0 0 Z " fill="#895374" transform="translate(136,29)"/>
<path d="M0 0 C0 1.98 0 3.96 0 6 C-2.64 6 -5.28 6 -8 6 C-6.91793075 3.04890203 -6.32605724 2.15905231 -3.4375 0.75 C-1 0 -1 0 0 0 Z " fill="#865474" transform="translate(150,24)"/>
<path d="M0 0 C1.98 0 3.96 0 6 0 C6.33 1.98 6.66 3.96 7 6 C6.01 6.33 5.02 6.66 4 7 C3.67 6.01 3.34 5.02 3 4 C0.98491642 3.26676204 0.98491642 3.26676204 -1 3 C-0.67 2.01 -0.34 1.02 0 0 Z " fill="#B964A5" transform="translate(105,96)"/>
<path d="M0 0 C0.33 0 0.66 0 1 0 C1.3690205 11.52164009 1.3690205 11.52164009 -1 17 C-1.33 17 -1.66 17 -2 17 C-2 12.05 -2 7.1 -2 2 C-1.34 2 -0.68 2 0 2 C0 1.34 0 0.68 0 0 Z " fill="#CD82B6" transform="translate(134,25)"/>
<path d="M0 0 C0.66 0 1.32 0 2 0 C1.52389341 4.99911924 -0.03162219 7.97832683 -3 12 C-4 10 -4 10 -3.4765625 7.87109375 C-3.05503906 6.66646484 -3.05503906 6.66646484 -2.625 5.4375 C-2.34914063 4.63183594 -2.07328125 3.82617188 -1.7890625 2.99609375 C-1 1 -1 1 0 0 Z " fill="#DF970B" transform="translate(110,120)"/>
<path d="M0 0 C0.66 0.66 1.32 1.32 2 2 C0.37660195 3.70884005 -1.29319053 5.37446717 -3 7 C-3.66 7 -4.32 7 -5 7 C-5.33 8.32 -5.66 9.64 -6 11 C-6.66 11 -7.32 11 -8 11 C-7.43040847 7.37386801 -6.07625466 5.74482259 -3.4375 3.25 C-2.79683594 2.63640625 -2.15617187 2.0228125 -1.49609375 1.390625 C-1.00238281 0.93171875 -0.50867187 0.4728125 0 0 Z " fill="#BD6193" transform="translate(47,64)"/>
<path d="M0 0 C1 4 1 4 0 7 C-0.66 7 -1.32 7 -2 7 C-2.33 7.99 -2.66 8.98 -3 10 C-3.99 9.67 -4.98 9.34 -6 9 C-4.02 6.03 -2.04 3.06 0 0 Z " fill="#553646" transform="translate(77,59)"/>
<path d="M0 0 C1.49828872 3.88235819 0.43110582 6.43449288 -0.9375 10.25 C-1.31777344 11.32765625 -1.69804687 12.4053125 -2.08984375 13.515625 C-2.39019531 14.33546875 -2.69054687 15.1553125 -3 16 C-3.33 16 -3.66 16 -4 16 C-4.4010138 9.45010793 -2.86887178 5.73774356 0 0 Z " fill="#BB7AA5" transform="translate(131,47)"/>
<path d="M0 0 C0.66 0.33 1.32 0.66 2 1 C1.2884375 1.6496875 1.2884375 1.6496875 0.5625 2.3125 C-1.23686957 4.02309613 -1.23686957 4.02309613 -2 7 C-5 9 -5 9 -7.1875 8.625 C-7.785625 8.41875 -8.38375 8.2125 -9 8 C-7.625 6.5 -7.625 6.5 -6 5 C-5.34 5 -4.68 5 -4 5 C-4 4.34 -4 3.68 -4 3 C-2 1.375 -2 1.375 0 0 Z " fill="#E8A61C" transform="translate(49,141)"/>
<path d="M0 0 C0 3 0 3 -2.1875 5.26171875 C-3.115625 6.06222656 -4.04375 6.86273438 -5 7.6875 C-5.928125 8.49574219 -6.85625 9.30398437 -7.8125 10.13671875 C-8.8953125 11.05904297 -8.8953125 11.05904297 -10 12 C-10 8.38834178 -9.38246609 7.6289281 -7 5 C-5.35857037 3.9590934 -3.69287785 2.95495674 -2 2 C-1.34 1.34 -0.68 0.68 0 0 Z " fill="#E8A516" transform="translate(65,118)"/>
<path d="M0 0 C0.66 0 1.32 0 2 0 C2 1.32 2 2.64 2 4 C1.34 4 0.68 4 0 4 C-0.103125 4.639375 -0.20625 5.27875 -0.3125 5.9375 C-0.539375 6.618125 -0.76625 7.29875 -1 8 C-1.99 8.33 -2.98 8.66 -4 9 C-4 4.32409833 -3.11997802 3.30350614 0 0 Z " fill="#543449" transform="translate(106,70)"/>
<path d="M0 0 C0 4.87140024 -2.99424286 7.93836747 -6.25 11.375 C-6.8275 11.91125 -7.405 12.4475 -8 13 C-8.66 12.67 -9.32 12.34 -10 12 C-9.401875 11.443125 -8.80375 10.88625 -8.1875 10.3125 C-6.00501381 8.00530031 -4.60631661 5.72375426 -3 3 C-1.3125 1.1875 -1.3125 1.1875 0 0 Z " fill="#7A3D6C" transform="translate(116,99)"/>
<path d="M0 0 C0.99 0.66 1.98 1.32 3 2 C-0.63 4.97 -4.26 7.94 -8 11 C-8.66 10.67 -9.32 10.34 -10 10 C-8.88121617 8.82737096 -7.75476949 7.66204862 -6.625 6.5 C-5.68527344 5.52546875 -5.68527344 5.52546875 -4.7265625 4.53125 C-3 3 -3 3 -1 3 C-0.67 2.01 -0.34 1.02 0 0 Z " fill="#D28510" transform="translate(68,79)"/>
<path d="M0 0 C-3.96 3.465 -3.96 3.465 -8 7 C-9 4 -9 4 -8 1 C-4.68510482 -0.74468167 -3.63361056 -1.21120352 0 0 Z " fill="#E296D6" transform="translate(60,68)"/>
<path d="M0 0 C0.66 0.99 1.32 1.98 2 3 C2.99 2.01 3.98 1.02 5 0 C4.38461538 5.53846154 4.38461538 5.53846154 2.4375 7.875 C1.7259375 8.431875 1.7259375 8.431875 1 9 C0.34 8.67 -0.32 8.34 -1 8 C-0.67 5.36 -0.34 2.72 0 0 Z " fill="#D882BF" transform="translate(127,43)"/>
<path d="M0 0 C0 3 0 3 -1.49609375 4.53515625 C-2.13675781 5.03917969 -2.77742187 5.54320312 -3.4375 6.0625 C-6.15875193 8.1671333 -6.15875193 8.1671333 -8 11 C-8.99 11 -9.98 11 -11 11 C-11 10.34 -11 9.68 -11 9 C-9.21895282 7.39821407 -7.37462722 5.86618074 -5.5 4.375 C-4.4790625 3.55773437 -3.458125 2.74046875 -2.40625 1.8984375 C-1.6121875 1.27195313 -0.818125 0.64546875 0 0 Z " fill="#C47610" transform="translate(11,130)"/>
<path d="M0 0 C0.66 0.33 1.32 0.66 2 1 C-0.35700047 4.79738964 -2.90552223 6.2939676 -7 8 C-7.99 8 -8.98 8 -10 8 C-7.32187053 4.23078075 -5.40524374 2.4287277 -1 1 C-0.67 0.67 -0.34 0.34 0 0 Z " fill="#A1528D" transform="translate(100,114)"/>
<path d="M0 0 C0.66 0.33 1.32 0.66 2 1 C2 2.32 2 3.64 2 5 C-0.8125 7.0625 -0.8125 7.0625 -4 9 C-5.79394446 10.62351109 -5.79394446 10.62351109 -7 12 C-6.42676569 8.13066838 -4.61046448 5.84777943 -2 3 C-1.34 3 -0.68 3 0 3 C0 2.01 0 1.02 0 0 Z " fill="#B25DA1" transform="translate(109,57)"/>
<path d="M0 0 C0.99 0 1.98 0 3 0 C3 1.98 3 3.96 3 6 C2.34 6 1.68 6 1 6 C1 7.32 1 8.64 1 10 C0.34 10 -0.32 10 -1 10 C-0.67 6.7 -0.34 3.4 0 0 Z " fill="#5D4854" transform="translate(138,30)"/>
<path d="M0 0 C0 3 0 3 -1.75 4.82421875 C-2.4925 5.43910156 -3.235 6.05398437 -4 6.6875 C-4.7425 7.31011719 -5.485 7.93273437 -6.25 8.57421875 C-6.8275 9.04472656 -7.405 9.51523438 -8 10 C-8 6.47190093 -7.35723489 5.53184488 -5 3 C-4.01 3 -3.02 3 -2 3 C-2 2.34 -2 1.68 -2 1 C-1.34 0.67 -0.68 0.34 0 0 Z " fill="#A45127" transform="translate(86,105)"/>
<path d="M0 0 C0 1.33333333 0 2.66666667 0 4 C0.66 4.33 1.32 4.66 2 5 C1.34 5.66 0.68 6.32 0 7 C-0.66 7 -1.32 7 -2 7 C-2.66 7.66 -3.32 8.32 -4 9 C-4.66 8.34 -5.32 7.68 -6 7 C-4.02 4.69 -2.04 2.38 0 0 Z " fill="#D88AC6" transform="translate(107,90)"/>
<path d="M0 0 C0.33 0.66 0.66 1.32 1 2 C-1.20033965 5.35841315 -3.35989958 7.2709523 -7 9 C-7.99 8.67 -8.98 8.34 -10 8 C-6.66666667 5.33333333 -3.33333333 2.66666667 0 0 Z " fill="#C86BAF" transform="translate(51,75)"/>
<path d="M0 0 C-1.50223584 4.20626034 -4.28550034 5.73900021 -8 8 C-8 7.01 -8 6.02 -8 5 C-2.65116279 0 -2.65116279 0 0 0 Z " fill="#914773" transform="translate(109,87)"/>
<path d="M0 0 C1.32 0 2.64 0 4 0 C4 0.99 4 1.98 4 3 C0.36576791 5.32590854 -2.77088331 5.16265833 -7 5 C-7 4.67 -7 4.34 -7 4 C-6.030625 3.71125 -5.06125 3.4225 -4.0625 3.125 C-0.89335797 2.35785318 -0.89335797 2.35785318 0 0 Z " fill="#8D494E" transform="translate(83,90)"/>
<path d="M0 0 C1.1875 1.6875 1.1875 1.6875 2 4 C0.625 6.75 0.625 6.75 -1 9 C-1.33 8.34 -1.66 7.68 -2 7 C-1.67 6.34 -1.34 5.68 -1 5 C-2.32 5.33 -3.64 5.66 -5 6 C-3.35 4.02 -1.7 2.04 0 0 Z " fill="#823670" transform="translate(119,90)"/>
<path d="M0 0 C0.33 0.66 0.66 1.32 1 2 C1.66 2.33 2.32 2.66 3 3 C2.34 3 1.68 3 1 3 C1 3.99 1 4.98 1 6 C0.01 6 -0.98 6 -2 6 C-2 6.66 -2 7.32 -2 8 C-2.66 8 -3.32 8 -4 8 C-3.49396008 5.83125748 -3.00016187 4.00032373 -2 2 C-1.34 2 -0.68 2 0 2 C0 1.34 0 0.68 0 0 Z " fill="#E6B4E9" transform="translate(44,72)"/>
<path d="M0 0 C0.33 0 0.66 0 1 0 C1.36923077 7.38461538 1.36923077 7.38461538 -0.5 10.5 C-0.995 10.995 -1.49 11.49 -2 12 C-2.17835515 7.45194365 -1.99785435 4.1205746 0 0 Z " fill="#A25887" transform="translate(122,59)"/>
<path d="M0 0 C0.66 0 1.32 0 2 0 C2 0.66 2 1.32 2 2 C1.34 2 0.68 2 0 2 C-0.226875 2.639375 -0.45375 3.27875 -0.6875 3.9375 C-2 6 -2 6 -4.625 6.75 C-5.800625 6.87375 -5.800625 6.87375 -7 7 C-4.66666667 4.66666667 -2.33333333 2.33333333 0 0 Z " fill="#D789C8" transform="translate(96,60)"/>
<path d="M0 0 C1.32 0 2.64 0 4 0 C4 0.99 4 1.98 4 3 C0.535 4.485 0.535 4.485 -3 6 C-1.125 1.125 -1.125 1.125 0 0 Z " fill="#DC96D1" transform="translate(104,99)"/>
<path d="M0 0 C0.33 1.32 0.66 2.64 1 4 C-1.97 6.475 -1.97 6.475 -5 9 C-3.90931332 5.22454612 -3.0916909 2.52956528 0 0 Z " fill="#9B4A89" transform="translate(107,63)"/>
<path d="M0 0 C0.66 0.33 1.32 0.66 2 1 C1.67 2.32 1.34 3.64 1 5 C-0.65 5.33 -2.3 5.66 -4 6 C-3.67 5.01 -3.34 4.02 -3 3 C-2.34 3 -1.68 3 -1 3 C-0.67 2.01 -0.34 1.02 0 0 Z " fill="#D3880A" transform="translate(95,144)"/>
<path d="M0 0 C0.99 0 1.98 0 3 0 C3 2 3 2 1.625 3.625 C0 5 0 5 -2 5 C-2.33 5.99 -2.66 6.98 -3 8 C-3.66 7.01 -4.32 6.02 -5 5 C-4.01 4.67 -3.02 4.34 -2 4 C-2 3.34 -2 2.68 -2 2 C-1.34 2 -0.68 2 0 2 C0 1.34 0 0.68 0 0 Z " fill="#BB7908" transform="translate(101,139)"/>
<path d="M0 0 C0 0.99 0 1.98 0 3 C-0.66 3 -1.32 3 -2 3 C-2 3.66 -2 4.32 -2 5 C-2.99 5.33 -3.98 5.66 -5 6 C-6.66710346 7.49985609 -6.66710346 7.49985609 -8 9 C-7.43416161 5.71813734 -6.58727596 4.10815078 -4 2 C-1.8125 0.8125 -1.8125 0.8125 0 0 Z " fill="#C06F0E" transform="translate(86,103)"/>
<path d="M0 0 C0.99 0.33 1.98 0.66 3 1 C0.69 3.31 -1.62 5.62 -4 8 C-4.66 7.67 -5.32 7.34 -6 7 C-4.02 4.69 -2.04 2.38 0 0 Z " fill="#FDD154" transform="translate(44,103)"/>
<path d="M0 0 C0 3 0 3 -1.875 5.1875 C-4 7 -4 7 -6 7 C-6 5.68 -6 4.36 -6 3 C-4.02 2.01 -2.04 1.02 0 0 Z " fill="#FCC73B" transform="translate(6,101)"/>
<path d="M0 0 C0.66 0.33 1.32 0.66 2 1 C2 3.31 2 5.62 2 8 C0.02 8.99 0.02 8.99 -2 10 C-1.34 6.7 -0.68 3.4 0 0 Z " fill="#542C49" transform="translate(128,70)"/>
<path d="M0 0 C0.66 0.33 1.32 0.66 2 1 C-0.625 5.875 -0.625 5.875 -4 7 C-4.66 6.34 -5.32 5.68 -6 5 C-4.02 3.35 -2.04 1.7 0 0 Z " fill="#F7C138" transform="translate(67,126)"/>
<path d="M0 0 C0.99 0.33 1.98 0.66 3 1 C2.34 2.32 1.68 3.64 1 5 C0.01 5 -0.98 5 -2 5 C-2.66 4.34 -3.32 3.68 -4 3 C-2.1875 1.4375 -2.1875 1.4375 0 0 Z " fill="#CF79AE" transform="translate(89,117)"/>
<path d="M0 0 C-1.44077046 3.36179774 -3.24750021 5.59156268 -6 8 C-6.66 8 -7.32 8 -8 8 C-6.48291727 4.46014029 -4.24676932 0 0 0 Z " fill="#C98A0A" transform="translate(8,96)"/>
<path d="M0 0 C1.43088528 2.86177057 0.59991697 4.93375773 0 8 C-0.33 7.34 -0.66 6.68 -1 6 C-2.65 6 -4.3 6 -6 6 C-4 4 -2 2 0 0 Z " fill="#EFB836" transform="translate(69,81)"/>
<path d="M0 0 C0.33 0.66 0.66 1.32 1 2 C0.21654285 3.17219543 -0.57702836 4.33763668 -1.375 5.5 C-1.81585938 6.1496875 -2.25671875 6.799375 -2.7109375 7.46875 C-3.13632813 7.9740625 -3.56171875 8.479375 -4 9 C-4.66 9 -5.32 9 -6 9 C-4.83857315 4.64464931 -3.92300495 2.35380297 0 0 Z " fill="#7D3B6C" transform="translate(105,69)"/>
<path d="M0 0 C1.45606519 4.52092968 0.27032841 7.51648796 -1 12 C-2.4606285 9.35261084 -3 8.10551666 -3 5 C-2.34 5 -1.68 5 -1 5 C-0.67 3.35 -0.34 1.7 0 0 Z " fill="#CD76AF" transform="translate(125,51)"/>
<path d="M0 0 C0 4.38968456 -2.12805101 5.76905739 -5 9 C-5.66 8.67 -6.32 8.34 -7 8 C-6.67 7.34 -6.34 6.68 -6 6 C-5.34 6 -4.68 6 -4 6 C-3.71125 5.38125 -3.4225 4.7625 -3.125 4.125 C-2 2 -2 2 0 0 Z " fill="#F2B526" transform="translate(93,141)"/>
<path d="M0 0 C0 0.99 0 1.98 0 3 C-2.90600261 4.25664978 -4.79604584 5 -8 5 C-3.375 0 -3.375 0 0 0 Z " fill="#C3750D" transform="translate(104,79)"/>
<path d="M0 0 C0.66 0.33 1.32 0.66 2 1 C-2.296875 5.00390625 -2.296875 5.00390625 -4 6 C-6.203125 5.65234375 -6.203125 5.65234375 -8 5 C-6.71475739 4.13619741 -5.42157581 3.28419631 -4.125 2.4375 C-3.04605469 1.72400391 -3.04605469 1.72400391 -1.9453125 0.99609375 C-1.30335937 0.66738281 -0.66140625 0.33867188 0 0 Z " fill="#A75396" transform="translate(52,78)"/>
<path d="M0 0 C0.66 0.33 1.32 0.66 2 1 C1.34 2.32 0.68 3.64 0 5 C-0.99 5 -1.98 5 -3 5 C-3 5.66 -3 6.32 -3 7 C-3.99 6.67 -4.98 6.34 -6 6 C-5.38125 5.7525 -4.7625 5.505 -4.125 5.25 C-1.64931313 3.79371361 -1.04874998 2.62187494 0 0 Z " fill="#7D3E6B" transform="translate(60,74)"/>
<path d="M0 0 C0.33 1.32 0.66 2.64 1 4 C-0.32 4.33 -1.64 4.66 -3 5 C-3 5.66 -3 6.32 -3 7 C-3.66 7 -4.32 7 -5 7 C-5 6.01 -5 5.02 -5 4 C-2.5 1.8125 -2.5 1.8125 0 0 Z " fill="#E098D7" transform="translate(47,67)"/>
<path d="M0 0 C0.66 0.33 1.32 0.66 2 1 C1.21654285 2.17219543 0.42297164 3.33763668 -0.375 4.5 C-0.81585938 5.1496875 -1.25671875 5.799375 -1.7109375 6.46875 C-2.13632813 6.9740625 -2.56171875 7.479375 -3 8 C-3.66 8 -4.32 8 -5 8 C-3.62845496 5.04590299 -2.01136276 2.55991624 0 0 Z " fill="#773A67" transform="translate(74,60)"/>
<path d="M0 0 C0.99 0.33 1.98 0.66 3 1 C1.02 1.99 1.02 1.99 -1 3 C-1 3.66 -1 4.32 -1 5 C-2.65 5.66 -4.3 6.32 -6 7 C-4.02 4.69 -2.04 2.38 0 0 Z " fill="#E7A415" transform="translate(43,136)"/>
<path d="M0 0 C-1.22934015 3.68802044 -2.93859378 4.72356973 -6 7 C-6.66 6.67 -7.32 6.34 -8 6 C-3.375 0 -3.375 0 0 0 Z " fill="#E7B5E8" transform="translate(103,98)"/>
<path d="M0 0 C0.33 0 0.66 0 1 0 C1 3.3 1 6.6 1 10 C0.34 10 -0.32 10 -1 10 C-2.31223496 6.06329512 -1.24296256 3.87511856 0 0 Z " fill="#5C3753" transform="translate(121,89)"/>
<path d="M0 0 C0.625 1.8125 0.625 1.8125 1 4 C0.01 5.485 0.01 5.485 -1 7 C-2.32 6.67 -3.64 6.34 -5 6 C-4.67 5.34 -4.34 4.68 -4 4 C-3.01 4 -2.02 4 -1 4 C-0.67 2.68 -0.34 1.36 0 0 Z " fill="#C96BB0" transform="translate(113,83)"/>
<path d="M0 0 C0.33 1.32 0.66 2.64 1 4 C-1.31 4.66 -3.62 5.32 -6 6 C-4 4 -2 2 0 0 Z " fill="#A45671" transform="translate(50,60)"/>
<path d="M0 0 C2.75 0.25 2.75 0.25 5 1 C2.03312999 2.64826111 -0.65626525 3.44271087 -4 4 C-2.3125 1.9375 -2.3125 1.9375 0 0 Z " fill="#914A55" transform="translate(96,119)"/>
<path d="M0 0 C-0.75 1.9375 -0.75 1.9375 -2 4 C-4.125 4.75 -4.125 4.75 -6 5 C-3.74193548 0 -3.74193548 0 0 0 Z " fill="#D37AC0" transform="translate(89,78)"/>
<path d="M0 0 C0.66 0 1.32 0 2 0 C2 0.99 2 1.98 2 3 C1.34 3 0.68 3 0 3 C-0.66 4.32 -1.32 5.64 -2 7 C-2.66 7 -3.32 7 -4 7 C-2.79618552 4.50638429 -1.54571278 2.31856917 0 0 Z " fill="#7A3160" transform="translate(118,69)"/>
<path d="M0 0 C0.66 0 1.32 0 2 0 C2 1.32 2 2.64 2 4 C0.02 4.33 -1.96 4.66 -4 5 C-3.34 4.01 -2.68 3.02 -2 2 C-1.34 2 -0.68 2 0 2 C0 1.34 0 0.68 0 0 Z " fill="#DA8FCD" transform="translate(87,67)"/>
<path d="M0 0 C1.32 0.33 2.64 0.66 4 1 C2.35 2.65 0.7 4.3 -1 6 C-1.33 5.01 -1.66 4.02 -2 3 C-1.34 3 -0.68 3 0 3 C0 2.01 0 1.02 0 0 Z " fill="#E192D4" transform="translate(63,60)"/>
</svg>
