<svg width="2000" height="2000" viewBox="0 0 2000 2000" fill="none" xmlns="http://www.w3.org/2000/svg">
<g clip-path="url(#clip0_130_2)">
<circle cx="1000" cy="1000" r="778" fill="#E6C7FF"/>
<path d="M1010.49 87L1054.97 164.035H966.016L1010.49 87Z" fill="#E6C7FF"/>
<path d="M1010.26 114.079L1058.98 198.467H961.537L1010.26 114.079Z" fill="#E6C7FF"/>
<rect x="1000.22" y="189.713" width="20.5426" height="45.2871" fill="#E6C7FF"/>
<path d="M1734.27 1616.98L1618.71 1590.49L1699.43 1503.65L1734.27 1616.98Z" fill="#E6C7FF"/>
<path d="M1708.05 1592.18L1581.45 1563.16L1669.88 1468.03L1708.05 1592.18Z" fill="#E6C7FF"/>
<rect x="1643.32" y="1513.74" width="27.3806" height="60.3617" transform="rotate(132.911 1643.32 1513.74)" fill="#E6C7FF"/>
<path d="M1779.46 1472.19L1691.96 1468.07L1739.27 1394.35L1779.46 1472.19Z" fill="#E6C7FF"/>
<path d="M1757.14 1457.59L1661.28 1453.09L1713.11 1372.32L1757.14 1457.59Z" fill="#E6C7FF"/>
<rect x="1699.79" y="1409.04" width="20.2307" height="44.5994" transform="rotate(122.691 1699.79 1409.04)" fill="#E6C7FF"/>
<path d="M85.7019 1349.21L180.322 1241.96L225.893 1377.53L85.7019 1349.21Z" fill="#E6C7FF"/>
<path d="M127.091 1335.69L230.744 1218.2L280.664 1366.71L127.091 1335.69Z" fill="#E6C7FF"/>
<rect x="247.505" y="1312.24" width="33.0297" height="72.8154" transform="rotate(-108.58 247.505 1312.24)" fill="#E6C7FF"/>
<path d="M221.194 1501.04L269.501 1408.66L325.379 1497.64L221.194 1501.04Z" fill="#E6C7FF"/>
<path d="M248.142 1484.44L301.06 1383.25L362.272 1480.71L248.142 1484.44Z" fill="#E6C7FF"/>
<rect x="329.308" y="1447.46" width="24.2635" height="52.9303" transform="rotate(-122.131 329.308 1447.46)" fill="#E6C7FF"/>
<path d="M1603.57 1682.78L1524.84 1646.44L1588.73 1597.34L1603.57 1682.78Z" fill="#E6C7FF"/>
<path d="M1587.29 1661.25L1501.04 1621.44L1571.03 1567.65L1587.29 1661.25Z" fill="#E6C7FF"/>
<rect x="1548.56" y="1595.93" width="18.609" height="45.145" transform="rotate(142.461 1548.56 1595.93)" fill="#E6C7FF"/>
<rect x="1491.77" y="226.999" width="83.9643" height="171.502" transform="rotate(35.5719 1491.77 226.999)" fill="#E6C7FF"/>
<rect x="1490.82" y="244.443" width="22.3309" height="22.3309" transform="rotate(35.5719 1490.82 244.443)" fill="#C884FF"/>
<rect x="1500.18" y="306.595" width="22.3309" height="22.3309" transform="rotate(35.5719 1500.18 306.595)" fill="#C884FF"/>
<rect x="1473.94" y="343.285" width="22.3309" height="22.3309" transform="rotate(35.5719 1473.94 343.285)" fill="#C884FF"/>
<rect x="1438.34" y="317.824" width="22.3309" height="22.3309" transform="rotate(35.5719 1438.34 317.824)" fill="#C884FF"/>
<rect x="1526.42" y="269.904" width="22.3309" height="22.3309" transform="rotate(35.5719 1526.42 269.904)" fill="#C884FF"/>
<rect x="1464.58" y="281.134" width="22.3309" height="22.3309" transform="rotate(35.5719 1464.58 281.134)" fill="#C884FF"/>
<rect x="154.504" y="670.315" width="74.5259" height="152.223" transform="rotate(-65.2286 154.504 670.315)" fill="#E6C7FF"/>
<rect x="169.87" y="668.238" width="19.8207" height="19.8207" transform="rotate(-65.2286 169.87 668.238)" fill="#C884FF"/>
<rect x="222.502" y="649.74" width="19.8207" height="19.8207" transform="rotate(-65.2286 222.502 649.74)" fill="#C884FF"/>
<rect x="258.856" y="666.515" width="19.8207" height="19.8207" transform="rotate(-65.2286 258.856 666.515)" fill="#C884FF"/>
<rect x="242.578" y="701.789" width="19.8207" height="19.8207" transform="rotate(-65.2286 242.578 701.789)" fill="#C884FF"/>
<rect x="186.148" y="632.964" width="19.8207" height="19.8207" transform="rotate(-65.2286 186.148 632.964)" fill="#C884FF"/>
<rect x="206.224" y="685.013" width="19.8207" height="19.8207" transform="rotate(-65.2286 206.224 685.013)" fill="#C884FF"/>
<rect x="118" y="800.448" width="74.5259" height="152.223" transform="rotate(-73.4797 118 800.448)" fill="#E6C7FF"/>
<rect x="132.908" y="796.187" width="19.8207" height="19.8207" transform="rotate(-73.4797 132.908 796.187)" fill="#C884FF"/>
<rect x="182.34" y="770.327" width="19.8207" height="19.8207" transform="rotate(-73.4797 182.34 770.327)" fill="#C884FF"/>
<rect x="220.725" y="781.712" width="19.8207" height="19.8207" transform="rotate(-73.4797 220.725 781.712)" fill="#C884FF"/>
<rect x="209.679" y="818.957" width="19.8207" height="19.8207" transform="rotate(-73.4797 209.679 818.957)" fill="#C884FF"/>
<rect x="143.955" y="758.942" width="19.8207" height="19.8207" transform="rotate(-73.4797 143.955 758.942)" fill="#C884FF"/>
<rect x="171.294" y="807.572" width="19.8207" height="19.8207" transform="rotate(-73.4797 171.294 807.572)" fill="#C884FF"/>
<rect x="1378.63" y="109.999" width="102.589" height="209.543" transform="rotate(26.2352 1378.63 109.999)" fill="#E6C7FF"/>
<rect x="1380.95" y="131.217" width="27.2843" height="27.2843" transform="rotate(26.2352 1380.95 131.217)" fill="#C884FF"/>
<rect x="1404.55" y="204.294" width="27.2843" height="27.2843" transform="rotate(26.2352 1404.55 204.294)" fill="#C884FF"/>
<rect x="1380.19" y="253.731" width="27.2843" height="27.2843" transform="rotate(26.2352 1380.19 253.731)" fill="#C884FF"/>
<rect x="1332.22" y="230.091" width="27.2843" height="27.2843" transform="rotate(26.2352 1332.22 230.091)" fill="#C884FF"/>
<rect x="1428.92" y="154.857" width="27.2843" height="27.2843" transform="rotate(26.2352 1428.92 154.857)" fill="#C884FF"/>
<rect x="1356.59" y="180.654" width="27.2843" height="27.2843" transform="rotate(26.2352 1356.59 180.654)" fill="#C884FF"/>
<path d="M431.154 283.619L617.024 355.74L459.14 481.017L431.154 283.619Z" fill="#E6C7FF"/>
<path d="M543.498 265.526L669.233 314.314L562.429 399.06L543.498 265.526Z" fill="#E6C7FF"/>
<path d="M1080.12 1955L914.706 1668.5H1245.53L1080.12 1955Z" fill="#E6C7FF"/>
<path d="M917.206 1862.31L805.31 1668.5H1029.1L917.206 1862.31Z" fill="#E6C7FF"/>
<path d="M1977.27 818.854L1744.9 1003.34L1701.32 709.862L1977.27 818.854Z" fill="#E6C7FF"/>
<path d="M1916.5 975.586L1759.32 1100.38L1729.83 901.856L1916.5 975.586Z" fill="#E6C7FF"/>
<path d="M1833.01 688.725L1724.11 857.32L1632.55 678.718L1833.01 688.725Z" fill="#E6C7FF"/>
</g>
<defs>
<clipPath id="clip0_130_2">
<rect width="2000" height="2000" fill="white"/>
</clipPath>
</defs>
</svg>
