<svg width="1943" height="1868" viewBox="0 0 1943 1868" fill="none" xmlns="http://www.w3.org/2000/svg">
<circle cx="943" cy="913" r="778" fill="white"/>
<path d="M953.492 0L997.968 77.0347H909.016L953.492 0Z" fill="white"/>
<path d="M953.259 27.0789L1001.98 111.467H904.537L953.259 27.0789Z" fill="white"/>
<rect x="943.221" y="102.713" width="20.5426" height="45.2871" fill="white"/>
<path d="M1677.27 1529.98L1561.71 1503.49L1642.43 1416.65L1677.27 1529.98Z" fill="white"/>
<path d="M1651.05 1505.18L1524.45 1476.16L1612.88 1381.03L1651.05 1505.18Z" fill="white"/>
<rect x="1586.32" y="1426.74" width="27.3806" height="60.3617" transform="rotate(132.911 1586.32 1426.74)" fill="white"/>
<path d="M1722.46 1385.19L1634.96 1381.07L1682.27 1307.35L1722.46 1385.19Z" fill="white"/>
<path d="M1700.14 1370.59L1604.28 1366.09L1656.11 1285.32L1700.14 1370.59Z" fill="white"/>
<rect x="1642.79" y="1322.04" width="20.2307" height="44.5994" transform="rotate(122.691 1642.79 1322.04)" fill="white"/>
<path d="M28.7019 1262.21L123.322 1154.96L168.893 1290.53L28.7019 1262.21Z" fill="white"/>
<path d="M70.0913 1248.69L173.744 1131.2L223.664 1279.71L70.0913 1248.69Z" fill="white"/>
<rect x="190.505" y="1225.24" width="33.0297" height="72.8154" transform="rotate(-108.58 190.505 1225.24)" fill="white"/>
<path d="M164.194 1414.04L212.501 1321.66L268.379 1410.64L164.194 1414.04Z" fill="white"/>
<path d="M191.142 1397.44L244.06 1296.25L305.272 1393.71L191.142 1397.44Z" fill="white"/>
<rect x="272.308" y="1360.46" width="24.2635" height="52.9303" transform="rotate(-122.131 272.308 1360.46)" fill="white"/>
<path d="M1546.57 1595.78L1467.84 1559.44L1531.73 1510.34L1546.57 1595.78Z" fill="white"/>
<path d="M1530.29 1574.25L1444.04 1534.44L1514.03 1480.65L1530.29 1574.25Z" fill="white"/>
<rect x="1491.56" y="1508.93" width="18.609" height="45.145" transform="rotate(142.461 1491.56 1508.93)" fill="white"/>
<rect x="1434.77" y="139.999" width="83.9643" height="171.502" transform="rotate(35.5719 1434.77 139.999)" fill="white"/>
<rect x="1433.82" y="157.443" width="22.3309" height="22.3309" transform="rotate(35.5719 1433.82 157.443)" fill="#9A9A9A"/>
<rect x="1443.18" y="219.595" width="22.3309" height="22.3309" transform="rotate(35.5719 1443.18 219.595)" fill="#9A9A9A"/>
<rect x="1416.94" y="256.285" width="22.3309" height="22.3309" transform="rotate(35.5719 1416.94 256.285)" fill="#9A9A9A"/>
<rect x="1381.34" y="230.824" width="22.3309" height="22.3309" transform="rotate(35.5719 1381.34 230.824)" fill="#9A9A9A"/>
<rect x="1469.42" y="182.904" width="22.3309" height="22.3309" transform="rotate(35.5719 1469.42 182.904)" fill="#9A9A9A"/>
<rect x="1407.58" y="194.134" width="22.3309" height="22.3309" transform="rotate(35.5719 1407.58 194.134)" fill="#9A9A9A"/>
<rect x="97.5043" y="583.315" width="74.5259" height="152.223" transform="rotate(-65.2286 97.5043 583.315)" fill="white"/>
<rect x="112.87" y="581.238" width="19.8207" height="19.8207" transform="rotate(-65.2286 112.87 581.238)" fill="#9A9A9A"/>
<rect x="165.502" y="562.74" width="19.8207" height="19.8207" transform="rotate(-65.2286 165.502 562.74)" fill="#9A9A9A"/>
<rect x="201.856" y="579.515" width="19.8207" height="19.8207" transform="rotate(-65.2286 201.856 579.515)" fill="#9A9A9A"/>
<rect x="185.578" y="614.789" width="19.8207" height="19.8207" transform="rotate(-65.2286 185.578 614.789)" fill="#9A9A9A"/>
<rect x="129.148" y="545.964" width="19.8207" height="19.8207" transform="rotate(-65.2286 129.148 545.964)" fill="#9A9A9A"/>
<rect x="149.224" y="598.013" width="19.8207" height="19.8207" transform="rotate(-65.2286 149.224 598.013)" fill="#9A9A9A"/>
<rect x="60.9996" y="713.448" width="74.5259" height="152.223" transform="rotate(-73.4797 60.9996 713.448)" fill="white"/>
<rect x="75.9084" y="709.187" width="19.8207" height="19.8207" transform="rotate(-73.4797 75.9084 709.187)" fill="#9A9A9A"/>
<rect x="125.34" y="683.327" width="19.8207" height="19.8207" transform="rotate(-73.4797 125.34 683.327)" fill="#9A9A9A"/>
<rect x="163.725" y="694.712" width="19.8207" height="19.8207" transform="rotate(-73.4797 163.725 694.712)" fill="#9A9A9A"/>
<rect x="152.679" y="731.957" width="19.8207" height="19.8207" transform="rotate(-73.4797 152.679 731.957)" fill="#9A9A9A"/>
<rect x="86.9553" y="671.942" width="19.8207" height="19.8207" transform="rotate(-73.4797 86.9553 671.942)" fill="#9A9A9A"/>
<rect x="114.294" y="720.572" width="19.8207" height="19.8207" transform="rotate(-73.4797 114.294 720.572)" fill="#9A9A9A"/>
<rect x="1321.63" y="22.999" width="102.589" height="209.543" transform="rotate(26.2352 1321.63 22.999)" fill="white"/>
<rect x="1323.95" y="44.2173" width="27.2843" height="27.2843" transform="rotate(26.2352 1323.95 44.2173)" fill="#9A9A9A"/>
<rect x="1347.55" y="117.294" width="27.2843" height="27.2843" transform="rotate(26.2352 1347.55 117.294)" fill="#9A9A9A"/>
<rect x="1323.19" y="166.731" width="27.2843" height="27.2843" transform="rotate(26.2352 1323.19 166.731)" fill="#9A9A9A"/>
<rect x="1275.22" y="143.091" width="27.2843" height="27.2843" transform="rotate(26.2352 1275.22 143.091)" fill="#9A9A9A"/>
<rect x="1371.92" y="67.8574" width="27.2843" height="27.2843" transform="rotate(26.2352 1371.92 67.8574)" fill="#9A9A9A"/>
<rect x="1299.59" y="93.6541" width="27.2843" height="27.2843" transform="rotate(26.2352 1299.59 93.6541)" fill="#9A9A9A"/>
<path d="M374.154 196.619L560.024 268.74L402.14 394.017L374.154 196.619Z" fill="white"/>
<path d="M486.498 178.526L612.233 227.314L505.429 312.06L486.498 178.526Z" fill="white"/>
<path d="M1023.12 1868L857.706 1581.5H1188.53L1023.12 1868Z" fill="white"/>
<path d="M860.206 1775.31L748.31 1581.5H972.101L860.206 1775.31Z" fill="white"/>
<path d="M1920.27 731.854L1687.9 916.336L1644.32 622.862L1920.27 731.854Z" fill="white"/>
<path d="M1859.5 888.586L1702.32 1013.38L1672.83 814.856L1859.5 888.586Z" fill="white"/>
<path d="M1776.01 601.725L1667.11 770.32L1575.55 591.718L1776.01 601.725Z" fill="white"/>
</svg>
